M48
;Layer_Color=9474304
;FILE_FORMAT=2:4
INCH,LZ
;TYPE=PLATED
T01F00S00C0.0080
T02F00S00C0.0100
T03F00S00C0.0120
T04F00S00C0.0150
T08F00S00C0.0315
T09F00S00C0.0320
T10F00S00C0.0374
T11F00S00C0.0450
T12F00S00C0.0510
T13F00S00C0.0512
T14F00S00C0.0551
T15F00S00C0.0590
T16F00S00C0.1260
%
T01
X0153Y01205
X01955Y0113
X0204Y0119
X0213
X0219
X02315Y0116
X02455Y01165
X02475Y01265
X0245Y013
X023843Y012593
X022294Y013606
X022Y01395
X0212Y0136
X02265Y01455
X024563Y0147
X025273Y0156
X02575Y0137
X0262Y0132
X0296Y0125
X03005Y01445
X03065Y01395
X03105Y0135
X03065Y0154
X0199Y0153
X01985Y0147
X01745Y01535
X03225Y01465
Y01385
X0327Y01395
X03445Y0128
X0339Y0117
X03505Y01084
X03735Y01085
X0381Y01075
X0399Y0114
X04235Y01235
X0423Y0134
X04235Y01535
X0342Y01545
X04775Y02115
X04755Y02385
X05355Y0247
X05585Y02455
X06055Y03
X04495Y02945
X0433
X0424Y02835
X04105Y02755
X04095Y02575
X04205Y02565
X03985Y02645
X039Y02635
X0386Y0264
X0388Y02505
X0383Y0251
X039Y02435
X03975Y02395
X0404Y02405
X03855Y02355
X03685
X0373Y02415
X03685Y0225
X0374Y02115
X03815Y0209
X038889Y020677
X03855Y01915
X0396Y0186
X04025Y01975
X04235Y01935
X0423Y01735
X04325Y02175
X0356Y02325
X03495
X03445Y02302
X0343Y0225
X03395Y022158
X034Y02115
X03405Y02065
X0344Y0209
X03465Y02
X034417Y019548
X03525Y0196
X03405Y0186
X03385Y0176
X0327
Y01845
X03215Y0188
X032Y01795
X03335Y0167
X0338Y0162
X031478Y02059
Y02089
Y021197
X031431Y02213
X03175Y02205
X032149Y022101
X033Y02575
X0335Y02535
X034Y02475
X0345
X035
X03505Y02795
X036Y028
Y0273
X03745Y027
X036Y0293
X03485Y0294
X0346Y0299
X034
X03525
X0366Y0305
X03295Y0309
X03265Y0293
X0323Y02775
X0299Y0278
X02982Y02715
X02911Y02477
X0291Y024
X02925Y0215
X0299Y02185
X03005Y0196
X02955Y0191
X02995Y0186
X031Y0182
X0302Y016
X0269Y01645
X0255Y01695
X0257Y01735
X02535Y01605
X02405
X02396Y0164
X02375Y01565
X02285Y0157
X0223Y01575
X022362Y016438
X02215Y01665
X02225Y0175
X021917Y0176
X02285Y01775
X02365Y0174
X02425Y0194
X02445Y01995
X022106Y019744
X0218Y0201
X0214Y01985
X02115Y02035
X0206Y0205
X020544Y019856
X02065Y0184
X02105Y0182
X01985Y01805
X0203Y01745
X0201Y01675
X01755Y0165
X01765Y01805
X01785Y02025
X01625Y02015
X0161Y02485
X01865Y02695
X0195
X0187Y02805
X01875Y02855
X01715Y02895
X015788Y02985
X02095Y02905
X0256Y0291
X0258Y0277
X02605Y02305
X0267Y02275
X02825Y0203
X02745Y0195
X02655Y01835
X02215Y02245
X0191Y02275
X0299Y0302
X0142
X01345Y0291
X011277Y0289
X01065Y0272
X0123Y02215
X01435Y02205
X0155Y0248
X0143Y0313
X01485Y0329
X01225Y0335
X0115Y0328
X0124Y03205
X0111Y0345
X0164Y0349
X01695Y03455
X0178Y0354
X01885Y0369
X02245Y0363
X025Y0314
X0259
X03045Y032
X03055Y03565
X0157Y03285
X03135Y032
X0318Y03415
X03215Y03565
X0341Y03255
X0345Y03175
X035Y0317
X03535Y03235
X03565Y03375
X037173Y0336
X0372Y0331
X0384Y0335
X0394Y0342
X04055Y0358
X0427Y0334
X04215Y03245
X0447Y0336
X0446Y0343
X0456Y03345
Y0355
X04775Y0337
X0483Y0334
X04925Y0337
X051Y0335
X05305
X049941Y035647
T02
X0376Y0344
T03
X01305Y037
X01455
X016
T04
X02045Y02695
T08
X05645Y0272
Y029759
X030575Y03645
X029787
X029
X027425
T09
X01315Y023463
Y02425
Y025037
T10
X04715Y0265
X04815
X04915
Y0305
X04815
X04715
X04615
X04515
X04415
X04315
X04215
Y0265
X04315
X04415
X04515
X04615
T11
X0162Y0239
X0172
X0182
X0192
X0202
X0212
X0222
X0232
X0242
X0252
X0262
X0272
X0152
Y0339
X0162
X0172
X0182
X0192
X0202
X0212
X0222
X0232
X0242
X0252
X0262
X0272
T12
X03895Y011894
Y013863
X0519Y013913
Y011944
X0583Y01335
Y015318
Y017287
X0519Y01785
Y019819
Y021787
Y015882
X03895Y015832
Y0178
Y019769
Y021737
T13
X058297Y020716
Y022684
X041618Y0356
X03965
X055866Y032003
X057834
T14
X013816Y013539
X015784
Y018461
X013816
T15
X01315Y022636
Y025864
T16
X0112Y0112
X05975
X0112Y03635
X05975
M30
