G04*
G04 #@! TF.GenerationSoftware,Altium Limited,Altium Designer,25.5.2 (35)*
G04*
G04 Layer_Physical_Order=2*
G04 Layer_Color=32768*
%FSLAX23Y23*%
%MOIN*%
G70*
G04*
G04 #@! TF.SameCoordinates,10694D88-6559-4D2D-811B-EC1DD4263B2B*
G04*
G04*
G04 #@! TF.FilePolarity,Negative*
G04*
G01*
G75*
%ADD77C,0.070*%
%ADD85C,0.040*%
%ADD86C,0.115*%
%ADD87C,0.111*%
%ADD88C,0.111*%
%ADD89O,0.090X0.110*%
%ADD90O,0.086X0.100*%
%ADD91C,0.091*%
%ADD92O,0.088X0.119*%
%ADD93C,0.105*%
%ADD94C,0.097*%
%ADD95C,0.092*%
%ADD96C,0.119*%
%ADD97C,0.068*%
%ADD98C,0.075*%
%ADD99C,0.186*%
D77*
X3760Y3440D02*
D03*
D85*
X1000Y1000D02*
Y3755D01*
X6095D01*
Y1000D02*
Y3755D01*
X1000Y1000D02*
X6095D01*
D86*
X1578Y1354D02*
D03*
Y1846D02*
D03*
X1382D02*
D03*
Y1354D02*
D03*
D87*
X5830Y1335D02*
D03*
X5190Y2179D02*
D03*
Y1982D02*
D03*
Y1785D02*
D03*
Y1588D02*
D03*
Y1391D02*
D03*
Y1194D02*
D03*
X3895Y2174D02*
D03*
Y1977D02*
D03*
Y1780D02*
D03*
Y1583D02*
D03*
Y1386D02*
D03*
Y1189D02*
D03*
X5830Y1532D02*
D03*
D88*
X4162Y3560D02*
D03*
X5783Y3200D02*
D03*
X5830Y2072D02*
D03*
Y2268D02*
D03*
X5587Y3200D02*
D03*
X3965Y3560D02*
D03*
D89*
X3309Y3655D02*
D03*
X3638D02*
D03*
D90*
X3561Y3537D02*
D03*
X3386D02*
D03*
D91*
X2979Y3645D02*
D03*
X2900D02*
D03*
X3057D02*
D03*
X2743D02*
D03*
X5645Y2976D02*
D03*
D92*
X2658Y3645D02*
D03*
X3142D02*
D03*
D93*
X1520Y2390D02*
D03*
X1620D02*
D03*
X1720D02*
D03*
X1820D02*
D03*
X1920D02*
D03*
X2020D02*
D03*
X2120D02*
D03*
X2220D02*
D03*
X2320D02*
D03*
X2420D02*
D03*
X2520D02*
D03*
X2620D02*
D03*
X2720D02*
D03*
X1520Y3390D02*
D03*
X1620D02*
D03*
X1720D02*
D03*
X1820D02*
D03*
X1920D02*
D03*
X2020D02*
D03*
X2120D02*
D03*
X2220D02*
D03*
X2320D02*
D03*
X2420D02*
D03*
X2520D02*
D03*
X2620D02*
D03*
X2720D02*
D03*
D94*
X4915Y3050D02*
D03*
X4815D02*
D03*
X4715D02*
D03*
X4615D02*
D03*
X4515D02*
D03*
X4415D02*
D03*
X4315D02*
D03*
X4215D02*
D03*
Y2650D02*
D03*
X4315D02*
D03*
X4415D02*
D03*
X4515D02*
D03*
X4615D02*
D03*
X4715D02*
D03*
X4815D02*
D03*
X4915D02*
D03*
D95*
X1315Y2346D02*
D03*
Y2425D02*
D03*
Y2504D02*
D03*
D96*
Y2264D02*
D03*
Y2586D02*
D03*
D97*
X2560Y2910D02*
D03*
X2990Y3020D02*
D03*
X1990Y1530D02*
D03*
X2211Y1974D02*
D03*
X2620Y1320D02*
D03*
X2550Y1695D02*
D03*
X2655Y1835D02*
D03*
X1230Y2215D02*
D03*
X1875Y2855D02*
D03*
X1128Y2890D02*
D03*
X1420Y3020D02*
D03*
X2215Y2245D02*
D03*
X2095Y2905D02*
D03*
X2245Y3630D02*
D03*
X2590Y3140D02*
D03*
X3105Y1350D02*
D03*
X3020Y1600D02*
D03*
X3225Y1385D02*
D03*
X3215Y1880D02*
D03*
X3270Y1395D02*
D03*
X3265Y2930D02*
D03*
X3295Y3090D02*
D03*
X4205Y2565D02*
D03*
X6055Y3000D02*
D03*
X3410Y3255D02*
D03*
X4270Y3340D02*
D03*
X4560Y3345D02*
D03*
X4830Y3340D02*
D03*
X3840Y3350D02*
D03*
X2375Y1565D02*
D03*
X2575Y1370D02*
D03*
X2450Y1300D02*
D03*
X2040Y1190D02*
D03*
X2130D02*
D03*
X2190D02*
D03*
X5100Y3350D02*
D03*
X1435Y2205D02*
D03*
X3717Y3360D02*
D03*
X3685Y2355D02*
D03*
X3405Y1860D02*
D03*
X3045Y3200D02*
D03*
X5585Y2455D02*
D03*
X2225Y1750D02*
D03*
X2236Y1644D02*
D03*
X2215Y1665D02*
D03*
X2405Y1605D02*
D03*
X2580Y2770D02*
D03*
X1570Y3285D02*
D03*
X1485Y3290D02*
D03*
X1240Y3205D02*
D03*
X2229Y1361D02*
D03*
X3180Y3415D02*
D03*
X3505Y1084D02*
D03*
X3940Y3420D02*
D03*
X3148Y2120D02*
D03*
X3860Y2640D02*
D03*
X3830Y2510D02*
D03*
X3990Y1140D02*
D03*
X3450Y3175D02*
D03*
X3500Y3170D02*
D03*
X3810Y1075D02*
D03*
X3735Y1085D02*
D03*
X3390Y1170D02*
D03*
X3225Y1465D02*
D03*
X1780Y3540D02*
D03*
X1150Y3280D02*
D03*
X3005Y1445D02*
D03*
X3065Y1395D02*
D03*
X3335Y1670D02*
D03*
X3380Y1620D02*
D03*
X2825Y2030D02*
D03*
X1640Y3490D02*
D03*
X2030Y1745D02*
D03*
X1985Y1805D02*
D03*
X3065Y1540D02*
D03*
X2995Y1860D02*
D03*
X2925Y2150D02*
D03*
X3385Y1760D02*
D03*
X3200Y1795D02*
D03*
X3270Y1760D02*
D03*
X3855Y1915D02*
D03*
X3960Y1860D02*
D03*
X1695Y3455D02*
D03*
X2990Y2185D02*
D03*
X3143Y2213D02*
D03*
X2982Y2715D02*
D03*
X3430Y2250D02*
D03*
X3440Y2090D02*
D03*
X3445Y2302D02*
D03*
X1225Y3350D02*
D03*
X2990Y2780D02*
D03*
X3395Y2216D02*
D03*
X3400Y2115D02*
D03*
X3495Y2325D02*
D03*
X3215Y2210D02*
D03*
X3175Y2205D02*
D03*
X3405Y2065D02*
D03*
X1785Y2025D02*
D03*
X1755Y1650D02*
D03*
X1745Y1535D02*
D03*
X2315Y1160D02*
D03*
X2455Y1165D02*
D03*
X4095Y2575D02*
D03*
X3535Y3235D02*
D03*
X3855Y2355D02*
D03*
X3730Y2415D02*
D03*
X3880Y2505D02*
D03*
X3900Y2435D02*
D03*
X3975Y2395D02*
D03*
X4105Y2755D02*
D03*
X3985Y2645D02*
D03*
X3148Y2089D02*
D03*
X5305Y3350D02*
D03*
X4775Y3370D02*
D03*
X4470Y3360D02*
D03*
X3350Y2535D02*
D03*
X4240Y2835D02*
D03*
X4925Y3370D02*
D03*
X4215Y3245D02*
D03*
X3600Y2730D02*
D03*
X3745Y2700D02*
D03*
X4460Y3430D02*
D03*
X3900Y2635D02*
D03*
X2910Y2400D02*
D03*
X2911Y2477D02*
D03*
X2285Y1775D02*
D03*
X2365Y1740D02*
D03*
X3600Y2930D02*
D03*
Y2800D02*
D03*
X2670Y2275D02*
D03*
X2605Y2305D02*
D03*
X3505Y2795D02*
D03*
X3560Y2325D02*
D03*
X3685Y2250D02*
D03*
X3148Y2059D02*
D03*
X2192Y1760D02*
D03*
X2745Y1950D02*
D03*
X2060Y2050D02*
D03*
X2180Y2010D02*
D03*
X2115Y2035D02*
D03*
X2140Y1985D02*
D03*
X2425Y1940D02*
D03*
X2445Y1995D02*
D03*
X2065Y1840D02*
D03*
X2105Y1820D02*
D03*
X2010Y1675D02*
D03*
X3442Y1955D02*
D03*
X3465Y2000D02*
D03*
X4025Y1975D02*
D03*
X3815Y2090D02*
D03*
X3740Y2115D02*
D03*
X1610Y2485D02*
D03*
X1579Y2985D02*
D03*
X1345Y2910D02*
D03*
X1550Y2480D02*
D03*
X1715Y2895D02*
D03*
X2230Y1575D02*
D03*
X2120Y1360D02*
D03*
X2265Y1455D02*
D03*
X2384Y1259D02*
D03*
X2475Y1265D02*
D03*
X3525Y1960D02*
D03*
X4755Y2385D02*
D03*
X3889Y2068D02*
D03*
X2690Y1645D02*
D03*
X2535Y1605D02*
D03*
X2396Y1640D02*
D03*
X3270Y1845D02*
D03*
X2200Y1395D02*
D03*
X2285Y1570D02*
D03*
X1870Y2805D02*
D03*
X1430Y3130D02*
D03*
X1865Y2695D02*
D03*
X4495Y2945D02*
D03*
X4330D02*
D03*
X3445Y1280D02*
D03*
X2960Y1250D02*
D03*
X3525Y2990D02*
D03*
X3460D02*
D03*
X3400D02*
D03*
D98*
X2045Y2695D02*
D03*
D99*
X5975Y3635D02*
D03*
Y1120D02*
D03*
X1120D02*
D03*
Y3635D02*
D03*
M02*
