G04*
G04 #@! TF.GenerationSoftware,Altium Limited,Altium Designer,25.5.2 (35)*
G04*
G04 Layer_Physical_Order=4*
G04 Layer_Color=16711680*
%FSLAX23Y23*%
%MOIN*%
G70*
G04*
G04 #@! TF.SameCoordinates,10694D88-6559-4D2D-811B-EC1DD4263B2B*
G04*
G04*
G04 #@! TF.FilePolarity,Positive*
G04*
G01*
G75*
%ADD12C,0.020*%
%ADD13C,0.010*%
%ADD17C,0.015*%
%ADD20R,0.045X0.045*%
%ADD21R,0.045X0.045*%
%ADD51C,0.071*%
%ADD55O,0.040X0.067*%
%ADD56O,0.042X0.049*%
%ADD64C,0.052*%
%ADD65C,0.079*%
%ADD68C,0.025*%
%ADD69C,0.030*%
%ADD70C,0.083*%
%ADD71C,0.077*%
G04:AMPARAMS|DCode=72|XSize=77mil|YSize=77mil|CornerRadius=19mil|HoleSize=0mil|Usage=FLASHONLY|Rotation=180.000|XOffset=0mil|YOffset=0mil|HoleType=Round|Shape=RoundedRectangle|*
%AMROUNDEDRECTD72*
21,1,0.077,0.038,0,0,180.0*
21,1,0.038,0.077,0,0,180.0*
1,1,0.038,-0.019,0.019*
1,1,0.038,0.019,0.019*
1,1,0.038,0.019,-0.019*
1,1,0.038,-0.019,-0.019*
%
%ADD72ROUNDEDRECTD72*%
G04:AMPARAMS|DCode=73|XSize=77mil|YSize=77mil|CornerRadius=19mil|HoleSize=0mil|Usage=FLASHONLY|Rotation=90.000|XOffset=0mil|YOffset=0mil|HoleType=Round|Shape=RoundedRectangle|*
%AMROUNDEDRECTD73*
21,1,0.077,0.038,0,0,90.0*
21,1,0.038,0.077,0,0,90.0*
1,1,0.038,0.019,0.019*
1,1,0.038,0.019,-0.019*
1,1,0.038,-0.019,-0.019*
1,1,0.038,-0.019,0.019*
%
%ADD73ROUNDEDRECTD73*%
%ADD74C,0.051*%
%ADD75O,0.048X0.095*%
%ADD76R,0.051X0.051*%
%ADD77C,0.070*%
%ADD78R,0.057X0.057*%
%ADD79C,0.057*%
%ADD80R,0.083X0.083*%
%ADD81C,0.020*%
%ADD82C,0.030*%
%ADD83C,0.160*%
%ADD84C,0.025*%
%ADD101R,0.114X0.075*%
%ADD102R,0.016X0.053*%
%ADD103R,0.043X0.018*%
%ADD104R,0.024X0.022*%
G36*
X6095Y1000D02*
X1000D01*
Y3755D01*
X6095D01*
Y1000D01*
D02*
G37*
%LPC*%
G36*
X1604Y3730D02*
X1596D01*
X1588Y3728D01*
X1582Y3724D01*
X1576Y3718D01*
X1572Y3712D01*
X1570Y3704D01*
Y3696D01*
X1572Y3688D01*
X1576Y3682D01*
X1582Y3676D01*
X1588Y3672D01*
X1596Y3670D01*
X1604D01*
X1612Y3672D01*
X1618Y3676D01*
X1624Y3682D01*
X1628Y3688D01*
X1630Y3696D01*
Y3704D01*
X1628Y3712D01*
X1624Y3718D01*
X1618Y3724D01*
X1612Y3728D01*
X1604Y3730D01*
D02*
G37*
G36*
X1459D02*
X1451D01*
X1443Y3728D01*
X1437Y3724D01*
X1431Y3718D01*
X1427Y3712D01*
X1425Y3704D01*
Y3696D01*
X1427Y3688D01*
X1431Y3682D01*
X1437Y3676D01*
X1443Y3672D01*
X1451Y3670D01*
X1459D01*
X1467Y3672D01*
X1473Y3676D01*
X1479Y3682D01*
X1483Y3688D01*
X1485Y3696D01*
Y3704D01*
X1483Y3712D01*
X1479Y3718D01*
X1473Y3724D01*
X1467Y3728D01*
X1459Y3730D01*
D02*
G37*
G36*
X1309D02*
X1301D01*
X1293Y3728D01*
X1287Y3724D01*
X1281Y3718D01*
X1277Y3712D01*
X1275Y3704D01*
Y3696D01*
X1277Y3688D01*
X1281Y3682D01*
X1287Y3676D01*
X1293Y3672D01*
X1301Y3670D01*
X1309D01*
X1317Y3672D01*
X1323Y3676D01*
X1329Y3682D01*
X1333Y3688D01*
X1335Y3696D01*
Y3704D01*
X1333Y3712D01*
X1329Y3718D01*
X1323Y3724D01*
X1317Y3728D01*
X1309Y3730D01*
D02*
G37*
G36*
X1890Y3715D02*
X1880D01*
X1871Y3711D01*
X1864Y3704D01*
X1860Y3695D01*
Y3685D01*
X1864Y3676D01*
X1871Y3669D01*
X1880Y3665D01*
X1890D01*
X1899Y3669D01*
X1906Y3676D01*
X1910Y3685D01*
Y3695D01*
X1906Y3704D01*
X1899Y3711D01*
X1890Y3715D01*
D02*
G37*
G36*
X3651Y3740D02*
X2882D01*
X2875Y3739D01*
X2868Y3736D01*
X2863Y3732D01*
X2821Y3690D01*
X2816Y3684D01*
X2814Y3678D01*
X2813Y3670D01*
Y3635D01*
X2814Y3627D01*
X2816Y3621D01*
X2808Y3615D01*
X2783Y3640D01*
Y3686D01*
X2704D01*
X2702Y3686D01*
X2692Y3687D01*
X2692Y3688D01*
X2686Y3696D01*
X2677Y3703D01*
X2668Y3707D01*
X2658Y3708D01*
X2648Y3707D01*
X2638Y3703D01*
X2630Y3696D01*
X2624Y3688D01*
X2620Y3679D01*
X2619Y3669D01*
Y3621D01*
X2620Y3611D01*
X2624Y3602D01*
X2630Y3594D01*
X2638Y3587D01*
X2648Y3583D01*
X2658Y3582D01*
X2668Y3583D01*
X2677Y3587D01*
X2686Y3594D01*
X2692Y3602D01*
X2692Y3603D01*
X2702Y3604D01*
X2704Y3604D01*
X2747D01*
X2855Y3497D01*
Y3365D01*
X2856Y3355D01*
X2862Y3347D01*
X2897Y3312D01*
Y3272D01*
X2937D01*
X2939Y3269D01*
X2948Y3264D01*
X2957Y3262D01*
X2976D01*
X2986Y3264D01*
X2994Y3269D01*
X3021Y3297D01*
X3038D01*
Y3349D01*
X2984D01*
Y3339D01*
X2983Y3339D01*
X2973Y3344D01*
Y3348D01*
X2933D01*
X2925Y3356D01*
X2929Y3365D01*
X2973D01*
Y3375D01*
X2983Y3380D01*
X2984Y3380D01*
Y3371D01*
X3002D01*
X3004Y3371D01*
X3011Y3370D01*
X3018Y3371D01*
X3020Y3371D01*
X3038D01*
Y3385D01*
X3054Y3401D01*
X3058Y3406D01*
X3061Y3413D01*
X3062Y3420D01*
Y3441D01*
X3061Y3448D01*
X3058Y3455D01*
X3054Y3461D01*
X2868Y3646D01*
Y3659D01*
X2894Y3685D01*
X3025D01*
X3029Y3675D01*
X3025Y3670D01*
X3020Y3661D01*
X3017Y3650D01*
Y3640D01*
X3020Y3629D01*
X3025Y3620D01*
X3032Y3612D01*
X3042Y3607D01*
X3052Y3604D01*
X3062D01*
X3070Y3597D01*
X3064Y3588D01*
X3060Y3590D01*
X3050D01*
X3041Y3586D01*
X3034Y3579D01*
X3030Y3570D01*
Y3560D01*
X3034Y3551D01*
X3041Y3544D01*
X3050Y3540D01*
X3060D01*
X3069Y3544D01*
X3076Y3551D01*
X3080Y3560D01*
Y3570D01*
X3078Y3574D01*
X3087Y3580D01*
X3278Y3388D01*
Y3369D01*
X3332D01*
Y3376D01*
X3335Y3378D01*
X3342Y3374D01*
Y3369D01*
X3388D01*
X3392Y3359D01*
X3385Y3351D01*
X3342D01*
Y3340D01*
X3332Y3335D01*
X3332Y3335D01*
Y3346D01*
X3278D01*
Y3294D01*
X3299D01*
X3323Y3269D01*
X3331Y3264D01*
X3340Y3263D01*
X3352D01*
X3361Y3264D01*
X3368Y3269D01*
X3375Y3276D01*
X3418D01*
Y3315D01*
X3422Y3318D01*
X3432Y3313D01*
Y3192D01*
X3429Y3189D01*
X3425Y3180D01*
Y3170D01*
X3429Y3161D01*
X3432Y3158D01*
Y3150D01*
X3287Y3005D01*
X3112D01*
X3112Y3005D01*
X3104Y3004D01*
X3097Y2999D01*
X2922Y2824D01*
X2917Y2817D01*
X2916Y2809D01*
Y2502D01*
X2906D01*
X2897Y2498D01*
X2890Y2491D01*
X2886Y2482D01*
Y2472D01*
X2890Y2463D01*
X2890Y2463D01*
Y2415D01*
X2889Y2414D01*
X2885Y2405D01*
Y2395D01*
X2889Y2386D01*
X2896Y2379D01*
X2898Y2369D01*
X2468Y1939D01*
X2457Y1943D01*
X2457Y1943D01*
X2457Y1943D01*
X2684Y2171D01*
X2689Y2177D01*
X2690Y2185D01*
Y2260D01*
X2691Y2261D01*
X2695Y2270D01*
Y2280D01*
X2691Y2289D01*
X2684Y2296D01*
X2675Y2300D01*
X2665D01*
X2656Y2296D01*
X2649Y2289D01*
X2645Y2280D01*
Y2270D01*
X2649Y2261D01*
X2650Y2260D01*
Y2193D01*
X2635Y2178D01*
X2625Y2182D01*
Y2290D01*
X2626Y2291D01*
X2630Y2300D01*
Y2310D01*
X2626Y2319D01*
X2619Y2326D01*
X2610Y2330D01*
X2600D01*
X2591Y2326D01*
X2584Y2319D01*
X2580Y2310D01*
Y2300D01*
X2584Y2291D01*
X2585Y2290D01*
Y2173D01*
X2432Y2021D01*
X2428Y2015D01*
X2428Y2013D01*
X2424Y2009D01*
X2420Y2000D01*
Y1990D01*
X2424Y1981D01*
X2430Y1974D01*
X2421Y1965D01*
X2420D01*
X2411Y1961D01*
X2404Y1954D01*
X2400Y1945D01*
Y1935D01*
X2404Y1926D01*
X2411Y1919D01*
X2420Y1915D01*
X2429D01*
X2431Y1913D01*
X2434Y1906D01*
X2316Y1787D01*
X2306Y1789D01*
X2299Y1796D01*
X2290Y1800D01*
X2280D01*
X2271Y1796D01*
X2264Y1789D01*
X2260Y1780D01*
X2254Y1776D01*
X2254Y1776D01*
X2244Y1780D01*
X2244Y1783D01*
X2239Y1789D01*
X2185Y1843D01*
Y1952D01*
X2194Y1961D01*
X2199Y1967D01*
X2200Y1975D01*
Y1995D01*
X2201Y1996D01*
X2205Y2005D01*
Y2015D01*
X2201Y2024D01*
X2194Y2031D01*
X2185Y2035D01*
X2175D01*
X2166Y2031D01*
X2159Y2024D01*
X2155Y2015D01*
X2145Y2010D01*
X2145Y2010D01*
X2135D01*
Y2020D01*
X2136Y2021D01*
X2140Y2030D01*
Y2040D01*
X2136Y2049D01*
X2129Y2056D01*
X2120Y2060D01*
X2110D01*
X2101Y2056D01*
X2095Y2050D01*
X2089Y2051D01*
X2085Y2053D01*
Y2055D01*
X2081Y2064D01*
X2074Y2071D01*
X2065Y2075D01*
X2055D01*
X2046Y2071D01*
X2039Y2064D01*
X2035Y2055D01*
Y2048D01*
X2026Y2043D01*
X2026Y2043D01*
X1735Y2333D01*
X1738Y2343D01*
X1739Y2343D01*
X1751Y2350D01*
X1760Y2359D01*
X1765Y2367D01*
X1765Y2367D01*
X1775D01*
X1775Y2367D01*
X1780Y2359D01*
X1789Y2350D01*
X1801Y2343D01*
X1813Y2340D01*
X1827D01*
X1839Y2343D01*
X1851Y2350D01*
X1860Y2359D01*
X1865Y2367D01*
X1865Y2367D01*
X1875D01*
X1875Y2367D01*
X1880Y2359D01*
X1889Y2350D01*
X1901Y2343D01*
X1913Y2340D01*
X1927D01*
X1939Y2343D01*
X1951Y2350D01*
X1960Y2359D01*
X1965Y2367D01*
X1965Y2367D01*
X1975D01*
X1975Y2367D01*
X1980Y2359D01*
X1989Y2350D01*
X2001Y2343D01*
X2013Y2340D01*
X2027D01*
X2039Y2343D01*
X2051Y2350D01*
X2060Y2359D01*
X2065Y2367D01*
X2065Y2367D01*
X2075D01*
X2075Y2367D01*
X2080Y2359D01*
X2089Y2350D01*
X2101Y2343D01*
X2113Y2340D01*
X2127D01*
X2139Y2343D01*
X2151Y2350D01*
X2160Y2359D01*
X2165Y2367D01*
X2165Y2367D01*
X2175D01*
X2175Y2367D01*
X2180Y2359D01*
X2189Y2350D01*
X2201Y2343D01*
X2213Y2340D01*
X2227D01*
X2239Y2343D01*
X2251Y2350D01*
X2260Y2359D01*
X2265Y2367D01*
X2265Y2367D01*
X2275D01*
X2275Y2367D01*
X2280Y2359D01*
X2289Y2350D01*
X2301Y2343D01*
X2313Y2340D01*
X2327D01*
X2339Y2343D01*
X2351Y2350D01*
X2360Y2359D01*
X2365Y2367D01*
X2365Y2367D01*
X2375D01*
X2375Y2367D01*
X2380Y2359D01*
X2389Y2350D01*
X2401Y2343D01*
X2413Y2340D01*
X2427D01*
X2439Y2343D01*
X2451Y2350D01*
X2460Y2359D01*
X2465Y2367D01*
X2465Y2367D01*
X2475D01*
X2475Y2367D01*
X2480Y2359D01*
X2489Y2350D01*
X2501Y2343D01*
X2513Y2340D01*
X2527D01*
X2539Y2343D01*
X2551Y2350D01*
X2560Y2359D01*
X2565Y2367D01*
X2565Y2367D01*
X2575D01*
X2575Y2367D01*
X2580Y2359D01*
X2589Y2350D01*
X2601Y2343D01*
X2613Y2340D01*
X2627D01*
X2639Y2343D01*
X2651Y2350D01*
X2660Y2359D01*
X2665Y2367D01*
X2665Y2367D01*
X2675D01*
X2675Y2367D01*
X2680Y2359D01*
X2689Y2350D01*
X2701Y2343D01*
X2713Y2340D01*
X2727D01*
X2739Y2343D01*
X2751Y2350D01*
X2760Y2359D01*
X2767Y2371D01*
X2770Y2383D01*
Y2397D01*
X2767Y2409D01*
X2760Y2421D01*
X2751Y2430D01*
X2739Y2437D01*
X2727Y2440D01*
X2713D01*
X2701Y2437D01*
X2689Y2430D01*
X2680Y2421D01*
X2675Y2413D01*
X2675Y2413D01*
X2665D01*
X2665Y2413D01*
X2660Y2421D01*
X2651Y2430D01*
X2639Y2437D01*
X2627Y2440D01*
X2613D01*
X2601Y2437D01*
X2589Y2430D01*
X2580Y2421D01*
X2575Y2413D01*
X2575Y2413D01*
X2565D01*
X2565Y2413D01*
X2560Y2421D01*
X2551Y2430D01*
X2539Y2437D01*
X2527Y2440D01*
X2513D01*
X2501Y2437D01*
X2489Y2430D01*
X2480Y2421D01*
X2475Y2413D01*
X2475Y2413D01*
X2465D01*
X2465Y2413D01*
X2460Y2421D01*
X2451Y2430D01*
X2439Y2437D01*
X2427Y2440D01*
X2413D01*
X2401Y2437D01*
X2389Y2430D01*
X2380Y2421D01*
X2375Y2413D01*
X2375Y2413D01*
X2365D01*
X2365Y2413D01*
X2360Y2421D01*
X2351Y2430D01*
X2339Y2437D01*
X2327Y2440D01*
X2313D01*
X2301Y2437D01*
X2289Y2430D01*
X2280Y2421D01*
X2275Y2413D01*
X2275Y2413D01*
X2265D01*
X2265Y2413D01*
X2260Y2421D01*
X2251Y2430D01*
X2239Y2437D01*
X2227Y2440D01*
X2213D01*
X2201Y2437D01*
X2189Y2430D01*
X2180Y2421D01*
X2175Y2413D01*
X2175Y2413D01*
X2165D01*
X2165Y2413D01*
X2160Y2421D01*
X2151Y2430D01*
X2139Y2437D01*
X2127Y2440D01*
X2113D01*
X2101Y2437D01*
X2089Y2430D01*
X2080Y2421D01*
X2075Y2413D01*
X2075Y2413D01*
X2065D01*
X2065Y2413D01*
X2060Y2421D01*
X2051Y2430D01*
X2039Y2437D01*
X2027Y2440D01*
X2013D01*
X2001Y2437D01*
X1989Y2430D01*
X1980Y2421D01*
X1975Y2413D01*
X1975Y2413D01*
X1965D01*
X1965Y2413D01*
X1960Y2421D01*
X1951Y2430D01*
X1943Y2434D01*
Y2650D01*
X1941Y2659D01*
X1939Y2662D01*
X1943Y2668D01*
X1946Y2670D01*
X1955D01*
X1964Y2674D01*
X1971Y2681D01*
X1975Y2690D01*
Y2700D01*
X1971Y2709D01*
X1964Y2716D01*
X1955Y2720D01*
X1945D01*
X1936Y2716D01*
X1929Y2709D01*
X1925Y2700D01*
Y2692D01*
X1921Y2688D01*
X1916Y2687D01*
X1914Y2688D01*
X1907Y2693D01*
X1898Y2695D01*
X1897D01*
X1888Y2704D01*
X1886Y2709D01*
X1879Y2716D01*
X1870Y2720D01*
X1860D01*
X1851Y2716D01*
X1844Y2709D01*
X1840Y2700D01*
Y2690D01*
X1844Y2681D01*
X1851Y2674D01*
X1856Y2672D01*
X1872Y2656D01*
X1879Y2651D01*
X1888Y2649D01*
X1888D01*
X1897Y2640D01*
Y2434D01*
X1889Y2430D01*
X1880Y2421D01*
X1875Y2413D01*
X1875Y2413D01*
X1865D01*
X1865Y2413D01*
X1860Y2421D01*
X1851Y2430D01*
X1839Y2437D01*
X1827Y2440D01*
X1813D01*
X1801Y2437D01*
X1789Y2430D01*
X1780Y2421D01*
X1775Y2413D01*
X1775Y2413D01*
X1765D01*
X1765Y2413D01*
X1760Y2421D01*
X1751Y2430D01*
X1739Y2437D01*
X1727Y2440D01*
X1713D01*
X1701Y2437D01*
X1691Y2431D01*
X1687Y2436D01*
X1687Y2436D01*
X1635Y2489D01*
Y2490D01*
X1631Y2499D01*
X1624Y2506D01*
X1615Y2510D01*
X1605D01*
X1596Y2506D01*
X1589Y2499D01*
X1585Y2490D01*
Y2480D01*
X1589Y2471D01*
X1596Y2464D01*
X1605Y2460D01*
X1606D01*
X1617Y2449D01*
X1616Y2447D01*
X1612Y2440D01*
X1601Y2437D01*
X1589Y2430D01*
X1582Y2423D01*
X1570Y2435D01*
Y2465D01*
X1571Y2466D01*
X1575Y2475D01*
Y2485D01*
X1571Y2494D01*
X1564Y2501D01*
X1556Y2505D01*
X1554Y2510D01*
X1552Y2515D01*
X1622Y2585D01*
X1672D01*
X1681Y2586D01*
X1689Y2591D01*
X1879Y2782D01*
X1884Y2784D01*
X1891Y2791D01*
X1895Y2800D01*
Y2810D01*
X1891Y2819D01*
X1888Y2822D01*
X1892Y2832D01*
X2045D01*
X2054Y2834D01*
X2061Y2839D01*
X2111Y2889D01*
X2116Y2896D01*
X2118Y2905D01*
X2116Y2914D01*
X2111Y2921D01*
X2104Y2926D01*
X2095Y2928D01*
X2086Y2926D01*
X2079Y2921D01*
X2035Y2878D01*
X1875D01*
X1866Y2876D01*
X1859Y2871D01*
X1854Y2864D01*
X1852Y2855D01*
X1854Y2846D01*
X1859Y2839D01*
X1859Y2838D01*
X1858Y2827D01*
X1856Y2826D01*
X1849Y2819D01*
X1847Y2814D01*
X1663Y2630D01*
X1612D01*
X1604Y2629D01*
X1596Y2624D01*
X1448Y2476D01*
X1438Y2480D01*
Y2590D01*
X1719Y2870D01*
X1720D01*
X1729Y2874D01*
X1736Y2881D01*
X1740Y2890D01*
Y2900D01*
X1736Y2909D01*
X1729Y2916D01*
X1720Y2920D01*
X1710D01*
X1701Y2916D01*
X1694Y2909D01*
X1690Y2900D01*
Y2899D01*
X1404Y2612D01*
X1399Y2606D01*
X1398Y2598D01*
Y2306D01*
X1388Y2302D01*
X1355Y2336D01*
X1356Y2341D01*
Y2352D01*
X1353Y2362D01*
X1348Y2371D01*
X1340Y2379D01*
X1339Y2380D01*
Y2391D01*
X1340Y2392D01*
X1348Y2400D01*
X1353Y2409D01*
X1356Y2420D01*
Y2430D01*
X1353Y2441D01*
X1348Y2450D01*
X1340Y2458D01*
X1339Y2459D01*
Y2470D01*
X1340Y2471D01*
X1348Y2479D01*
X1353Y2488D01*
X1356Y2498D01*
Y2509D01*
X1353Y2520D01*
X1348Y2529D01*
X1347Y2530D01*
X1348Y2543D01*
X1348Y2543D01*
X1359Y2553D01*
X1366Y2565D01*
X1370Y2579D01*
Y2594D01*
X1366Y2607D01*
X1359Y2620D01*
X1348Y2630D01*
X1336Y2637D01*
X1322Y2641D01*
X1308D01*
X1294Y2637D01*
X1282Y2630D01*
X1271Y2620D01*
X1264Y2607D01*
X1260Y2594D01*
Y2579D01*
X1264Y2565D01*
X1271Y2553D01*
X1282Y2543D01*
X1282Y2543D01*
X1283Y2530D01*
X1282Y2529D01*
X1277Y2520D01*
X1274Y2509D01*
Y2498D01*
X1277Y2488D01*
X1282Y2479D01*
X1290Y2471D01*
X1291Y2470D01*
Y2459D01*
X1290Y2458D01*
X1282Y2450D01*
X1277Y2441D01*
X1274Y2430D01*
Y2420D01*
X1277Y2409D01*
X1282Y2400D01*
X1290Y2392D01*
X1291Y2391D01*
Y2380D01*
X1290Y2379D01*
X1282Y2371D01*
X1277Y2362D01*
X1274Y2352D01*
Y2341D01*
X1277Y2330D01*
X1282Y2321D01*
X1283Y2320D01*
X1282Y2307D01*
X1282Y2307D01*
X1271Y2297D01*
X1264Y2285D01*
X1260Y2271D01*
Y2256D01*
X1264Y2243D01*
X1271Y2230D01*
X1282Y2220D01*
X1294Y2213D01*
X1308Y2209D01*
X1322D01*
X1336Y2213D01*
X1348Y2220D01*
X1359Y2230D01*
X1365Y2241D01*
X1375Y2239D01*
Y1954D01*
X1376Y1946D01*
X1381Y1940D01*
X1419Y1901D01*
X1413Y1893D01*
X1403Y1899D01*
X1389Y1902D01*
X1374D01*
X1360Y1899D01*
X1347Y1891D01*
X1336Y1881D01*
X1329Y1868D01*
X1325Y1853D01*
Y1839D01*
X1329Y1824D01*
X1336Y1811D01*
X1347Y1801D01*
X1351Y1798D01*
Y1410D01*
X1325D01*
Y1298D01*
X1438D01*
Y1410D01*
X1412D01*
Y1798D01*
X1416Y1801D01*
X1427Y1811D01*
X1434Y1824D01*
X1438Y1839D01*
Y1853D01*
X1434Y1868D01*
X1428Y1878D01*
X1436Y1884D01*
X1750Y1570D01*
X1746Y1560D01*
X1740D01*
X1731Y1556D01*
X1724Y1549D01*
X1720Y1540D01*
Y1530D01*
X1724Y1521D01*
X1726Y1518D01*
X1730Y1513D01*
X2099Y1144D01*
X2107Y1139D01*
X2115Y1137D01*
X2305D01*
X2310Y1135D01*
X2320D01*
X2329Y1139D01*
X2336Y1146D01*
X2344Y1147D01*
X2376Y1116D01*
X2382Y1111D01*
X2390Y1110D01*
X3252D01*
X3266Y1095D01*
X3263Y1085D01*
X1406D01*
X1135Y1356D01*
Y2499D01*
X1258Y2622D01*
X1264Y2630D01*
X1265Y2640D01*
Y3065D01*
X1264Y3075D01*
X1258Y3083D01*
X1090Y3251D01*
Y3421D01*
X1100Y3427D01*
X1105Y3425D01*
X1115D01*
X1124Y3429D01*
X1131Y3436D01*
X1135Y3445D01*
Y3455D01*
X1131Y3464D01*
X1124Y3471D01*
X1115Y3475D01*
X1105D01*
X1100Y3473D01*
X1090Y3479D01*
Y3489D01*
X1101Y3500D01*
X1333D01*
X1336Y3490D01*
X1221Y3375D01*
X1220D01*
X1211Y3371D01*
X1204Y3364D01*
X1200Y3355D01*
Y3345D01*
X1204Y3336D01*
X1211Y3329D01*
X1220Y3325D01*
X1230D01*
X1239Y3329D01*
X1246Y3336D01*
X1250Y3345D01*
Y3346D01*
X1373Y3470D01*
X1433D01*
X1437Y3460D01*
X1277Y3300D01*
X1165D01*
X1164Y3301D01*
X1155Y3305D01*
X1145D01*
X1136Y3301D01*
X1129Y3294D01*
X1125Y3285D01*
Y3275D01*
X1129Y3266D01*
X1136Y3259D01*
X1145Y3255D01*
X1155D01*
X1164Y3259D01*
X1165Y3260D01*
X1285D01*
X1293Y3261D01*
X1299Y3266D01*
X1470Y3437D01*
X1482D01*
X1486Y3427D01*
X1480Y3421D01*
X1473Y3409D01*
X1470Y3397D01*
Y3383D01*
X1473Y3371D01*
X1480Y3359D01*
X1489Y3350D01*
X1497Y3346D01*
Y3320D01*
X1490Y3315D01*
X1480D01*
X1471Y3311D01*
X1464Y3304D01*
X1462Y3299D01*
X1390Y3228D01*
X1250D01*
X1245Y3230D01*
X1235D01*
X1226Y3226D01*
X1219Y3219D01*
X1215Y3210D01*
Y3200D01*
X1219Y3191D01*
X1226Y3184D01*
X1235Y3180D01*
X1245D01*
X1250Y3182D01*
X1400D01*
X1409Y3184D01*
X1416Y3189D01*
X1487Y3260D01*
X1497Y3255D01*
Y3230D01*
X1421Y3153D01*
X1416Y3151D01*
X1409Y3144D01*
X1405Y3135D01*
Y3125D01*
X1409Y3116D01*
X1416Y3109D01*
X1425Y3105D01*
X1435D01*
X1444Y3109D01*
X1451Y3116D01*
X1453Y3121D01*
X1536Y3204D01*
X1541Y3211D01*
X1543Y3220D01*
Y3263D01*
X1553Y3267D01*
X1556Y3264D01*
X1561Y3262D01*
X1669Y3154D01*
X1676Y3149D01*
X1685Y3147D01*
X2250D01*
X2347Y3050D01*
Y2875D01*
X2349Y2866D01*
X2354Y2859D01*
X2489Y2724D01*
X2496Y2719D01*
X2505Y2717D01*
X2550D01*
X2559Y2719D01*
X2566Y2724D01*
X2589Y2747D01*
X2594Y2749D01*
X2601Y2756D01*
X2605Y2765D01*
Y2775D01*
X2601Y2784D01*
X2594Y2791D01*
X2585Y2795D01*
X2575D01*
X2566Y2791D01*
X2559Y2784D01*
X2557Y2779D01*
X2540Y2763D01*
X2515D01*
X2393Y2885D01*
Y3060D01*
X2391Y3069D01*
X2386Y3076D01*
X2276Y3186D01*
X2269Y3191D01*
X2260Y3193D01*
X1695D01*
X1593Y3294D01*
X1591Y3299D01*
X1584Y3306D01*
X1575Y3310D01*
X1565D01*
X1556Y3306D01*
X1553Y3303D01*
X1543Y3307D01*
Y3346D01*
X1551Y3350D01*
X1560Y3359D01*
X1565Y3367D01*
X1565Y3367D01*
X1575D01*
X1575Y3367D01*
X1580Y3359D01*
X1589Y3350D01*
X1601Y3343D01*
X1613Y3340D01*
X1627D01*
X1639Y3343D01*
X1651Y3350D01*
X1660Y3359D01*
X1665Y3367D01*
X1665Y3367D01*
X1675D01*
X1675Y3367D01*
X1680Y3359D01*
X1689Y3350D01*
X1701Y3343D01*
X1713Y3340D01*
X1727D01*
X1739Y3343D01*
X1751Y3350D01*
X1760Y3359D01*
X1765Y3367D01*
X1765Y3367D01*
X1775D01*
X1775Y3367D01*
X1780Y3359D01*
X1789Y3350D01*
X1801Y3343D01*
X1813Y3340D01*
X1827D01*
X1839Y3343D01*
X1851Y3350D01*
X1860Y3359D01*
X1865Y3367D01*
X1865Y3367D01*
X1875D01*
X1875Y3367D01*
X1880Y3359D01*
X1889Y3350D01*
X1901Y3343D01*
X1913Y3340D01*
X1927D01*
X1939Y3343D01*
X1951Y3350D01*
X1960Y3359D01*
X1965Y3367D01*
X1965Y3367D01*
X1975D01*
X1975Y3367D01*
X1980Y3359D01*
X1989Y3350D01*
X2001Y3343D01*
X2013Y3340D01*
X2027D01*
X2039Y3343D01*
X2051Y3350D01*
X2060Y3359D01*
X2065Y3367D01*
X2065Y3367D01*
X2075D01*
X2075Y3367D01*
X2080Y3359D01*
X2089Y3350D01*
X2101Y3343D01*
X2113Y3340D01*
X2127D01*
X2139Y3343D01*
X2151Y3350D01*
X2160Y3359D01*
X2165Y3367D01*
X2165Y3367D01*
X2175D01*
X2175Y3367D01*
X2180Y3359D01*
X2189Y3350D01*
X2201Y3343D01*
X2213Y3340D01*
X2227D01*
X2239Y3343D01*
X2251Y3350D01*
X2260Y3359D01*
X2265Y3367D01*
X2265Y3367D01*
X2275D01*
X2275Y3367D01*
X2280Y3359D01*
X2289Y3350D01*
X2301Y3343D01*
X2313Y3340D01*
X2327D01*
X2339Y3343D01*
X2351Y3350D01*
X2360Y3359D01*
X2365Y3367D01*
X2365Y3367D01*
X2375D01*
X2375Y3367D01*
X2380Y3359D01*
X2389Y3350D01*
X2401Y3343D01*
X2413Y3340D01*
X2427D01*
X2439Y3343D01*
X2451Y3350D01*
X2460Y3359D01*
X2465Y3367D01*
X2465Y3367D01*
X2475D01*
X2475Y3367D01*
X2480Y3359D01*
X2489Y3350D01*
X2501Y3343D01*
X2513Y3340D01*
X2527D01*
X2539Y3343D01*
X2551Y3350D01*
X2560Y3359D01*
X2565Y3367D01*
X2565Y3367D01*
X2575D01*
X2575Y3367D01*
X2580Y3359D01*
X2589Y3350D01*
X2601Y3343D01*
X2613Y3340D01*
X2627D01*
X2639Y3343D01*
X2651Y3350D01*
X2660Y3359D01*
X2665Y3367D01*
X2665Y3367D01*
X2675D01*
X2675Y3367D01*
X2680Y3359D01*
X2689Y3350D01*
X2701Y3343D01*
X2713Y3340D01*
X2727D01*
X2739Y3343D01*
X2751Y3350D01*
X2760Y3359D01*
X2767Y3371D01*
X2770Y3383D01*
Y3397D01*
X2767Y3409D01*
X2760Y3421D01*
X2751Y3430D01*
X2739Y3437D01*
X2727Y3440D01*
X2713D01*
X2701Y3437D01*
X2689Y3430D01*
X2680Y3421D01*
X2675Y3413D01*
X2675Y3413D01*
X2665D01*
X2665Y3413D01*
X2660Y3421D01*
X2651Y3430D01*
X2639Y3437D01*
X2627Y3440D01*
X2613D01*
X2601Y3437D01*
X2589Y3430D01*
X2580Y3421D01*
X2575Y3413D01*
X2575Y3413D01*
X2565D01*
X2565Y3413D01*
X2560Y3421D01*
X2551Y3430D01*
X2539Y3437D01*
X2527Y3440D01*
X2513D01*
X2501Y3437D01*
X2489Y3430D01*
X2480Y3421D01*
X2475Y3413D01*
X2475Y3413D01*
X2465D01*
X2465Y3413D01*
X2460Y3421D01*
X2451Y3430D01*
X2439Y3437D01*
X2427Y3440D01*
X2413D01*
X2401Y3437D01*
X2389Y3430D01*
X2380Y3421D01*
X2375Y3413D01*
X2375Y3413D01*
X2365D01*
X2365Y3413D01*
X2360Y3421D01*
X2351Y3430D01*
X2339Y3437D01*
X2327Y3440D01*
X2313D01*
X2301Y3437D01*
X2289Y3430D01*
X2280Y3421D01*
X2275Y3413D01*
X2275Y3413D01*
X2265D01*
X2265Y3413D01*
X2260Y3421D01*
X2251Y3430D01*
X2239Y3437D01*
X2227Y3440D01*
X2213D01*
X2201Y3437D01*
X2189Y3430D01*
X2180Y3421D01*
X2175Y3413D01*
X2175Y3413D01*
X2165D01*
X2165Y3413D01*
X2160Y3421D01*
X2151Y3430D01*
X2139Y3437D01*
X2127Y3440D01*
X2113D01*
X2101Y3437D01*
X2089Y3430D01*
X2080Y3421D01*
X2075Y3413D01*
X2075Y3413D01*
X2065D01*
X2065Y3413D01*
X2060Y3421D01*
X2051Y3430D01*
X2039Y3437D01*
X2027Y3440D01*
X2013D01*
X2001Y3437D01*
X1989Y3430D01*
X1980Y3421D01*
X1975Y3413D01*
X1975Y3413D01*
X1965D01*
X1965Y3413D01*
X1960Y3421D01*
X1951Y3430D01*
X1939Y3437D01*
X1927Y3440D01*
X1913D01*
X1901Y3437D01*
X1889Y3430D01*
X1880Y3421D01*
X1875Y3413D01*
X1875Y3413D01*
X1865D01*
X1865Y3413D01*
X1860Y3421D01*
X1851Y3430D01*
X1839Y3437D01*
X1827Y3440D01*
X1813D01*
X1801Y3437D01*
X1789Y3430D01*
X1780Y3421D01*
X1775Y3413D01*
X1775Y3413D01*
X1765D01*
X1765Y3413D01*
X1760Y3421D01*
X1751Y3430D01*
X1739Y3437D01*
X1727Y3440D01*
X1720Y3450D01*
X1720Y3450D01*
Y3460D01*
X1716Y3469D01*
X1709Y3476D01*
X1700Y3480D01*
X1690D01*
X1684Y3477D01*
X1670D01*
X1665Y3485D01*
Y3495D01*
X1668Y3500D01*
X1765D01*
X1775Y3501D01*
X1783Y3507D01*
X1798Y3522D01*
X1799Y3524D01*
X1801Y3526D01*
X1802Y3528D01*
X1804Y3530D01*
X1804Y3533D01*
X1805Y3535D01*
Y3538D01*
X1805Y3540D01*
X1805Y3542D01*
Y3545D01*
X1804Y3547D01*
X1804Y3550D01*
X1802Y3552D01*
X1801Y3554D01*
X1799Y3556D01*
X1798Y3558D01*
X1796Y3559D01*
X1794Y3561D01*
X1792Y3562D01*
X1790Y3564D01*
X1787Y3564D01*
X1785Y3565D01*
X1782D01*
X1780Y3565D01*
X1778Y3565D01*
X1775D01*
X1773Y3564D01*
X1770Y3564D01*
X1768Y3562D01*
X1766Y3561D01*
X1764Y3559D01*
X1762Y3558D01*
X1754Y3550D01*
X1183D01*
X1179Y3560D01*
X1181Y3561D01*
X1194Y3574D01*
X1204Y3590D01*
X1211Y3607D01*
X1215Y3626D01*
Y3644D01*
X1211Y3663D01*
X1204Y3680D01*
X1194Y3696D01*
X1181Y3709D01*
X1165Y3719D01*
X1148Y3726D01*
X1129Y3730D01*
X1111D01*
X1092Y3726D01*
X1075Y3719D01*
X1059Y3709D01*
X1046Y3696D01*
X1036Y3680D01*
X1029Y3663D01*
X1025Y3644D01*
Y3626D01*
X1029Y3607D01*
X1036Y3590D01*
X1046Y3574D01*
X1059Y3561D01*
X1070Y3554D01*
X1071Y3547D01*
X1071Y3543D01*
X1071Y3542D01*
X1047Y3518D01*
X1041Y3510D01*
X1040Y3500D01*
Y3240D01*
X1041Y3230D01*
X1047Y3222D01*
X1215Y3054D01*
Y2651D01*
X1092Y2528D01*
X1086Y2520D01*
X1085Y2510D01*
Y1345D01*
X1086Y1335D01*
X1092Y1327D01*
X1377Y1042D01*
X1385Y1036D01*
X1395Y1035D01*
X3269D01*
X3282Y1022D01*
X3290Y1016D01*
X3300Y1015D01*
X3920D01*
X3930Y1016D01*
X3938Y1022D01*
X3963Y1047D01*
X3969Y1055D01*
X3970Y1065D01*
Y1104D01*
X3981Y1115D01*
X3990D01*
X3992Y1115D01*
X3995D01*
X3997Y1116D01*
X4000Y1116D01*
X4002Y1118D01*
X4004Y1119D01*
X4006Y1121D01*
X4008Y1122D01*
X4009Y1124D01*
X4011Y1126D01*
X4012Y1128D01*
X4014Y1130D01*
X4014Y1133D01*
X4015Y1135D01*
Y1138D01*
X4015Y1140D01*
X4015Y1142D01*
Y1145D01*
X4014Y1147D01*
X4014Y1150D01*
X4012Y1152D01*
X4011Y1154D01*
X4009Y1156D01*
X4008Y1158D01*
X4006Y1159D01*
X4004Y1161D01*
X4002Y1162D01*
X4000Y1164D01*
X3997Y1164D01*
X3995Y1165D01*
X3992D01*
X3990Y1165D01*
X3971D01*
X3961Y1164D01*
X3953Y1158D01*
X3927Y1132D01*
X3921Y1124D01*
X3920Y1114D01*
Y1076D01*
X3909Y1065D01*
X3838D01*
X3835Y1070D01*
Y1080D01*
X3833Y1085D01*
Y1888D01*
X3836Y1890D01*
X3843Y1893D01*
X3850Y1890D01*
X3851D01*
X3896Y1846D01*
X3896Y1846D01*
X3902Y1841D01*
X3910Y1840D01*
X3945D01*
X3946Y1839D01*
X3955Y1835D01*
X3965D01*
X3974Y1839D01*
X3981Y1846D01*
X3985Y1855D01*
Y1865D01*
X3981Y1874D01*
X3974Y1881D01*
X3965Y1885D01*
X3955D01*
X3946Y1881D01*
X3945Y1880D01*
X3918D01*
X3885Y1914D01*
X3886Y1917D01*
X3888Y1926D01*
X3902D01*
X3914Y1930D01*
X3926Y1936D01*
X3935Y1946D01*
X3936Y1947D01*
X4025D01*
X4032Y1948D01*
X4039Y1951D01*
X4045Y1955D01*
X4049Y1961D01*
X4052Y1968D01*
X4053Y1975D01*
X4052Y1982D01*
X4049Y1989D01*
X4045Y1995D01*
X4039Y1999D01*
X4032Y2002D01*
X4025Y2003D01*
X3938D01*
X3935Y2008D01*
X3926Y2017D01*
X3914Y2024D01*
X3902Y2027D01*
X3888D01*
X3876Y2024D01*
X3864Y2017D01*
X3855Y2008D01*
X3848Y1996D01*
X3845Y1983D01*
Y1970D01*
X3848Y1957D01*
X3852Y1950D01*
X3851Y1947D01*
X3848Y1940D01*
X3847Y1939D01*
X3843Y1937D01*
X3836Y1940D01*
X3833Y1942D01*
Y2073D01*
X3836Y2076D01*
X3840Y2085D01*
Y2095D01*
X3836Y2104D01*
X3829Y2111D01*
X3820Y2115D01*
X3810D01*
X3801Y2111D01*
X3794Y2104D01*
X3790Y2095D01*
Y2094D01*
X3789Y2092D01*
X3787Y2084D01*
Y1085D01*
X3785Y1080D01*
Y1070D01*
X3782Y1065D01*
X3764D01*
X3758Y1075D01*
X3760Y1080D01*
Y1090D01*
X3758Y1095D01*
Y2098D01*
X3761Y2101D01*
X3765Y2110D01*
Y2120D01*
X3761Y2129D01*
X3754Y2136D01*
X3745Y2140D01*
X3735D01*
X3726Y2136D01*
X3719Y2129D01*
X3715Y2120D01*
X3712Y2120D01*
X3705Y2122D01*
Y2235D01*
X3706Y2236D01*
X3709Y2243D01*
X3716Y2246D01*
X3720Y2246D01*
X3861Y2106D01*
X3867Y2101D01*
X3875Y2100D01*
X3875Y2099D01*
X3876Y2090D01*
X3875Y2089D01*
X3868Y2082D01*
X3864Y2073D01*
Y2063D01*
X3868Y2054D01*
X3875Y2047D01*
X3884Y2043D01*
X3894D01*
X3903Y2047D01*
X3904Y2047D01*
X5328D01*
X5336Y2049D01*
X5342Y2053D01*
X5599Y2311D01*
X5604Y2317D01*
X5605Y2325D01*
Y2440D01*
X5606Y2441D01*
X5610Y2450D01*
Y2460D01*
X5606Y2469D01*
X5599Y2476D01*
X5590Y2480D01*
X5580D01*
X5571Y2476D01*
X5564Y2469D01*
X5560Y2460D01*
Y2450D01*
X5564Y2441D01*
X5565Y2440D01*
Y2333D01*
X5319Y2088D01*
X4798D01*
X4793Y2098D01*
X4796Y2101D01*
X4800Y2110D01*
Y2120D01*
X4796Y2129D01*
X4789Y2136D01*
X4780Y2140D01*
X4770D01*
X4761Y2136D01*
X4754Y2129D01*
X4750Y2120D01*
Y2110D01*
X4754Y2101D01*
X4757Y2098D01*
X4752Y2088D01*
X3911D01*
X3910Y2090D01*
X3915Y2100D01*
X4619D01*
X4627Y2101D01*
X4634Y2106D01*
X4701Y2173D01*
X4705Y2179D01*
X4707Y2187D01*
Y2308D01*
X4759Y2360D01*
X4760D01*
X4769Y2364D01*
X4776Y2371D01*
X4780Y2380D01*
Y2390D01*
X4776Y2399D01*
X4769Y2406D01*
X4760Y2410D01*
X4750D01*
X4741Y2406D01*
X4734Y2399D01*
X4730Y2390D01*
Y2389D01*
X4672Y2331D01*
X4667Y2324D01*
X4666Y2316D01*
Y2195D01*
X4611Y2140D01*
X4331D01*
X4330Y2150D01*
X4339Y2154D01*
X4346Y2161D01*
X4350Y2170D01*
Y2180D01*
X4346Y2189D01*
X4339Y2196D01*
X4330Y2200D01*
X4320D01*
X4311Y2196D01*
X4304Y2189D01*
X4300Y2180D01*
Y2170D01*
X4304Y2161D01*
X4311Y2154D01*
X4320Y2150D01*
X4319Y2140D01*
X3946D01*
X3940Y2150D01*
X3942Y2154D01*
X3945Y2167D01*
Y2180D01*
X3942Y2193D01*
X3935Y2205D01*
X3926Y2214D01*
X3914Y2221D01*
X3902Y2224D01*
X3888D01*
X3876Y2221D01*
X3864Y2214D01*
X3855Y2205D01*
X3848Y2193D01*
X3847Y2191D01*
X3836Y2188D01*
X3684Y2339D01*
X3678Y2344D01*
X3670Y2345D01*
X3575D01*
X3574Y2346D01*
X3565Y2350D01*
X3555D01*
X3546Y2346D01*
X3539Y2339D01*
X3535Y2330D01*
Y2320D01*
X3539Y2311D01*
X3546Y2304D01*
X3555Y2300D01*
X3565D01*
X3574Y2304D01*
X3575Y2305D01*
X3662D01*
X3681Y2285D01*
X3681Y2281D01*
X3678Y2274D01*
X3671Y2271D01*
X3664Y2264D01*
X3660Y2255D01*
Y2245D01*
X3664Y2236D01*
X3665Y2235D01*
Y1168D01*
X3579Y1082D01*
X3530D01*
Y1089D01*
X3528Y1094D01*
Y1926D01*
X3530Y1935D01*
X3539Y1939D01*
X3546Y1946D01*
X3550Y1955D01*
Y1965D01*
X3546Y1974D01*
X3539Y1981D01*
X3530Y1985D01*
X3529D01*
X3515Y1998D01*
Y2310D01*
X3516Y2311D01*
X3520Y2320D01*
Y2330D01*
X3516Y2339D01*
X3509Y2346D01*
X3503Y2349D01*
X3500Y2359D01*
X3508Y2368D01*
X3648D01*
X3656Y2369D01*
X3662Y2374D01*
X3696Y2407D01*
X3707Y2404D01*
X3709Y2401D01*
X3716Y2394D01*
X3721Y2392D01*
X3729Y2384D01*
X3736Y2379D01*
X3745Y2377D01*
X3828D01*
X3830Y2374D01*
X3833Y2367D01*
X3830Y2360D01*
Y2350D01*
X3834Y2341D01*
X3841Y2334D01*
X3850Y2330D01*
X3860D01*
X3869Y2334D01*
X3870Y2335D01*
X3935D01*
X3943Y2336D01*
X3949Y2341D01*
X3979Y2370D01*
X3980D01*
X3989Y2374D01*
X3996Y2381D01*
X4000Y2390D01*
Y2400D01*
X3996Y2409D01*
X3989Y2416D01*
X3980Y2420D01*
X3970D01*
X3964Y2417D01*
X3958Y2426D01*
X3969Y2437D01*
X4026D01*
X4028Y2427D01*
X4026Y2426D01*
X4019Y2419D01*
X4015Y2410D01*
Y2400D01*
X4019Y2391D01*
X4026Y2384D01*
X4035Y2380D01*
X4045D01*
X4054Y2384D01*
X4061Y2391D01*
X4065Y2400D01*
Y2410D01*
X4061Y2419D01*
X4054Y2426D01*
X4052Y2427D01*
X4054Y2437D01*
X4625D01*
X4634Y2439D01*
X4641Y2444D01*
X4805Y2607D01*
X4809Y2606D01*
X4821D01*
X4832Y2609D01*
X4842Y2615D01*
X4850Y2623D01*
X4856Y2633D01*
X4859Y2644D01*
Y2656D01*
X4856Y2667D01*
X4850Y2677D01*
X4842Y2685D01*
X4832Y2691D01*
X4821Y2694D01*
X4809D01*
X4798Y2691D01*
X4788Y2685D01*
X4780Y2677D01*
X4774Y2667D01*
X4771Y2656D01*
Y2644D01*
X4772Y2641D01*
X4766Y2635D01*
X4758Y2640D01*
X4759Y2644D01*
Y2656D01*
X4756Y2667D01*
X4750Y2677D01*
X4742Y2685D01*
X4732Y2691D01*
X4721Y2694D01*
X4709D01*
X4698Y2691D01*
X4688Y2685D01*
X4680Y2677D01*
X4674Y2667D01*
X4671Y2656D01*
Y2644D01*
X4674Y2633D01*
X4680Y2623D01*
X4688Y2615D01*
X4698Y2609D01*
X4709Y2606D01*
X4721D01*
X4726Y2608D01*
X4731Y2599D01*
X4615Y2483D01*
X3960D01*
X3951Y2481D01*
X3943Y2476D01*
X3919Y2452D01*
X3914Y2456D01*
X3905Y2460D01*
X3902D01*
X3896Y2466D01*
X3889Y2471D01*
X3889Y2471D01*
X3888Y2481D01*
X3894Y2484D01*
X3901Y2491D01*
X3905Y2500D01*
Y2510D01*
X3906Y2512D01*
X4300D01*
X4309Y2514D01*
X4316Y2519D01*
X4405Y2607D01*
X4409Y2606D01*
X4421D01*
X4432Y2609D01*
X4442Y2615D01*
X4450Y2623D01*
X4456Y2633D01*
X4459Y2644D01*
Y2649D01*
X4459Y2649D01*
X4469Y2654D01*
X4471Y2652D01*
Y2644D01*
X4474Y2633D01*
X4480Y2623D01*
X4488Y2615D01*
X4498Y2609D01*
X4509Y2606D01*
X4521D01*
X4532Y2609D01*
X4542Y2615D01*
X4550Y2623D01*
X4556Y2633D01*
X4559Y2644D01*
Y2656D01*
X4556Y2667D01*
X4550Y2677D01*
X4542Y2685D01*
X4532Y2691D01*
X4521Y2694D01*
X4509D01*
X4508Y2693D01*
X4486Y2715D01*
X4478Y2720D01*
X4468Y2722D01*
X4262D01*
X4252Y2720D01*
X4244Y2715D01*
X4222Y2693D01*
X4221Y2694D01*
X4209D01*
X4205Y2703D01*
Y2829D01*
X4215Y2830D01*
X4219Y2821D01*
X4226Y2814D01*
X4235Y2810D01*
X4245D01*
X4250Y2812D01*
X4500D01*
X4509Y2814D01*
X4516Y2819D01*
X4705Y3007D01*
X4709Y3006D01*
X4721D01*
X4732Y3009D01*
X4742Y3015D01*
X4750Y3023D01*
X4756Y3033D01*
X4759Y3044D01*
Y3056D01*
X4756Y3067D01*
X4750Y3077D01*
X4742Y3085D01*
X4732Y3091D01*
X4721Y3094D01*
X4709D01*
X4704Y3092D01*
X4699Y3101D01*
X4791Y3194D01*
X4796Y3201D01*
X4798Y3210D01*
Y3360D01*
X4800Y3365D01*
Y3375D01*
X4796Y3384D01*
X4789Y3391D01*
X4780Y3395D01*
X4770D01*
X4761Y3391D01*
X4754Y3384D01*
X4750Y3375D01*
Y3365D01*
X4752Y3360D01*
Y3220D01*
X4625Y3093D01*
X4621Y3094D01*
X4609D01*
X4598Y3091D01*
X4588Y3085D01*
X4580Y3077D01*
X4574Y3067D01*
X4571Y3056D01*
Y3044D01*
X4574Y3033D01*
X4580Y3023D01*
X4588Y3015D01*
X4598Y3009D01*
X4609Y3006D01*
X4621D01*
X4626Y3008D01*
X4631Y2999D01*
X4490Y2858D01*
X4250D01*
X4245Y2860D01*
X4235D01*
X4226Y2856D01*
X4219Y2849D01*
X4215Y2840D01*
X4205Y2841D01*
Y2904D01*
X4308Y3007D01*
X4309Y3006D01*
X4321D01*
X4332Y3009D01*
X4342Y3015D01*
X4350Y3023D01*
X4356Y3033D01*
X4359Y3044D01*
Y3056D01*
X4356Y3067D01*
X4350Y3077D01*
X4342Y3085D01*
X4332Y3091D01*
X4321Y3094D01*
X4309D01*
X4298Y3091D01*
X4288Y3085D01*
X4280Y3077D01*
X4274Y3067D01*
X4271Y3056D01*
Y3048D01*
X4269Y3046D01*
X4259Y3051D01*
X4259Y3051D01*
Y3056D01*
X4256Y3067D01*
X4250Y3077D01*
X4242Y3085D01*
X4238Y3087D01*
Y3235D01*
X4240Y3240D01*
Y3250D01*
X4236Y3259D01*
X4229Y3266D01*
X4220Y3270D01*
X4212D01*
X4208Y3275D01*
X4207Y3279D01*
X4337Y3410D01*
X4445D01*
X4446Y3409D01*
X4455Y3405D01*
X4465D01*
X4474Y3409D01*
X4481Y3416D01*
X4485Y3425D01*
Y3435D01*
X4481Y3444D01*
X4474Y3451D01*
X4465Y3455D01*
X4455D01*
X4446Y3451D01*
X4445Y3450D01*
X4329D01*
X4321Y3449D01*
X4314Y3444D01*
X4067Y3197D01*
X4063Y3190D01*
X4061Y3183D01*
Y2870D01*
X3890Y2699D01*
X3880Y2703D01*
Y3332D01*
X3944Y3395D01*
X3945D01*
X3954Y3399D01*
X3961Y3406D01*
X3965Y3415D01*
Y3425D01*
X3961Y3434D01*
X3954Y3441D01*
X3945Y3445D01*
X3935D01*
X3926Y3441D01*
X3919Y3434D01*
X3915Y3425D01*
Y3424D01*
X3846Y3354D01*
X3841Y3348D01*
X3840Y3340D01*
Y2671D01*
X3830Y2667D01*
X3792Y2705D01*
Y3000D01*
X3791Y3009D01*
X3786Y3017D01*
X3558Y3244D01*
X3556Y3249D01*
X3552Y3254D01*
X3585Y3287D01*
X3637D01*
Y3284D01*
X3711D01*
Y3284D01*
X3714Y3286D01*
X3715Y3285D01*
X3725D01*
X3730Y3287D01*
X3740Y3284D01*
Y3284D01*
X3813D01*
Y3321D01*
Y3358D01*
Y3406D01*
X3779D01*
X3774Y3415D01*
X3774Y3416D01*
X3775Y3417D01*
X3777Y3418D01*
X3778Y3419D01*
X3780Y3420D01*
X3781Y3422D01*
X3782Y3423D01*
X3783Y3425D01*
X3784Y3426D01*
X3785Y3428D01*
X3786Y3429D01*
X3786Y3431D01*
X3787Y3433D01*
X3787Y3435D01*
X3787Y3436D01*
Y3438D01*
X3788Y3440D01*
Y3603D01*
X3787Y3610D01*
X3784Y3617D01*
X3780Y3622D01*
X3670Y3732D01*
X3664Y3736D01*
X3658Y3739D01*
X3651Y3740D01*
D02*
G37*
G36*
X4060Y3605D02*
X4050D01*
X4041Y3601D01*
X4034Y3594D01*
X4030Y3585D01*
Y3575D01*
X4034Y3566D01*
X4041Y3559D01*
X4050Y3555D01*
X4060D01*
X4069Y3559D01*
X4076Y3566D01*
X4080Y3575D01*
Y3585D01*
X4076Y3594D01*
X4069Y3601D01*
X4060Y3605D01*
D02*
G37*
G36*
X5984Y3730D02*
X5966D01*
X5947Y3726D01*
X5930Y3719D01*
X5914Y3709D01*
X5901Y3696D01*
X5891Y3680D01*
X5884Y3663D01*
X5880Y3644D01*
Y3626D01*
X5884Y3607D01*
X5891Y3590D01*
X5901Y3574D01*
X5914Y3561D01*
X5930Y3551D01*
X5947Y3544D01*
X5966Y3540D01*
X5984D01*
X6003Y3544D01*
X6020Y3551D01*
X6036Y3561D01*
X6049Y3574D01*
X6059Y3590D01*
X6066Y3607D01*
X6070Y3626D01*
Y3644D01*
X6066Y3663D01*
X6059Y3680D01*
X6049Y3696D01*
X6036Y3709D01*
X6020Y3719D01*
X6003Y3726D01*
X5984Y3730D01*
D02*
G37*
G36*
X4999Y3590D02*
X4989D01*
X4980Y3586D01*
X4973Y3579D01*
X4969Y3570D01*
Y3560D01*
X4973Y3551D01*
X4980Y3544D01*
X4989Y3540D01*
X4999D01*
X5008Y3544D01*
X5015Y3551D01*
X5019Y3560D01*
Y3570D01*
X5015Y3579D01*
X5008Y3586D01*
X4999Y3590D01*
D02*
G37*
G36*
X4565Y3575D02*
X4555D01*
X4546Y3571D01*
X4539Y3564D01*
X4535Y3555D01*
Y3545D01*
X4539Y3536D01*
X4546Y3529D01*
X4555Y3525D01*
X4565D01*
X4574Y3529D01*
X4581Y3536D01*
X4585Y3545D01*
Y3555D01*
X4581Y3564D01*
X4574Y3571D01*
X4565Y3575D01*
D02*
G37*
G36*
X3984Y3614D02*
X3946D01*
X3937Y3613D01*
X3929Y3609D01*
X3921Y3604D01*
X3916Y3596D01*
X3912Y3588D01*
X3911Y3579D01*
Y3541D01*
X3912Y3532D01*
X3916Y3524D01*
X3921Y3516D01*
X3929Y3511D01*
X3937Y3507D01*
X3946Y3506D01*
X3984D01*
X3993Y3507D01*
X4001Y3511D01*
X4009Y3516D01*
X4014Y3524D01*
X4018Y3532D01*
X4019Y3541D01*
Y3579D01*
X4018Y3588D01*
X4014Y3596D01*
X4009Y3604D01*
X4001Y3609D01*
X3993Y3613D01*
X3984Y3614D01*
D02*
G37*
G36*
X3180Y3440D02*
X3178Y3440D01*
X3175D01*
X3173Y3439D01*
X3170Y3439D01*
X3168Y3437D01*
X3166Y3436D01*
X3164Y3434D01*
X3162Y3433D01*
X3138Y3409D01*
X3133Y3401D01*
X3131Y3391D01*
Y3386D01*
X3082D01*
Y3334D01*
X3136D01*
Y3335D01*
X3180D01*
Y3332D01*
X3234D01*
Y3384D01*
X3213D01*
X3204Y3385D01*
X3200D01*
X3196Y3395D01*
X3198Y3397D01*
X3199Y3399D01*
X3201Y3401D01*
X3202Y3403D01*
X3204Y3405D01*
X3204Y3408D01*
X3205Y3410D01*
Y3413D01*
X3205Y3415D01*
X3205Y3417D01*
Y3420D01*
X3204Y3422D01*
X3204Y3425D01*
X3202Y3427D01*
X3201Y3429D01*
X3199Y3431D01*
X3198Y3433D01*
X3196Y3434D01*
X3194Y3436D01*
X3192Y3437D01*
X3190Y3439D01*
X3187Y3439D01*
X3185Y3440D01*
X3182D01*
X3180Y3440D01*
D02*
G37*
G36*
X4930Y3395D02*
X4920D01*
X4911Y3391D01*
X4904Y3384D01*
X4902Y3379D01*
X4839Y3316D01*
X4834Y3309D01*
X4832Y3300D01*
Y3100D01*
X4825Y3093D01*
X4821Y3094D01*
X4809D01*
X4798Y3091D01*
X4788Y3085D01*
X4780Y3077D01*
X4774Y3067D01*
X4771Y3056D01*
Y3044D01*
X4774Y3033D01*
X4780Y3023D01*
X4788Y3015D01*
X4798Y3009D01*
X4809Y3006D01*
X4821D01*
X4832Y3009D01*
X4842Y3015D01*
X4850Y3023D01*
X4856Y3033D01*
X4859Y3044D01*
Y3054D01*
X4861Y3057D01*
X4866Y3056D01*
X4871Y3052D01*
Y3006D01*
X4959D01*
Y3061D01*
X5225Y3327D01*
X5295D01*
X5300Y3325D01*
X5310D01*
X5319Y3329D01*
X5326Y3336D01*
X5330Y3345D01*
Y3355D01*
X5326Y3364D01*
X5319Y3371D01*
X5310Y3375D01*
X5300D01*
X5295Y3373D01*
X5215D01*
X5206Y3371D01*
X5199Y3366D01*
X4926Y3094D01*
X4878D01*
Y3290D01*
X4934Y3347D01*
X4939Y3349D01*
X4946Y3356D01*
X4950Y3365D01*
Y3375D01*
X4946Y3384D01*
X4939Y3391D01*
X4930Y3395D01*
D02*
G37*
G36*
X5594Y3254D02*
X5580D01*
X5566Y3250D01*
X5554Y3243D01*
X5544Y3233D01*
X5537Y3221D01*
X5533Y3207D01*
Y3193D01*
X5537Y3180D01*
X5544Y3168D01*
X5554Y3158D01*
X5566Y3151D01*
X5580Y3147D01*
X5594D01*
X5607Y3151D01*
X5619Y3158D01*
X5629Y3168D01*
X5636Y3180D01*
X5640Y3193D01*
Y3207D01*
X5636Y3221D01*
X5629Y3233D01*
X5619Y3243D01*
X5607Y3250D01*
X5594Y3254D01*
D02*
G37*
G36*
X3186Y3233D02*
X3146D01*
X3138Y3231D01*
X3130Y3226D01*
X3128Y3224D01*
X3121Y3221D01*
X3114Y3214D01*
X3110Y3205D01*
Y3195D01*
X3114Y3186D01*
X3121Y3179D01*
X3130Y3175D01*
X3140D01*
X3149Y3179D01*
X3156Y3186D01*
X3157Y3187D01*
X3177D01*
X3177Y3186D01*
Y3144D01*
X3253D01*
Y3219D01*
X3210D01*
X3202Y3226D01*
X3195Y3231D01*
X3186Y3233D01*
D02*
G37*
G36*
X2505Y3165D02*
X2495D01*
X2486Y3161D01*
X2479Y3154D01*
X2475Y3145D01*
Y3135D01*
X2479Y3126D01*
X2486Y3119D01*
X2495Y3115D01*
X2505D01*
X2514Y3119D01*
X2521Y3126D01*
X2525Y3135D01*
Y3145D01*
X2521Y3154D01*
X2514Y3161D01*
X2505Y3165D01*
D02*
G37*
G36*
X4475Y3385D02*
X4465D01*
X4456Y3381D01*
X4449Y3374D01*
X4445Y3365D01*
Y3355D01*
X4447Y3350D01*
Y3115D01*
X4425Y3093D01*
X4421Y3094D01*
X4409D01*
X4398Y3091D01*
X4388Y3085D01*
X4380Y3077D01*
X4374Y3067D01*
X4371Y3056D01*
Y3044D01*
X4374Y3033D01*
X4380Y3023D01*
X4388Y3015D01*
X4398Y3009D01*
X4409Y3006D01*
X4421D01*
X4432Y3009D01*
X4442Y3015D01*
X4450Y3023D01*
X4456Y3033D01*
X4459Y3044D01*
Y3056D01*
X4458Y3059D01*
X4464Y3065D01*
X4472Y3060D01*
X4471Y3056D01*
Y3044D01*
X4474Y3033D01*
X4480Y3023D01*
X4488Y3015D01*
X4498Y3009D01*
X4509Y3006D01*
X4521D01*
X4532Y3009D01*
X4542Y3015D01*
X4550Y3023D01*
X4556Y3033D01*
X4559Y3044D01*
Y3056D01*
X4556Y3067D01*
X4550Y3077D01*
X4542Y3085D01*
X4532Y3091D01*
X4521Y3094D01*
X4509D01*
X4500Y3091D01*
X4496Y3093D01*
X4492Y3099D01*
X4493Y3105D01*
Y3350D01*
X4495Y3355D01*
Y3365D01*
X4491Y3374D01*
X4484Y3381D01*
X4475Y3385D01*
D02*
G37*
G36*
X3045Y3223D02*
X3036Y3221D01*
X3029Y3216D01*
X3024Y3209D01*
X3022Y3200D01*
Y3086D01*
X3021Y3080D01*
X3023Y3071D01*
X3028Y3064D01*
X3035Y3059D01*
X3044Y3057D01*
X3053Y3059D01*
X3060Y3064D01*
X3061Y3065D01*
X3066Y3072D01*
X3068Y3081D01*
Y3200D01*
X3066Y3209D01*
X3061Y3216D01*
X3054Y3221D01*
X3045Y3223D01*
D02*
G37*
G36*
X3253Y3126D02*
X3177D01*
Y3126D01*
X3174Y3118D01*
X3099D01*
Y3042D01*
X3141D01*
X3146Y3038D01*
X3153Y3033D01*
X3162Y3031D01*
X3181D01*
X3189Y3033D01*
X3197Y3038D01*
X3210Y3051D01*
X3253D01*
Y3126D01*
D02*
G37*
G36*
X4500Y2970D02*
X4490D01*
X4485Y2968D01*
X4340D01*
X4335Y2970D01*
X4325D01*
X4316Y2966D01*
X4309Y2959D01*
X4305Y2950D01*
Y2940D01*
X4309Y2931D01*
X4316Y2924D01*
X4325Y2920D01*
X4335D01*
X4340Y2922D01*
X4485D01*
X4490Y2920D01*
X4500D01*
X4509Y2924D01*
X4516Y2931D01*
X4520Y2940D01*
Y2950D01*
X4516Y2959D01*
X4509Y2966D01*
X4500Y2970D01*
D02*
G37*
G36*
X1584Y3010D02*
X1574D01*
X1565Y3006D01*
X1564Y3005D01*
X1420D01*
X1412Y3004D01*
X1406Y2999D01*
X1341Y2935D01*
X1340D01*
X1331Y2931D01*
X1324Y2924D01*
X1320Y2915D01*
Y2905D01*
X1324Y2896D01*
X1331Y2889D01*
X1340Y2885D01*
X1350D01*
X1359Y2889D01*
X1366Y2896D01*
X1370Y2905D01*
Y2906D01*
X1428Y2965D01*
X1564D01*
X1565Y2964D01*
X1574Y2960D01*
X1584D01*
X1593Y2964D01*
X1600Y2971D01*
X1604Y2980D01*
Y2990D01*
X1600Y2999D01*
X1593Y3006D01*
X1584Y3010D01*
D02*
G37*
G36*
X5650Y3017D02*
X5640D01*
X5629Y3014D01*
X5620Y3009D01*
X5612Y3001D01*
X5607Y2992D01*
X5604Y2981D01*
Y2971D01*
X5607Y2960D01*
X5612Y2951D01*
X5620Y2943D01*
X5629Y2938D01*
X5640Y2935D01*
X5650D01*
X5661Y2938D01*
X5670Y2943D01*
X5678Y2951D01*
X5683Y2960D01*
X5686Y2971D01*
Y2981D01*
X5683Y2992D01*
X5678Y3001D01*
X5670Y3009D01*
X5661Y3014D01*
X5650Y3017D01*
D02*
G37*
G36*
X2995Y3045D02*
X2985D01*
X2976Y3041D01*
X2969Y3034D01*
X2967Y3029D01*
X2870Y2933D01*
X2570D01*
X2565Y2935D01*
X2555D01*
X2546Y2931D01*
X2539Y2924D01*
X2535Y2915D01*
Y2905D01*
X2539Y2896D01*
X2546Y2889D01*
X2555Y2885D01*
X2565D01*
X2570Y2887D01*
X2880D01*
X2889Y2889D01*
X2896Y2894D01*
X2999Y2997D01*
X3004Y2999D01*
X3011Y3006D01*
X3015Y3015D01*
Y3025D01*
X3011Y3034D01*
X3004Y3041D01*
X2995Y3045D01*
D02*
G37*
G36*
X1070Y2745D02*
X1060D01*
X1051Y2741D01*
X1044Y2734D01*
X1040Y2725D01*
Y2715D01*
X1044Y2706D01*
X1051Y2699D01*
X1060Y2695D01*
X1070D01*
X1079Y2699D01*
X1086Y2706D01*
X1090Y2715D01*
Y2725D01*
X1086Y2734D01*
X1079Y2741D01*
X1070Y2745D01*
D02*
G37*
G36*
X5650Y2761D02*
X5640D01*
X5629Y2758D01*
X5620Y2753D01*
X5612Y2745D01*
X5607Y2736D01*
X5604Y2725D01*
Y2715D01*
X5607Y2704D01*
X5612Y2695D01*
X5620Y2687D01*
X5629Y2682D01*
X5640Y2679D01*
X5650D01*
X5661Y2682D01*
X5670Y2687D01*
X5678Y2695D01*
X5683Y2704D01*
X5686Y2715D01*
Y2725D01*
X5683Y2736D01*
X5678Y2745D01*
X5670Y2753D01*
X5661Y2758D01*
X5650Y2761D01*
D02*
G37*
G36*
X4921Y2694D02*
X4909D01*
X4898Y2691D01*
X4888Y2685D01*
X4880Y2677D01*
X4874Y2667D01*
X4871Y2656D01*
Y2644D01*
X4874Y2633D01*
X4880Y2623D01*
X4888Y2615D01*
X4898Y2609D01*
X4909Y2606D01*
X4921D01*
X4932Y2609D01*
X4942Y2615D01*
X4950Y2623D01*
X4956Y2633D01*
X4959Y2644D01*
Y2656D01*
X4956Y2667D01*
X4950Y2677D01*
X4942Y2685D01*
X4932Y2691D01*
X4921Y2694D01*
D02*
G37*
G36*
X4621D02*
X4609D01*
X4598Y2691D01*
X4588Y2685D01*
X4580Y2677D01*
X4574Y2667D01*
X4571Y2656D01*
Y2644D01*
X4574Y2633D01*
X4580Y2623D01*
X4588Y2615D01*
X4598Y2609D01*
X4609Y2606D01*
X4621D01*
X4632Y2609D01*
X4642Y2615D01*
X4650Y2623D01*
X4656Y2633D01*
X4659Y2644D01*
Y2656D01*
X4656Y2667D01*
X4650Y2677D01*
X4642Y2685D01*
X4632Y2691D01*
X4621Y2694D01*
D02*
G37*
G36*
X5360Y2495D02*
X5350D01*
X5341Y2491D01*
X5334Y2484D01*
X5330Y2475D01*
Y2465D01*
X5334Y2456D01*
X5341Y2449D01*
X5350Y2445D01*
X5360D01*
X5369Y2449D01*
X5376Y2456D01*
X5380Y2465D01*
Y2475D01*
X5376Y2484D01*
X5369Y2491D01*
X5360Y2495D01*
D02*
G37*
G36*
X1915Y2300D02*
X1905D01*
X1896Y2296D01*
X1889Y2289D01*
X1885Y2280D01*
Y2270D01*
X1889Y2261D01*
X1896Y2254D01*
X1905Y2250D01*
X1915D01*
X1924Y2254D01*
X1931Y2261D01*
X1935Y2270D01*
Y2280D01*
X1931Y2289D01*
X1924Y2296D01*
X1915Y2300D01*
D02*
G37*
G36*
X5837Y2322D02*
X5823D01*
X5809Y2318D01*
X5797Y2311D01*
X5787Y2301D01*
X5780Y2289D01*
X5776Y2275D01*
Y2261D01*
X5780Y2248D01*
X5787Y2236D01*
X5797Y2226D01*
X5809Y2219D01*
X5823Y2215D01*
X5837D01*
X5850Y2219D01*
X5862Y2226D01*
X5872Y2236D01*
X5879Y2248D01*
X5883Y2261D01*
Y2275D01*
X5879Y2289D01*
X5872Y2301D01*
X5862Y2311D01*
X5850Y2318D01*
X5837Y2322D01*
D02*
G37*
G36*
X4240Y1960D02*
X4230D01*
X4221Y1956D01*
X4214Y1949D01*
X4210Y1940D01*
Y1930D01*
X4214Y1921D01*
X4221Y1914D01*
X4230Y1910D01*
X4240D01*
X4249Y1914D01*
X4256Y1921D01*
X4260Y1930D01*
Y1940D01*
X4256Y1949D01*
X4249Y1956D01*
X4240Y1960D01*
D02*
G37*
G36*
X3902Y1831D02*
X3888D01*
X3876Y1827D01*
X3864Y1820D01*
X3855Y1811D01*
X3848Y1799D01*
X3845Y1787D01*
Y1773D01*
X3848Y1761D01*
X3855Y1749D01*
X3864Y1740D01*
X3876Y1733D01*
X3888Y1730D01*
X3902D01*
X3914Y1733D01*
X3926Y1740D01*
X3935Y1749D01*
X3942Y1761D01*
X3945Y1773D01*
Y1787D01*
X3942Y1799D01*
X3935Y1811D01*
X3926Y1820D01*
X3914Y1827D01*
X3902Y1831D01*
D02*
G37*
G36*
X4235Y1760D02*
X4225D01*
X4216Y1756D01*
X4209Y1749D01*
X4205Y1740D01*
Y1730D01*
X4209Y1721D01*
X4216Y1714D01*
X4225Y1710D01*
X4235D01*
X4244Y1714D01*
X4251Y1721D01*
X4255Y1730D01*
Y1740D01*
X4251Y1749D01*
X4244Y1756D01*
X4235Y1760D01*
D02*
G37*
G36*
X5837Y1779D02*
X5823D01*
X5811Y1776D01*
X5799Y1769D01*
X5790Y1760D01*
X5783Y1748D01*
X5780Y1735D01*
Y1722D01*
X5783Y1709D01*
X5790Y1698D01*
X5799Y1688D01*
X5811Y1682D01*
X5823Y1678D01*
X5837D01*
X5849Y1682D01*
X5861Y1688D01*
X5870Y1698D01*
X5877Y1709D01*
X5880Y1722D01*
Y1735D01*
X5877Y1748D01*
X5870Y1760D01*
X5861Y1769D01*
X5849Y1776D01*
X5837Y1779D01*
D02*
G37*
G36*
X3902Y1634D02*
X3888D01*
X3876Y1630D01*
X3864Y1624D01*
X3855Y1614D01*
X3848Y1603D01*
X3845Y1590D01*
Y1577D01*
X3848Y1564D01*
X3855Y1552D01*
X3864Y1543D01*
X3876Y1536D01*
X3888Y1533D01*
X3902D01*
X3914Y1536D01*
X3926Y1543D01*
X3935Y1552D01*
X3942Y1564D01*
X3945Y1577D01*
Y1590D01*
X3942Y1603D01*
X3935Y1614D01*
X3926Y1624D01*
X3914Y1630D01*
X3902Y1634D01*
D02*
G37*
G36*
X4240Y1560D02*
X4230D01*
X4221Y1556D01*
X4214Y1549D01*
X4210Y1540D01*
Y1530D01*
X4214Y1521D01*
X4221Y1514D01*
X4230Y1510D01*
X4240D01*
X4249Y1514D01*
X4256Y1521D01*
X4260Y1530D01*
Y1540D01*
X4256Y1549D01*
X4249Y1556D01*
X4240Y1560D01*
D02*
G37*
G36*
X5837Y1582D02*
X5823D01*
X5811Y1579D01*
X5799Y1572D01*
X5790Y1563D01*
X5783Y1551D01*
X5780Y1538D01*
Y1525D01*
X5783Y1512D01*
X5790Y1501D01*
X5799Y1491D01*
X5811Y1485D01*
X5823Y1481D01*
X5837D01*
X5849Y1485D01*
X5861Y1491D01*
X5870Y1501D01*
X5877Y1512D01*
X5880Y1525D01*
Y1538D01*
X5877Y1551D01*
X5870Y1563D01*
X5861Y1572D01*
X5849Y1579D01*
X5837Y1582D01*
D02*
G37*
G36*
X3902Y1437D02*
X3888D01*
X3876Y1433D01*
X3864Y1427D01*
X3855Y1417D01*
X3848Y1406D01*
X3845Y1393D01*
Y1380D01*
X3848Y1367D01*
X3855Y1355D01*
X3864Y1346D01*
X3876Y1339D01*
X3888Y1336D01*
X3902D01*
X3914Y1339D01*
X3926Y1346D01*
X3935Y1355D01*
X3942Y1367D01*
X3945Y1380D01*
Y1393D01*
X3942Y1406D01*
X3935Y1417D01*
X3926Y1427D01*
X3914Y1433D01*
X3902Y1437D01*
D02*
G37*
G36*
X4235Y1365D02*
X4225D01*
X4216Y1361D01*
X4209Y1354D01*
X4205Y1345D01*
Y1335D01*
X4209Y1326D01*
X4216Y1319D01*
X4225Y1315D01*
X4235D01*
X4244Y1319D01*
X4251Y1326D01*
X4255Y1335D01*
Y1345D01*
X4251Y1354D01*
X4244Y1361D01*
X4235Y1365D01*
D02*
G37*
G36*
X4240Y1260D02*
X4230D01*
X4221Y1256D01*
X4214Y1249D01*
X4210Y1240D01*
Y1230D01*
X4214Y1221D01*
X4221Y1214D01*
X4230Y1210D01*
X4240D01*
X4249Y1214D01*
X4256Y1221D01*
X4260Y1230D01*
Y1240D01*
X4256Y1249D01*
X4249Y1256D01*
X4240Y1260D01*
D02*
G37*
G36*
X1535Y1230D02*
X1525D01*
X1516Y1226D01*
X1509Y1219D01*
X1505Y1210D01*
Y1200D01*
X1509Y1191D01*
X1516Y1184D01*
X1525Y1180D01*
X1535D01*
X1544Y1184D01*
X1551Y1191D01*
X1555Y1200D01*
Y1210D01*
X1551Y1219D01*
X1544Y1226D01*
X1535Y1230D01*
D02*
G37*
G36*
X3902Y1240D02*
X3888D01*
X3876Y1237D01*
X3864Y1230D01*
X3855Y1220D01*
X3848Y1209D01*
X3845Y1196D01*
Y1183D01*
X3848Y1170D01*
X3855Y1158D01*
X3864Y1149D01*
X3876Y1142D01*
X3888Y1139D01*
X3902D01*
X3914Y1142D01*
X3926Y1149D01*
X3935Y1158D01*
X3942Y1170D01*
X3945Y1183D01*
Y1196D01*
X3942Y1209D01*
X3935Y1220D01*
X3926Y1230D01*
X3914Y1237D01*
X3902Y1240D01*
D02*
G37*
G36*
X1960Y1155D02*
X1950D01*
X1941Y1151D01*
X1934Y1144D01*
X1930Y1135D01*
Y1125D01*
X1934Y1116D01*
X1941Y1109D01*
X1950Y1105D01*
X1960D01*
X1969Y1109D01*
X1976Y1116D01*
X1980Y1125D01*
Y1135D01*
X1976Y1144D01*
X1969Y1151D01*
X1960Y1155D01*
D02*
G37*
G36*
X5984Y1215D02*
X5966D01*
X5947Y1211D01*
X5930Y1204D01*
X5914Y1194D01*
X5901Y1181D01*
X5891Y1165D01*
X5884Y1148D01*
X5880Y1129D01*
Y1111D01*
X5884Y1092D01*
X5891Y1075D01*
X5901Y1059D01*
X5914Y1046D01*
X5930Y1036D01*
X5947Y1029D01*
X5966Y1025D01*
X5984D01*
X6003Y1029D01*
X6020Y1036D01*
X6036Y1046D01*
X6049Y1059D01*
X6059Y1075D01*
X6066Y1092D01*
X6070Y1111D01*
Y1129D01*
X6066Y1148D01*
X6059Y1165D01*
X6049Y1181D01*
X6036Y1194D01*
X6020Y1204D01*
X6003Y1211D01*
X5984Y1215D01*
D02*
G37*
G36*
X1129D02*
X1111D01*
X1092Y1211D01*
X1075Y1204D01*
X1059Y1194D01*
X1046Y1181D01*
X1036Y1165D01*
X1029Y1148D01*
X1025Y1129D01*
Y1111D01*
X1029Y1092D01*
X1036Y1075D01*
X1046Y1059D01*
X1059Y1046D01*
X1075Y1036D01*
X1092Y1029D01*
X1111Y1025D01*
X1129D01*
X1148Y1029D01*
X1165Y1036D01*
X1181Y1046D01*
X1194Y1059D01*
X1204Y1075D01*
X1211Y1092D01*
X1215Y1111D01*
Y1129D01*
X1211Y1148D01*
X1204Y1165D01*
X1194Y1181D01*
X1181Y1194D01*
X1165Y1204D01*
X1148Y1211D01*
X1129Y1215D01*
D02*
G37*
%LPD*%
G36*
X2971Y3465D02*
X2967Y3455D01*
X2962D01*
X2952Y3453D01*
X2944Y3447D01*
X2937Y3440D01*
X2905D01*
Y3508D01*
X2904Y3517D01*
X2902Y3520D01*
X2910Y3526D01*
X2971Y3465D01*
D02*
G37*
G36*
X3289Y3676D02*
X3290Y3675D01*
X3285Y3669D01*
X3283Y3662D01*
X3282Y3655D01*
X3283Y3648D01*
X3285Y3641D01*
X3290Y3636D01*
X3296Y3631D01*
X3302Y3629D01*
X3309Y3628D01*
X3638D01*
X3645Y3629D01*
X3652Y3631D01*
X3658Y3636D01*
X3662Y3641D01*
X3664Y3646D01*
X3671Y3648D01*
X3675Y3649D01*
X3732Y3591D01*
Y3440D01*
X3733Y3438D01*
Y3436D01*
X3733Y3435D01*
X3733Y3433D01*
X3734Y3431D01*
X3734Y3429D01*
X3735Y3428D01*
X3736Y3426D01*
X3737Y3425D01*
X3738Y3423D01*
X3739Y3422D01*
X3740Y3420D01*
X3742Y3419D01*
X3743Y3418D01*
X3745Y3417D01*
X3746Y3416D01*
X3746Y3415D01*
X3741Y3406D01*
X3740D01*
Y3380D01*
X3737Y3379D01*
X3730Y3376D01*
X3725Y3379D01*
X3717Y3380D01*
X3711D01*
Y3406D01*
X3637D01*
Y3403D01*
X3626D01*
X3618Y3401D01*
X3612Y3397D01*
X3599Y3384D01*
X3587Y3386D01*
X3586Y3389D01*
X3579Y3396D01*
X3570Y3400D01*
X3560D01*
X3551Y3396D01*
X3544Y3389D01*
X3540Y3380D01*
Y3370D01*
X3544Y3361D01*
X3551Y3354D01*
X3554Y3353D01*
X3556Y3341D01*
X3502Y3287D01*
X3492Y3292D01*
Y3351D01*
X3491Y3356D01*
Y3509D01*
X3522D01*
Y3592D01*
X3400D01*
Y3509D01*
X3400D01*
Y3444D01*
X3375D01*
X3372Y3446D01*
X3365Y3451D01*
X3356Y3453D01*
X3340D01*
X3331Y3451D01*
X3324Y3446D01*
X3308Y3430D01*
X3208Y3531D01*
X3208Y3532D01*
X3213Y3540D01*
X3220D01*
X3229Y3544D01*
X3236Y3551D01*
X3240Y3560D01*
Y3570D01*
X3236Y3579D01*
X3229Y3586D01*
X3220Y3590D01*
X3210D01*
X3201Y3586D01*
X3194Y3579D01*
X3190Y3570D01*
Y3563D01*
X3182Y3558D01*
X3181Y3558D01*
X3161Y3578D01*
X3164Y3589D01*
X3170Y3594D01*
X3176Y3602D01*
X3180Y3611D01*
X3181Y3621D01*
Y3669D01*
X3180Y3675D01*
X3187Y3685D01*
X3286D01*
X3289Y3676D01*
D02*
G37*
G36*
X3372Y2996D02*
X3375Y2994D01*
Y2985D01*
X3379Y2976D01*
X3380Y2975D01*
Y2913D01*
X3255Y2788D01*
X3251Y2789D01*
X3244Y2796D01*
X3235Y2800D01*
X3225D01*
X3216Y2796D01*
X3209Y2789D01*
X3205Y2780D01*
Y2770D01*
X3209Y2761D01*
X3216Y2754D01*
X3217Y2750D01*
X3040Y2574D01*
X3030Y2578D01*
Y2760D01*
X3029Y2768D01*
X3024Y2774D01*
X3015Y2784D01*
Y2785D01*
X3011Y2794D01*
X3004Y2801D01*
X3001Y2803D01*
X2998Y2814D01*
X3128Y2945D01*
X3303D01*
X3311Y2946D01*
X3318Y2951D01*
X3366Y2999D01*
X3372Y2996D01*
D02*
G37*
G36*
X3653Y3084D02*
X3650Y3073D01*
X3646Y3071D01*
X3639Y3064D01*
X3635Y3055D01*
Y3045D01*
X3639Y3036D01*
X3646Y3029D01*
X3655Y3025D01*
X3665D01*
X3674Y3029D01*
X3681Y3036D01*
X3683Y3040D01*
X3694Y3043D01*
X3747Y2991D01*
Y2744D01*
X3737Y2740D01*
X3731Y2746D01*
X3724Y2751D01*
X3715Y2753D01*
X3640D01*
X3636Y2762D01*
X3654Y2781D01*
X3659Y2787D01*
X3660Y2795D01*
Y2890D01*
X3659Y2898D01*
X3654Y2904D01*
X3625Y2934D01*
Y2935D01*
X3621Y2944D01*
X3614Y2951D01*
X3605Y2955D01*
X3595D01*
X3586Y2951D01*
X3579Y2944D01*
X3575Y2935D01*
Y2925D01*
X3579Y2916D01*
X3586Y2909D01*
X3595Y2905D01*
X3596D01*
X3620Y2882D01*
Y2829D01*
X3610Y2823D01*
X3605Y2825D01*
X3595D01*
X3586Y2821D01*
X3585Y2820D01*
X3560D01*
X3552Y2819D01*
X3545Y2814D01*
X3545Y2814D01*
X3538Y2807D01*
X3526Y2809D01*
X3519Y2816D01*
X3510Y2820D01*
X3500D01*
X3491Y2816D01*
X3486Y2818D01*
X3483Y2829D01*
X3539Y2886D01*
X3544Y2892D01*
X3545Y2900D01*
Y2975D01*
X3546Y2976D01*
X3550Y2985D01*
Y2995D01*
X3546Y3004D01*
X3539Y3011D01*
X3530Y3015D01*
X3520D01*
X3511Y3011D01*
X3504Y3004D01*
X3500Y2995D01*
Y2985D01*
X3504Y2976D01*
X3502Y2969D01*
X3492Y2964D01*
X3490Y2965D01*
X3480D01*
Y2975D01*
X3481Y2976D01*
X3485Y2985D01*
Y2995D01*
X3481Y3004D01*
X3474Y3011D01*
X3465Y3015D01*
X3455D01*
X3446Y3011D01*
X3439Y3004D01*
X3435Y2995D01*
Y2985D01*
X3439Y2976D01*
X3440Y2975D01*
Y2893D01*
X3075Y2528D01*
X3065Y2532D01*
Y2542D01*
X3414Y2891D01*
X3419Y2897D01*
X3420Y2905D01*
Y2975D01*
X3421Y2976D01*
X3425Y2985D01*
Y2995D01*
X3421Y3004D01*
X3414Y3011D01*
X3405Y3015D01*
X3396D01*
X3394Y3018D01*
X3391Y3024D01*
X3486Y3119D01*
X3491Y3126D01*
X3492Y3134D01*
Y3143D01*
X3495Y3145D01*
X3505D01*
X3514Y3149D01*
X3521Y3156D01*
X3525Y3165D01*
Y3175D01*
X3521Y3184D01*
X3520Y3185D01*
Y3203D01*
X3530Y3207D01*
X3653Y3084D01*
D02*
G37*
G36*
X3491Y2774D02*
X3491Y2774D01*
X3493Y2762D01*
X3323Y2592D01*
X3314Y2597D01*
X3312Y2608D01*
X3478Y2775D01*
X3490D01*
X3491Y2774D01*
D02*
G37*
G36*
X4185Y3252D02*
X4190Y3248D01*
Y3240D01*
X4192Y3235D01*
Y3087D01*
X4188Y3085D01*
X4180Y3077D01*
X4174Y3067D01*
X4171Y3056D01*
Y3044D01*
X4174Y3033D01*
X4180Y3023D01*
X4188Y3015D01*
X4198Y3009D01*
X4209Y3006D01*
X4221D01*
X4221Y3006D01*
X4226Y2997D01*
X4162Y2933D01*
X4156Y2925D01*
X4155Y2915D01*
Y2685D01*
X4156Y2675D01*
X4162Y2667D01*
X4172Y2657D01*
X4171Y2656D01*
Y2644D01*
X4174Y2633D01*
X4180Y2623D01*
X4188Y2615D01*
X4198Y2609D01*
X4209Y2606D01*
X4221D01*
X4232Y2609D01*
X4242Y2615D01*
X4250Y2623D01*
X4256Y2633D01*
X4259Y2644D01*
Y2652D01*
X4261Y2654D01*
X4271Y2649D01*
X4271Y2649D01*
Y2644D01*
X4274Y2633D01*
X4280Y2623D01*
X4288Y2615D01*
X4298Y2609D01*
X4309Y2606D01*
X4321D01*
X4326Y2608D01*
X4331Y2599D01*
X4290Y2558D01*
X4126D01*
X4119Y2568D01*
X4120Y2570D01*
Y2580D01*
X4116Y2589D01*
X4109Y2596D01*
X4100Y2600D01*
X4090D01*
X4085Y2598D01*
X3908D01*
X3906Y2600D01*
X3906Y2601D01*
X3910Y2612D01*
X3914Y2614D01*
X3921Y2621D01*
X3925Y2630D01*
Y2640D01*
X3921Y2649D01*
X3920Y2650D01*
Y2672D01*
X4096Y2847D01*
X4100Y2854D01*
X4102Y2861D01*
Y3174D01*
X4181Y3253D01*
X4185Y3252D01*
D02*
G37*
G36*
X3575Y2735D02*
Y2725D01*
X3579Y2716D01*
X3586Y2709D01*
X3595Y2705D01*
X3605D01*
X3610Y2707D01*
X3705D01*
X3722Y2691D01*
X3724Y2686D01*
X3731Y2679D01*
X3740Y2675D01*
X3750D01*
X3756Y2677D01*
X3865Y2568D01*
X3861Y2558D01*
X3384D01*
X3380Y2567D01*
X3557Y2745D01*
X3568D01*
X3575Y2735D01*
D02*
G37*
G36*
X3336Y2514D02*
X3345Y2510D01*
X3355D01*
X3360Y2512D01*
X3530D01*
X3534Y2503D01*
X3521Y2490D01*
X3514Y2496D01*
X3505Y2500D01*
X3495D01*
X3486Y2496D01*
X3481Y2491D01*
X3475Y2490D01*
X3469Y2491D01*
X3464Y2496D01*
X3455Y2500D01*
X3445D01*
X3436Y2496D01*
X3431Y2491D01*
X3425Y2490D01*
X3419Y2491D01*
X3414Y2496D01*
X3405Y2500D01*
X3395D01*
X3386Y2496D01*
X3379Y2489D01*
X3375Y2480D01*
Y2470D01*
X3379Y2461D01*
X3386Y2454D01*
X3395Y2450D01*
X3405D01*
X3414Y2454D01*
X3419Y2459D01*
X3425Y2460D01*
X3431Y2459D01*
X3436Y2454D01*
X3445Y2450D01*
X3448D01*
X3451Y2440D01*
X3451Y2439D01*
X3400Y2389D01*
X3353D01*
X3345Y2387D01*
X3339Y2383D01*
X3246Y2289D01*
X3245Y2289D01*
X3235Y2292D01*
Y2423D01*
X3331Y2518D01*
X3336Y2514D01*
D02*
G37*
G36*
X3278Y2561D02*
X3283Y2552D01*
X3175Y2444D01*
X3165Y2447D01*
Y2462D01*
X3267Y2563D01*
X3278Y2561D01*
D02*
G37*
G36*
X3694Y2463D02*
X3639Y2408D01*
X3550D01*
X3546Y2418D01*
X3601Y2473D01*
X3690D01*
X3694Y2463D01*
D02*
G37*
G36*
X1489Y2350D02*
X1501Y2343D01*
X1513Y2340D01*
X1527D01*
X1539Y2343D01*
X1551Y2350D01*
X1551Y2350D01*
X1564Y2350D01*
X1614Y2301D01*
X1621Y2296D01*
X1629Y2295D01*
X1663D01*
X1664Y2293D01*
X1659Y2283D01*
X1500D01*
X1478Y2305D01*
Y2347D01*
X1488Y2351D01*
X1489Y2350D01*
D02*
G37*
G36*
X3398Y2315D02*
X3310Y2227D01*
X3300Y2231D01*
Y2252D01*
X3373Y2325D01*
X3394D01*
X3398Y2315D01*
D02*
G37*
G36*
X2990Y2313D02*
Y2213D01*
X2986Y2210D01*
X2985D01*
X2976Y2206D01*
X2969Y2199D01*
X2965Y2190D01*
Y2180D01*
X2969Y2171D01*
X2976Y2164D01*
X2985Y2160D01*
X2992D01*
X2997Y2151D01*
X2997Y2151D01*
X2667Y1820D01*
X2556D01*
X2548Y1819D01*
X2542Y1814D01*
X2395Y1668D01*
X2385Y1672D01*
Y1725D01*
X2386Y1726D01*
X2390Y1735D01*
Y1745D01*
X2386Y1754D01*
X2379Y1761D01*
X2379Y1764D01*
X2895Y2280D01*
X2905Y2276D01*
Y2165D01*
X2904Y2164D01*
X2900Y2155D01*
Y2145D01*
X2904Y2136D01*
X2911Y2129D01*
X2920Y2125D01*
X2930D01*
X2939Y2129D01*
X2946Y2136D01*
X2950Y2145D01*
Y2155D01*
X2946Y2164D01*
X2945Y2165D01*
Y2282D01*
X2980Y2317D01*
X2990Y2313D01*
D02*
G37*
G36*
X3370Y2216D02*
Y2211D01*
X3374Y2202D01*
X3380Y2196D01*
Y2130D01*
X3379Y2129D01*
X3375Y2120D01*
Y2110D01*
X3379Y2101D01*
X3386Y2094D01*
X3386Y2094D01*
X3387Y2082D01*
X3384Y2079D01*
X3380Y2070D01*
Y2060D01*
X3382Y2055D01*
Y2025D01*
X3384Y2017D01*
X3389Y2009D01*
X3425Y1973D01*
X3421Y1969D01*
X3417Y1960D01*
Y1950D01*
X3421Y1941D01*
X3423Y1938D01*
Y1570D01*
X3415D01*
X3406Y1566D01*
X3399Y1559D01*
X3395Y1550D01*
Y1540D01*
X3399Y1531D01*
X3406Y1524D01*
X3415Y1520D01*
X3423D01*
Y1292D01*
X3420Y1285D01*
Y1275D01*
X3424Y1266D01*
X3431Y1259D01*
X3440Y1255D01*
X3450D01*
X3459Y1259D01*
X3466Y1266D01*
X3470Y1275D01*
Y1285D01*
X3466Y1294D01*
X3464Y1297D01*
Y1922D01*
X3473Y1926D01*
X3482Y1917D01*
Y1094D01*
X3480Y1089D01*
Y1082D01*
X3336D01*
X3274Y1144D01*
X3268Y1149D01*
X3260Y1150D01*
X2941D01*
X2937Y1160D01*
X3033Y1256D01*
X3038Y1264D01*
X3040Y1272D01*
Y1338D01*
X3074Y1372D01*
X3079Y1374D01*
X3086Y1381D01*
X3090Y1390D01*
Y1400D01*
X3086Y1409D01*
X3079Y1416D01*
X3083Y1426D01*
X3084Y1427D01*
X3085Y1435D01*
Y1525D01*
X3086Y1526D01*
X3090Y1535D01*
Y1545D01*
X3086Y1554D01*
X3079Y1561D01*
X3070Y1565D01*
X3060D01*
X3051Y1561D01*
X3044Y1554D01*
X3040Y1545D01*
Y1535D01*
X3044Y1526D01*
X3045Y1525D01*
Y1446D01*
X3040Y1442D01*
X3030Y1447D01*
Y1450D01*
X3026Y1459D01*
X3019Y1466D01*
X3010Y1470D01*
X3000D01*
X2991Y1466D01*
X2990Y1465D01*
X2542D01*
X2455Y1552D01*
X2459Y1562D01*
X2502D01*
Y1555D01*
X2506Y1546D01*
X2513Y1539D01*
X2522Y1535D01*
X2532D01*
X2541Y1539D01*
X2548Y1546D01*
X2552Y1555D01*
Y1562D01*
X2572D01*
X2580Y1563D01*
X2586Y1568D01*
X2656Y1637D01*
X2667Y1634D01*
X2669Y1631D01*
X2676Y1624D01*
X2685Y1620D01*
X2695D01*
X2704Y1624D01*
X2705Y1625D01*
X3270D01*
X3278Y1626D01*
X3284Y1631D01*
X3306Y1652D01*
X3318Y1651D01*
X3321Y1649D01*
X3323Y1648D01*
X3355Y1616D01*
Y1615D01*
X3359Y1606D01*
X3366Y1599D01*
X3375Y1595D01*
X3385D01*
X3394Y1599D01*
X3401Y1606D01*
X3405Y1615D01*
Y1625D01*
X3401Y1634D01*
X3394Y1641D01*
X3385Y1645D01*
X3384D01*
X3360Y1669D01*
Y1675D01*
X3356Y1684D01*
X3349Y1691D01*
X3348Y1695D01*
X3389Y1735D01*
X3390D01*
X3399Y1739D01*
X3406Y1746D01*
X3410Y1755D01*
Y1765D01*
X3406Y1774D01*
X3399Y1781D01*
X3390Y1785D01*
X3380D01*
X3371Y1781D01*
X3364Y1774D01*
X3360Y1765D01*
Y1764D01*
X3317Y1720D01*
X3317Y1720D01*
X3262Y1665D01*
X2705D01*
X2704Y1666D01*
X2701Y1668D01*
X2698Y1679D01*
X2921Y1902D01*
X2932Y1899D01*
X2934Y1896D01*
X2941Y1889D01*
X2950Y1885D01*
X2960D01*
X2969Y1889D01*
X2976Y1896D01*
X2980Y1905D01*
Y1915D01*
X2976Y1924D01*
X2969Y1931D01*
X2966Y1933D01*
X2963Y1944D01*
X2971Y1952D01*
X2982Y1949D01*
X2984Y1946D01*
X2991Y1939D01*
X3000Y1935D01*
X3010D01*
X3019Y1939D01*
X3026Y1946D01*
X3030Y1955D01*
Y1965D01*
X3026Y1974D01*
X3019Y1981D01*
X3016Y1983D01*
X3013Y1994D01*
X3113Y2094D01*
X3123Y2090D01*
Y2084D01*
X3127Y2075D01*
X3127Y2074D01*
X3127Y2073D01*
X3123Y2064D01*
Y2054D01*
X3127Y2045D01*
X3134Y2038D01*
X3143Y2034D01*
X3153D01*
X3162Y2038D01*
X3165Y2040D01*
X3172D01*
X3180Y2042D01*
X3187Y2046D01*
X3360Y2220D01*
X3370Y2216D01*
D02*
G37*
G36*
X2084Y1806D02*
X2091Y1799D01*
X2100Y1795D01*
X2110D01*
X2116Y1798D01*
X2141Y1773D01*
X2148Y1769D01*
X2156Y1767D01*
X2156D01*
X2167Y1756D01*
Y1755D01*
X2171Y1746D01*
X2178Y1739D01*
X2187Y1735D01*
X2197D01*
X2203Y1738D01*
X2204Y1736D01*
X2210Y1729D01*
X2177Y1695D01*
X2025D01*
X2024Y1696D01*
X2015Y1700D01*
X2005D01*
X1996Y1696D01*
X1989Y1689D01*
X1988Y1688D01*
X1977Y1686D01*
X1953Y1710D01*
Y1791D01*
X1963Y1793D01*
X1964Y1791D01*
X1971Y1784D01*
X1980Y1780D01*
X1990D01*
X1999Y1784D01*
X2000Y1784D01*
X2010Y1780D01*
Y1760D01*
X2009Y1759D01*
X2005Y1750D01*
Y1740D01*
X2009Y1731D01*
X2016Y1724D01*
X2025Y1720D01*
X2035D01*
X2044Y1724D01*
X2051Y1731D01*
X2055Y1740D01*
Y1750D01*
X2051Y1759D01*
X2050Y1760D01*
Y1808D01*
X2060Y1815D01*
X2070D01*
X2070Y1815D01*
X2080Y1815D01*
X2084Y1806D01*
D02*
G37*
G36*
X1456Y2206D02*
X1462Y2201D01*
X1470Y2200D01*
X1642D01*
X1781Y2060D01*
X1781Y2056D01*
X1778Y2049D01*
X1771Y2046D01*
X1764Y2039D01*
X1760Y2030D01*
Y2020D01*
X1764Y2011D01*
X1771Y2004D01*
X1773Y2003D01*
X1777Y2000D01*
Y1834D01*
X1770Y1830D01*
X1760D01*
X1751Y1826D01*
X1744Y1819D01*
X1740Y1810D01*
Y1800D01*
X1744Y1791D01*
X1751Y1784D01*
X1760Y1780D01*
X1770D01*
X1777Y1776D01*
Y1704D01*
X1746Y1673D01*
X1741Y1671D01*
X1734Y1664D01*
X1732Y1660D01*
X1721Y1657D01*
X1415Y1963D01*
Y2233D01*
X1425Y2237D01*
X1456Y2206D01*
D02*
G37*
G36*
X2671Y1770D02*
X2531Y1630D01*
X2530D01*
X2521Y1626D01*
X2514Y1619D01*
X2510Y1610D01*
Y1602D01*
X2436D01*
X2430Y1609D01*
Y1610D01*
X2426Y1619D01*
X2419Y1626D01*
X2418Y1627D01*
X2421Y1635D01*
Y1636D01*
X2564Y1780D01*
X2667D01*
X2671Y1770D01*
D02*
G37*
G36*
X1986Y1614D02*
X1995Y1612D01*
X2165D01*
X2173Y1605D01*
X2169Y1595D01*
X1988D01*
X1974Y1610D01*
X1980Y1618D01*
X1986Y1614D01*
D02*
G37*
G36*
X2245Y1329D02*
Y1255D01*
X2246Y1247D01*
X2251Y1241D01*
X2298Y1193D01*
X2294Y1183D01*
X2125D01*
X2003Y1304D01*
X2010Y1312D01*
X2011Y1311D01*
X2019Y1310D01*
X2199D01*
X2207Y1311D01*
X2213Y1316D01*
X2233Y1336D01*
X2234D01*
X2235Y1336D01*
X2245Y1329D01*
D02*
G37*
G36*
X1865Y1977D02*
Y1670D01*
X1866Y1662D01*
X1871Y1656D01*
X1966Y1561D01*
X1972Y1556D01*
X1980Y1555D01*
X2215D01*
X2216Y1554D01*
X2225Y1550D01*
X2235D01*
X2244Y1554D01*
X2251Y1561D01*
X2258Y1562D01*
X2262Y1560D01*
X2264Y1556D01*
X2271Y1549D01*
X2280Y1545D01*
X2290D01*
X2299Y1549D01*
X2306Y1556D01*
X2310Y1565D01*
Y1575D01*
X2306Y1584D01*
X2299Y1591D01*
X2294Y1593D01*
X2261Y1626D01*
X2261Y1627D01*
X2257Y1630D01*
X2261Y1639D01*
Y1647D01*
X2335Y1720D01*
X2345Y1716D01*
Y1614D01*
X2346Y1606D01*
X2351Y1599D01*
X2446Y1504D01*
X2444Y1492D01*
X2442Y1491D01*
X2435Y1484D01*
X2431Y1475D01*
Y1465D01*
X2435Y1456D01*
X2442Y1449D01*
X2451Y1445D01*
X2461D01*
X2470Y1449D01*
X2477Y1456D01*
X2478Y1458D01*
X2490Y1460D01*
X2519Y1431D01*
X2519Y1431D01*
X2526Y1426D01*
X2534Y1425D01*
X2534Y1425D01*
X2990D01*
X2991Y1424D01*
X3000Y1420D01*
X3007D01*
X3012Y1411D01*
X3012Y1411D01*
X2946Y1344D01*
X2941Y1338D01*
X2940Y1330D01*
Y1265D01*
X2939Y1264D01*
X2935Y1255D01*
Y1245D01*
X2939Y1236D01*
X2943Y1231D01*
X2900Y1188D01*
X2465D01*
X2460Y1190D01*
X2450D01*
X2441Y1186D01*
X2434Y1179D01*
X2430Y1170D01*
Y1160D01*
X2423Y1150D01*
X2398D01*
X2285Y1263D01*
Y1440D01*
X2286Y1441D01*
X2290Y1450D01*
Y1460D01*
X2286Y1469D01*
X2279Y1476D01*
X2270Y1480D01*
X2260D01*
X2251Y1476D01*
X2244Y1469D01*
X2240Y1460D01*
Y1450D01*
X2244Y1441D01*
X2245Y1440D01*
Y1392D01*
X2235Y1385D01*
X2234Y1386D01*
X2234D01*
X2225Y1390D01*
Y1400D01*
X2221Y1409D01*
X2214Y1416D01*
X2205Y1420D01*
X2195D01*
X2186Y1416D01*
X2185Y1415D01*
X2155D01*
X2147Y1414D01*
X2141Y1409D01*
X2116Y1385D01*
X2115D01*
X2106Y1381D01*
X2099Y1374D01*
X2095Y1365D01*
Y1355D01*
X2092Y1350D01*
X2028D01*
X1762Y1616D01*
X1765Y1627D01*
X1769Y1629D01*
X1776Y1636D01*
X1778Y1641D01*
X1816Y1678D01*
X1821Y1686D01*
X1822Y1694D01*
Y2005D01*
X1832Y2009D01*
X1865Y1977D01*
D02*
G37*
G36*
X3712Y1146D02*
Y1095D01*
X3710Y1090D01*
Y1080D01*
X3712Y1075D01*
X3706Y1065D01*
X3632D01*
X3629Y1075D01*
X3699Y1146D01*
X3702Y1150D01*
X3712Y1146D01*
D02*
G37*
%LPC*%
G36*
X4110Y2780D02*
X4100D01*
X4091Y2776D01*
X4087Y2772D01*
X4085Y2772D01*
X4079Y2768D01*
X3981Y2670D01*
X3980D01*
X3971Y2666D01*
X3964Y2659D01*
X3960Y2650D01*
Y2640D01*
X3964Y2631D01*
X3971Y2624D01*
X3980Y2620D01*
X3990D01*
X3999Y2624D01*
X4006Y2631D01*
X4010Y2640D01*
Y2641D01*
X4099Y2730D01*
X4100Y2730D01*
X4110D01*
X4119Y2734D01*
X4126Y2741D01*
X4130Y2750D01*
Y2760D01*
X4126Y2769D01*
X4119Y2776D01*
X4110Y2780D01*
D02*
G37*
G36*
X2830Y2055D02*
X2820D01*
X2811Y2051D01*
X2804Y2044D01*
X2800Y2035D01*
Y2034D01*
X2741Y1975D01*
X2740D01*
X2731Y1971D01*
X2724Y1964D01*
X2720Y1955D01*
Y1945D01*
X2724Y1936D01*
X2731Y1929D01*
X2740Y1925D01*
X2750D01*
X2759Y1929D01*
X2766Y1936D01*
X2770Y1945D01*
Y1946D01*
X2829Y2005D01*
X2830D01*
X2839Y2009D01*
X2846Y2016D01*
X2850Y2025D01*
Y2035D01*
X2846Y2044D01*
X2839Y2051D01*
X2830Y2055D01*
D02*
G37*
G36*
X3000Y1885D02*
X2990D01*
X2981Y1881D01*
X2974Y1874D01*
X2970Y1865D01*
Y1855D01*
X2974Y1846D01*
X2981Y1839D01*
X2990Y1835D01*
X3000D01*
X3009Y1839D01*
X3010Y1840D01*
X3071D01*
X3077Y1830D01*
X3075Y1825D01*
Y1815D01*
X3079Y1806D01*
X3086Y1799D01*
X3095Y1795D01*
X3105D01*
X3114Y1799D01*
X3121Y1806D01*
X3125Y1815D01*
Y1819D01*
X3127Y1821D01*
X3135Y1826D01*
X3140Y1825D01*
X3181D01*
X3183Y1822D01*
X3184Y1815D01*
X3179Y1809D01*
X3175Y1800D01*
Y1790D01*
X3179Y1781D01*
X3186Y1774D01*
X3195Y1770D01*
X3205D01*
X3214Y1774D01*
X3215Y1775D01*
X3227D01*
X3245Y1756D01*
Y1755D01*
X3249Y1746D01*
X3256Y1739D01*
X3265Y1735D01*
X3275D01*
X3284Y1739D01*
X3291Y1746D01*
X3295Y1755D01*
Y1765D01*
X3291Y1774D01*
X3284Y1781D01*
X3275Y1785D01*
X3274D01*
X3249Y1809D01*
X3243Y1814D01*
X3239Y1815D01*
X3240Y1825D01*
X3255D01*
X3256Y1824D01*
X3265Y1820D01*
X3275D01*
X3284Y1824D01*
X3291Y1831D01*
X3295Y1840D01*
Y1850D01*
X3291Y1859D01*
X3284Y1866D01*
X3275Y1870D01*
X3265D01*
X3256Y1866D01*
X3255Y1865D01*
X3148D01*
X3139Y1874D01*
X3133Y1879D01*
X3125Y1880D01*
X3010D01*
X3009Y1881D01*
X3000Y1885D01*
D02*
G37*
G36*
X3238Y1490D02*
X3225D01*
X3223Y1490D01*
X3220D01*
X3218Y1489D01*
X3215Y1489D01*
X3213Y1487D01*
X3211Y1486D01*
X3209Y1484D01*
X3207Y1483D01*
X3206Y1481D01*
X3204Y1479D01*
X3203Y1477D01*
X3201Y1475D01*
X3201Y1472D01*
X3200Y1470D01*
Y1467D01*
X3200Y1465D01*
X3200Y1463D01*
Y1460D01*
X3201Y1458D01*
X3201Y1455D01*
X3203Y1453D01*
X3204Y1451D01*
X3206Y1449D01*
X3207Y1447D01*
X3209Y1446D01*
X3211Y1444D01*
X3213Y1443D01*
X3215Y1441D01*
X3218Y1441D01*
X3220Y1440D01*
X3223D01*
X3225Y1440D01*
X3228D01*
X3320Y1347D01*
Y1214D01*
X3322Y1205D01*
X3328Y1196D01*
X3372Y1152D01*
X3374Y1151D01*
X3376Y1149D01*
X3378Y1148D01*
X3380Y1146D01*
X3383Y1146D01*
X3385Y1145D01*
X3388D01*
X3390Y1145D01*
X3392Y1145D01*
X3395D01*
X3397Y1146D01*
X3400Y1146D01*
X3402Y1148D01*
X3404Y1149D01*
X3406Y1151D01*
X3408Y1152D01*
X3409Y1154D01*
X3411Y1156D01*
X3412Y1158D01*
X3414Y1160D01*
X3414Y1163D01*
X3415Y1165D01*
Y1168D01*
X3415Y1170D01*
X3415Y1172D01*
Y1175D01*
X3414Y1177D01*
X3414Y1180D01*
X3412Y1182D01*
X3411Y1184D01*
X3409Y1186D01*
X3408Y1188D01*
X3371Y1225D01*
Y1358D01*
X3369Y1367D01*
X3364Y1376D01*
X3256Y1483D01*
X3248Y1489D01*
X3238Y1490D01*
D02*
G37*
G36*
X1630Y2040D02*
X1620D01*
X1611Y2036D01*
X1604Y2029D01*
X1600Y2020D01*
Y2010D01*
X1604Y2001D01*
X1611Y1994D01*
X1620Y1990D01*
X1630D01*
X1639Y1994D01*
X1646Y2001D01*
X1650Y2010D01*
Y2020D01*
X1646Y2029D01*
X1639Y2036D01*
X1630Y2040D01*
D02*
G37*
G36*
X2575Y1760D02*
X2565D01*
X2556Y1756D01*
X2549Y1749D01*
X2545Y1740D01*
Y1730D01*
X2549Y1721D01*
X2556Y1714D01*
X2565Y1710D01*
X2575D01*
X2584Y1714D01*
X2591Y1721D01*
X2595Y1730D01*
Y1740D01*
X2591Y1749D01*
X2584Y1756D01*
X2575Y1760D01*
D02*
G37*
G36*
X1990Y1495D02*
X1980D01*
X1971Y1491D01*
X1964Y1484D01*
X1960Y1475D01*
Y1465D01*
X1964Y1456D01*
X1971Y1449D01*
X1980Y1445D01*
X1990D01*
X1999Y1449D01*
X2006Y1456D01*
X2010Y1465D01*
Y1475D01*
X2006Y1484D01*
X1999Y1491D01*
X1990Y1495D01*
D02*
G37*
G36*
X2480Y1290D02*
X2470D01*
X2461Y1286D01*
X2460Y1285D01*
X2393D01*
X2393Y1285D01*
X2387Y1284D01*
X2379D01*
X2370Y1280D01*
X2363Y1273D01*
X2359Y1264D01*
Y1254D01*
X2363Y1245D01*
X2370Y1238D01*
X2379Y1234D01*
X2389D01*
X2398Y1238D01*
X2405Y1245D01*
X2460D01*
X2461Y1244D01*
X2470Y1240D01*
X2480D01*
X2489Y1244D01*
X2496Y1251D01*
X2500Y1260D01*
Y1270D01*
X2496Y1279D01*
X2489Y1286D01*
X2480Y1290D01*
D02*
G37*
%LPD*%
D12*
X1765Y3525D02*
X1780Y3540D01*
X1090Y3525D02*
X1765D01*
X1065Y3500D02*
X1090Y3525D01*
X3204Y3360D02*
X3206Y3358D01*
X3156Y3360D02*
X3204D01*
X3156D02*
Y3391D01*
X3180Y3415D01*
X3109Y3360D02*
X3156D01*
X3206Y3358D02*
X3207D01*
X1065Y3240D02*
Y3500D01*
X3971Y1140D02*
X3990D01*
X3945Y1114D02*
X3971Y1140D01*
X3280Y1060D02*
X3300Y1040D01*
X3920D01*
X3945Y1065D01*
Y1114D01*
X3346Y1214D02*
Y1358D01*
Y1214D02*
X3390Y1170D01*
X1395Y1060D02*
X3280D01*
X1110Y1345D02*
X1395Y1060D01*
X3238Y1465D02*
X3346Y1358D01*
X3225Y1465D02*
X3238D01*
X1110Y1345D02*
Y2510D01*
X1240Y2640D01*
Y3065D01*
X1065Y3240D02*
X1240Y3065D01*
X2743Y3645D02*
X2880Y3508D01*
Y3365D02*
Y3508D01*
Y3365D02*
X2935Y3310D01*
X4180Y2685D02*
Y2915D01*
X4315Y3050D01*
X4262Y2697D02*
X4468D01*
X4515Y2650D01*
X4215D02*
X4262Y2697D01*
X4180Y2685D02*
X4215Y2650D01*
X3304Y3398D02*
X3309D01*
X3057Y3645D02*
X3304Y3398D01*
X2976Y3288D02*
X3009Y3321D01*
Y3322D01*
X3010Y3323D01*
X3011D01*
X2935Y3310D02*
X2957Y3288D01*
X2976D01*
X2978Y3429D02*
X3009Y3398D01*
X2935Y3403D02*
X2962Y3429D01*
X2978D01*
D13*
X3674Y3345D02*
X3687D01*
X3701Y3360D02*
X3717D01*
X3687Y3345D02*
X3701Y3360D01*
X5585Y2325D02*
Y2455D01*
X5328Y2068D02*
X5585Y2325D01*
X3889Y2068D02*
X5328D01*
X3648Y2388D02*
X3712Y2452D01*
X3499Y2388D02*
X3648D01*
X3712Y2452D02*
X3882D01*
X3172Y2061D02*
X3499Y2388D01*
X3730Y2488D02*
X3862D01*
X3485Y2425D02*
X3570Y2510D01*
X3593Y2493D02*
X3725D01*
X3570Y2510D02*
X3830D01*
X3725Y2493D02*
X3730Y2488D01*
X3505Y2405D02*
X3593Y2493D01*
X2225Y1750D02*
Y1775D01*
X2165Y1835D02*
X2225Y1775D01*
X2010Y1675D02*
X2185D01*
X2285Y1775D01*
X3460Y2885D02*
Y2990D01*
X3075Y2500D02*
X3460Y2885D01*
X2956Y2371D02*
Y2801D01*
X2238Y1653D02*
X2956Y2371D01*
X2215Y1665D02*
X2217Y1667D01*
X2224D01*
X2238Y1646D02*
Y1653D01*
X2236Y1644D02*
X2238Y1646D01*
X2936Y2381D02*
Y2809D01*
Y2381D02*
X2937Y2380D01*
X2224Y1667D02*
X2937Y2380D01*
X2405Y1605D02*
X2428Y1582D01*
X2534Y1445D02*
X3005D01*
X2428Y1582D02*
X2572D01*
X2365Y1614D02*
Y1740D01*
Y1614D02*
X2534Y1445D01*
X1150Y3280D02*
X1285D01*
X1462Y3457D01*
X2019Y1330D02*
X2199D01*
X2229Y1361D01*
X3860Y2640D02*
Y3340D01*
X3940Y3420D01*
X3465Y2425D02*
X3485D01*
X3353Y2368D02*
X3408D01*
X3465Y2425D01*
X3234Y2198D02*
X3234D01*
X3150Y2122D02*
X3158D01*
X3234Y2198D01*
X3148Y2120D02*
X3150Y2122D01*
X3260Y2224D02*
Y2275D01*
X3353Y2368D01*
X3234Y2198D02*
X3260Y2224D01*
X3472Y3259D02*
X3503D01*
X3626Y3382D01*
X3674D01*
X3472Y3259D02*
Y3351D01*
X3452Y3142D02*
Y3175D01*
X3472Y3134D02*
Y3259D01*
X3448Y3550D02*
X3451Y3547D01*
X3471Y3547D02*
X3474Y3550D01*
X3451Y3344D02*
Y3547D01*
X3452Y3175D02*
Y3343D01*
X3471Y3352D02*
Y3547D01*
X3500Y3170D02*
Y3231D01*
X3576Y3308D01*
X3674D01*
X3303Y2965D02*
X3472Y3134D01*
X3295Y2985D02*
X3452Y3142D01*
X3471Y3352D02*
X3472Y3351D01*
X3451Y3344D02*
X3452Y3343D01*
X3587Y1062D02*
X3685Y1160D01*
X3328Y1062D02*
X3587D01*
X3260Y1130D02*
X3328Y1062D01*
X2265Y1255D02*
X2390Y1130D01*
X3260D01*
X2265Y1255D02*
Y1455D01*
X3685Y1160D02*
Y2250D01*
X2960Y1330D02*
X3065Y1435D01*
X3337Y1663D02*
Y1668D01*
Y1663D02*
X3380Y1620D01*
X3335Y1670D02*
X3337Y1668D01*
X2745Y1950D02*
X2825Y2030D01*
X1365Y3490D02*
X1640D01*
X1225Y3350D02*
X1365Y3490D01*
X1418Y2272D02*
X1470Y2220D01*
X1650D02*
X1885Y1985D01*
X1470Y2220D02*
X1650D01*
X1418Y2272D02*
Y2598D01*
X1673Y2367D02*
X2030Y2010D01*
Y1745D02*
Y2010D01*
X1985Y1805D02*
Y2010D01*
X1680Y2315D02*
X1985Y2010D01*
X3065Y1435D02*
Y1540D01*
X3140Y1845D02*
X3270D01*
X3125Y1860D02*
X3140Y1845D01*
X2995Y1860D02*
X3125D01*
X2925Y2150D02*
Y2290D01*
X2982Y2347D01*
X3270Y1645D02*
X3331Y1706D01*
X2690Y1645D02*
X3270D01*
X3331Y1706D02*
Y1706D01*
X3385Y1760D01*
X3200Y1795D02*
X3235D01*
X3270Y1760D01*
X3855Y1915D02*
X3910Y1860D01*
X3960D01*
X1462Y3457D02*
X1693D01*
X1695Y3455D01*
X2990Y2780D02*
X3010Y2760D01*
Y2205D02*
Y2760D01*
X3045Y2550D02*
X3400Y2905D01*
X3045Y2170D02*
Y2550D01*
X2675Y1800D02*
X3045Y2170D01*
X2535Y1605D02*
X3075Y2145D01*
Y2500D01*
X2982Y2347D02*
Y2715D01*
X2990Y2185D02*
X3010Y2205D01*
X2936Y2809D02*
X3112Y2985D01*
X2956Y2801D02*
X3120Y2965D01*
X3143Y2213D02*
X3145Y2215D01*
Y2470D01*
X3430Y2247D02*
Y2250D01*
Y2247D02*
X3440Y2237D01*
Y2090D02*
Y2237D01*
X3150Y2061D02*
X3172D01*
X3445Y2299D02*
X3459Y2285D01*
Y2274D02*
X3465Y2268D01*
X3148Y2059D02*
X3150Y2061D01*
X3459Y2274D02*
Y2285D01*
X3445Y2299D02*
Y2302D01*
X3395Y2213D02*
Y2216D01*
Y2213D02*
X3400Y2208D01*
Y2115D02*
Y2208D01*
X3112Y2985D02*
X3295D01*
X3120Y2965D02*
X3303D01*
X3465Y2000D02*
Y2268D01*
X3495Y1990D02*
Y2325D01*
X3280Y2260D02*
X3365Y2345D01*
X3280Y2210D02*
Y2260D01*
X3161Y2091D02*
X3280Y2210D01*
X3215Y2431D02*
X3549Y2765D01*
X3215Y2210D02*
Y2431D01*
X3150Y2091D02*
X3161D01*
X3148Y2089D02*
X3150Y2091D01*
X3175Y2415D02*
X3560Y2800D01*
X3175Y2205D02*
Y2415D01*
X3145Y2470D02*
X3470Y2795D01*
X1885Y1670D02*
Y1985D01*
X2960Y1250D02*
Y1330D01*
X3935Y2355D02*
X3975Y2395D01*
X3855Y2355D02*
X3935D01*
X3879Y2505D02*
X3880D01*
X3862Y2488D02*
X3879Y2505D01*
X3899Y2435D02*
X3900D01*
X3882Y2452D02*
X3899Y2435D01*
X4103Y2753D02*
X4105Y2755D01*
X4093Y2753D02*
X4103D01*
X3985Y2645D02*
X4093Y2753D01*
X3475Y2405D02*
X3505D01*
X3415Y2345D02*
X3475Y2405D01*
X3365Y2345D02*
X3415D01*
X4081Y2861D02*
Y3183D01*
X3900Y2635D02*
Y2680D01*
X4081Y2861D01*
X4329Y3430D02*
X4460D01*
X4081Y3183D02*
X4329Y3430D01*
X2911Y2401D02*
Y2477D01*
X2911Y2477D01*
X2910Y2400D02*
X2911Y2401D01*
X3640Y2795D02*
Y2890D01*
X3600Y2930D02*
X3640Y2890D01*
X3610Y2765D02*
X3640Y2795D01*
X3549Y2765D02*
X3610D01*
X3560Y2800D02*
X3600D01*
X2670Y2185D02*
Y2275D01*
X2425Y1940D02*
X2670Y2185D01*
X2605Y2165D02*
Y2305D01*
X3470Y2795D02*
X3505D01*
X3105Y2480D02*
X3525Y2900D01*
X3105Y2115D02*
Y2480D01*
X3525Y2900D02*
Y2990D01*
X3560Y2325D02*
X3670D01*
X3875Y2120D01*
Y2120D02*
X4619D01*
X2164Y1787D02*
X2192Y1760D01*
X2156Y1787D02*
X2164D01*
X2130Y1813D02*
X2156Y1787D01*
X2447Y1997D02*
Y2007D01*
X2605Y2165D01*
X2445Y1995D02*
X2447Y1997D01*
X2060Y2020D02*
Y2050D01*
Y2020D02*
X2076Y2004D01*
Y1971D02*
Y2004D01*
X2065Y1960D02*
X2076Y1971D01*
X2165Y1960D02*
X2180Y1975D01*
Y2010D01*
X2115Y1976D02*
Y2035D01*
X2105Y1966D02*
X2115Y1976D01*
X2138Y1983D02*
X2140Y1985D01*
X2138Y1968D02*
Y1983D01*
X2130Y1960D02*
X2138Y1968D01*
X2105Y1820D02*
Y1966D01*
X2130Y1813D02*
Y1960D01*
X2065Y1840D02*
Y1960D01*
X2165Y1835D02*
Y1960D01*
X3443Y1282D02*
Y1953D01*
X3442Y1955D02*
X3443Y1953D01*
Y1282D02*
X3445Y1280D01*
X2572Y1582D02*
X3105Y2115D01*
X1629Y2315D02*
X1680D01*
X1673Y2367D02*
Y2422D01*
X1610Y2485D02*
X1673Y2422D01*
X1420Y2985D02*
X1579D01*
X1345Y2910D02*
X1420Y2985D01*
X1550Y2426D02*
Y2480D01*
Y2426D02*
X1573Y2403D01*
Y2371D02*
Y2403D01*
Y2371D02*
X1629Y2315D01*
X1418Y2598D02*
X1715Y2895D01*
X1885Y1670D02*
X1980Y1575D01*
X2230D01*
X1395Y1954D02*
Y2266D01*
X1315Y2346D02*
X1395Y2266D01*
Y1954D02*
X2019Y1330D01*
X2120Y1360D02*
X2155Y1395D01*
X2200D01*
X2384Y1259D02*
X2387D01*
X2393Y1265D01*
X2475D01*
X3495Y1990D02*
X3525Y1960D01*
X4686Y2316D02*
X4755Y2385D01*
X4686Y2187D02*
Y2316D01*
X4619Y2120D02*
X4686Y2187D01*
X2396Y1640D02*
X2556Y1800D01*
X2675D01*
X3400Y2905D02*
Y2990D01*
D17*
X2560Y2910D02*
X2880D01*
X2990Y3020D01*
X1875Y2855D02*
X2045D01*
X2095Y2905D01*
X3044Y3080D02*
X3045Y3081D01*
Y3200D01*
X2370Y2875D02*
X2505Y2740D01*
X2260Y3170D02*
X2370Y3060D01*
Y2875D02*
Y3060D01*
X2505Y2740D02*
X2550D01*
X2580Y2770D01*
X1685Y3170D02*
X2260D01*
X1570Y3285D02*
X1685Y3170D01*
X1400Y3205D02*
X1485Y3290D01*
X1240Y3205D02*
X1400D01*
X1520Y3220D02*
Y3390D01*
X3751Y3332D02*
X3763Y3345D01*
X3744Y3332D02*
X3751D01*
X3721Y3310D02*
X3744Y3332D01*
X3763Y3345D02*
X3776D01*
X3720Y3310D02*
X3721D01*
X3186Y3210D02*
X3215Y3181D01*
X3146Y3210D02*
X3186D01*
X3136Y3200D02*
X3146Y3210D01*
X3135Y3200D02*
X3136D01*
X3505Y1084D02*
Y1926D01*
X3810Y1075D02*
Y2084D01*
X3735Y1085D02*
Y2109D01*
X3740Y2114D01*
X3810Y2084D02*
X3815Y2089D01*
X3740Y2114D02*
Y2115D01*
X3815Y2089D02*
Y2090D01*
X3405Y2025D02*
X3455Y1975D01*
X3456D02*
X3505Y1926D01*
X3017Y1272D02*
Y1347D01*
X3065Y1395D01*
X3405Y2025D02*
Y2065D01*
X1785Y2024D02*
Y2025D01*
Y2024D02*
X1799Y2009D01*
Y1694D02*
Y2009D01*
X1755Y1650D02*
X1799Y1694D01*
X1745Y1535D02*
X1746Y1534D01*
Y1529D02*
Y1534D01*
Y1529D02*
X2115Y1160D01*
X2315D01*
X2455Y1165D02*
X2910D01*
X3017Y1272D01*
X3890Y2575D02*
X4095D01*
X3770Y2696D02*
X3890Y2575D01*
X3770Y2696D02*
Y3000D01*
X3535Y3235D02*
X3770Y3000D01*
X3350Y2535D02*
X4300D01*
X4415Y2650D01*
X3730Y2415D02*
X3745Y2400D01*
X3900D01*
X3960Y2460D01*
X4625D02*
X4815Y2650D01*
X3960Y2460D02*
X4625D01*
X4915Y3050D02*
X5215Y3350D01*
X5305D01*
X4775Y3210D02*
Y3370D01*
X4615Y3050D02*
X4775Y3210D01*
X4470Y3105D02*
Y3360D01*
X4415Y3050D02*
X4470Y3105D01*
X4240Y2835D02*
X4500D01*
X4715Y3050D01*
X4815D02*
X4855Y3090D01*
Y3300D01*
X4925Y3370D01*
X4215Y3050D02*
Y3245D01*
X3715Y2730D02*
X3745Y2700D01*
X3600Y2730D02*
X3715D01*
X4330Y2945D02*
X4495D01*
X2245Y1610D02*
X2285Y1570D01*
X2200Y1610D02*
X2245D01*
X2175Y1635D02*
X2200Y1610D01*
X1930Y1700D02*
X1995Y1635D01*
X2175D01*
X1930Y1700D02*
Y2005D01*
X3455Y1975D02*
X3456D01*
X1675Y2260D02*
X1930Y2005D01*
X1490Y2260D02*
X1675D01*
X1455Y2295D02*
Y2450D01*
X1672Y2607D02*
X1870Y2805D01*
X1612Y2607D02*
X1672D01*
X1455Y2450D02*
X1612Y2607D01*
X1455Y2295D02*
X1490Y2260D01*
X3309Y3316D02*
X3340Y3286D01*
X3352D01*
X3423Y3356D01*
X3181Y3054D02*
X3215Y3089D01*
X3162Y3054D02*
X3181D01*
X3136Y3080D02*
X3162Y3054D01*
X3306Y3320D02*
X3309Y3317D01*
X3305Y3320D02*
X3306D01*
X3309Y3316D02*
Y3317D01*
Y3398D02*
Y3399D01*
X3340Y3430D01*
X3356D02*
X3380Y3406D01*
X3340Y3430D02*
X3356D01*
X3423Y3356D02*
Y3550D01*
X1430Y3130D02*
X1520Y3220D01*
X1865Y2695D02*
X1865D01*
X1888Y2672D02*
X1898D01*
X1865Y2695D02*
X1888Y2672D01*
X1898D02*
X1920Y2650D01*
Y2390D02*
Y2650D01*
D20*
X3044Y3080D02*
D03*
X3136D02*
D03*
D21*
X3215Y3181D02*
D03*
Y3089D02*
D03*
X3380Y3314D02*
D03*
Y3406D02*
D03*
X2935Y3403D02*
D03*
Y3310D02*
D03*
D51*
X5830Y1335D02*
D03*
X5190Y2179D02*
D03*
Y1982D02*
D03*
Y1785D02*
D03*
Y1588D02*
D03*
Y1391D02*
D03*
Y1194D02*
D03*
X3895Y2174D02*
D03*
Y1977D02*
D03*
Y1780D02*
D03*
Y1583D02*
D03*
Y1386D02*
D03*
Y1189D02*
D03*
X5830Y1729D02*
D03*
Y1532D02*
D03*
D55*
X3309Y3655D02*
D03*
X3638D02*
D03*
D56*
X3561Y3537D02*
D03*
X3386D02*
D03*
D64*
X1315Y2346D02*
D03*
Y2425D02*
D03*
Y2504D02*
D03*
D65*
Y2264D02*
D03*
Y2586D02*
D03*
D68*
X3309Y3655D02*
X3474D01*
X3638D01*
X2840Y3635D02*
Y3670D01*
X3011Y3397D02*
X3034Y3420D01*
Y3441D01*
X2840Y3635D02*
X3034Y3441D01*
X2840Y3670D02*
X2882Y3712D01*
X3651D01*
X3760Y3603D01*
Y3440D02*
Y3603D01*
X3895Y1977D02*
X3897Y1975D01*
X4025D01*
D69*
X1382Y1354D02*
Y1846D01*
D70*
X1578Y1354D02*
D03*
Y1846D02*
D03*
X1382D02*
D03*
D71*
X4162Y3560D02*
D03*
X5830Y2268D02*
D03*
X5587Y3200D02*
D03*
D72*
X5783D02*
D03*
X3965Y3560D02*
D03*
D73*
X5830Y2072D02*
D03*
D74*
X2979Y3645D02*
D03*
X2900D02*
D03*
X3057D02*
D03*
X5645Y2720D02*
D03*
Y2976D02*
D03*
D75*
X2658Y3645D02*
D03*
X3142D02*
D03*
D76*
X2743D02*
D03*
D77*
X1520Y2390D02*
D03*
X1620D02*
D03*
X1720D02*
D03*
X1820D02*
D03*
X1920D02*
D03*
X2020D02*
D03*
X2120D02*
D03*
X2220D02*
D03*
X2320D02*
D03*
X2420D02*
D03*
X2520D02*
D03*
X2620D02*
D03*
X2720D02*
D03*
X1520Y3390D02*
D03*
X1620D02*
D03*
X1720D02*
D03*
X1820D02*
D03*
X1920D02*
D03*
X2020D02*
D03*
X2120D02*
D03*
X2220D02*
D03*
X2320D02*
D03*
X2420D02*
D03*
X2520D02*
D03*
X2620D02*
D03*
X2720D02*
D03*
D78*
X4915Y3050D02*
D03*
D79*
X4815D02*
D03*
X4715D02*
D03*
X4615D02*
D03*
X4515D02*
D03*
X4415D02*
D03*
X4315D02*
D03*
X4215D02*
D03*
Y2650D02*
D03*
X4315D02*
D03*
X4415D02*
D03*
X4515D02*
D03*
X4615D02*
D03*
X4715D02*
D03*
X4815D02*
D03*
X4915D02*
D03*
D80*
X1382Y1354D02*
D03*
D81*
X2560Y2910D02*
D03*
X2990Y3020D02*
D03*
X1990Y1530D02*
D03*
X2211Y1974D02*
D03*
X2620Y1320D02*
D03*
X2550Y1695D02*
D03*
X2655Y1835D02*
D03*
X1230Y2215D02*
D03*
X1875Y2855D02*
D03*
X1128Y2890D02*
D03*
X1420Y3020D02*
D03*
X2215Y2245D02*
D03*
X2095Y2905D02*
D03*
X2245Y3630D02*
D03*
X2590Y3140D02*
D03*
X3105Y1350D02*
D03*
X3020Y1600D02*
D03*
X3225Y1385D02*
D03*
X3215Y1880D02*
D03*
X3270Y1395D02*
D03*
X3265Y2930D02*
D03*
X3295Y3090D02*
D03*
X4205Y2565D02*
D03*
X6055Y3000D02*
D03*
X3410Y3255D02*
D03*
X4270Y3340D02*
D03*
X4560Y3345D02*
D03*
X4830Y3340D02*
D03*
X3840Y3350D02*
D03*
X2375Y1565D02*
D03*
X2575Y1370D02*
D03*
X2450Y1300D02*
D03*
X2040Y1190D02*
D03*
X2130D02*
D03*
X2190D02*
D03*
X5100Y3350D02*
D03*
X1435Y2205D02*
D03*
X3717Y3360D02*
D03*
X3685Y2355D02*
D03*
X3405Y1860D02*
D03*
X3045Y3200D02*
D03*
X5585Y2455D02*
D03*
X4775Y2115D02*
D03*
X3100Y1820D02*
D03*
X3660Y3050D02*
D03*
X3300Y2575D02*
D03*
X3565Y3375D02*
D03*
X2225Y1750D02*
D03*
X3230Y2775D02*
D03*
X1530Y1205D02*
D03*
X1625Y2015D02*
D03*
X4994Y3565D02*
D03*
X3485Y2940D02*
D03*
X4560Y3550D02*
D03*
X1765Y1805D02*
D03*
X1950Y2695D02*
D03*
X2527Y1560D02*
D03*
X2236Y1644D02*
D03*
X2215Y1665D02*
D03*
X2405Y1605D02*
D03*
X3420Y1545D02*
D03*
X3215Y3565D02*
D03*
X3055D02*
D03*
X2580Y2770D02*
D03*
X1570Y3285D02*
D03*
X1485Y3290D02*
D03*
X1240Y3205D02*
D03*
X2229Y1361D02*
D03*
X4055Y3580D02*
D03*
X3720Y3310D02*
D03*
X3135Y3200D02*
D03*
X5355Y2470D02*
D03*
X4325Y2175D02*
D03*
X4235Y1935D02*
D03*
X4230Y1735D02*
D03*
X4235Y1535D02*
D03*
X4230Y1340D02*
D03*
X4235Y1235D02*
D03*
X3500Y2475D02*
D03*
X4040Y2405D02*
D03*
X3400Y2475D02*
D03*
X3450D02*
D03*
X2500Y3140D02*
D03*
X2054Y1986D02*
D03*
X3005Y1960D02*
D03*
X2955Y1910D02*
D03*
X1885Y3690D02*
D03*
X1110Y3450D02*
D03*
X1910Y2275D02*
D03*
X1065Y2720D02*
D03*
X2570Y1735D02*
D03*
X2456Y1470D02*
D03*
X1985D02*
D03*
X1955Y1130D02*
D03*
X3180Y3415D02*
D03*
X3505Y1084D02*
D03*
X3940Y3420D02*
D03*
X3148Y2120D02*
D03*
X3860Y2640D02*
D03*
X3830Y2510D02*
D03*
X3990Y1140D02*
D03*
X3450Y3175D02*
D03*
X3500Y3170D02*
D03*
X3810Y1075D02*
D03*
X3735Y1085D02*
D03*
X3390Y1170D02*
D03*
X3225Y1465D02*
D03*
X1780Y3540D02*
D03*
X1150Y3280D02*
D03*
X3005Y1445D02*
D03*
X3065Y1395D02*
D03*
X3335Y1670D02*
D03*
X3380Y1620D02*
D03*
X2825Y2030D02*
D03*
X1640Y3490D02*
D03*
X2030Y1745D02*
D03*
X1985Y1805D02*
D03*
X3065Y1540D02*
D03*
X2995Y1860D02*
D03*
X2925Y2150D02*
D03*
X3385Y1760D02*
D03*
X3200Y1795D02*
D03*
X3270Y1760D02*
D03*
X3855Y1915D02*
D03*
X3960Y1860D02*
D03*
X1695Y3455D02*
D03*
X2990Y2185D02*
D03*
X3143Y2213D02*
D03*
X2982Y2715D02*
D03*
X3430Y2250D02*
D03*
X3440Y2090D02*
D03*
X3445Y2302D02*
D03*
X1225Y3350D02*
D03*
X2990Y2780D02*
D03*
X3395Y2216D02*
D03*
X3400Y2115D02*
D03*
X3495Y2325D02*
D03*
X3215Y2210D02*
D03*
X3175Y2205D02*
D03*
X3405Y2065D02*
D03*
X1785Y2025D02*
D03*
X1755Y1650D02*
D03*
X1745Y1535D02*
D03*
X2315Y1160D02*
D03*
X2455Y1165D02*
D03*
X4095Y2575D02*
D03*
X3535Y3235D02*
D03*
X3855Y2355D02*
D03*
X3730Y2415D02*
D03*
X3880Y2505D02*
D03*
X3900Y2435D02*
D03*
X3975Y2395D02*
D03*
X4105Y2755D02*
D03*
X3985Y2645D02*
D03*
X3148Y2089D02*
D03*
X5305Y3350D02*
D03*
X4775Y3370D02*
D03*
X4470Y3360D02*
D03*
X3350Y2535D02*
D03*
X4240Y2835D02*
D03*
X4925Y3370D02*
D03*
X4215Y3245D02*
D03*
X3600Y2730D02*
D03*
X3745Y2700D02*
D03*
X4460Y3430D02*
D03*
X3900Y2635D02*
D03*
X2910Y2400D02*
D03*
X2911Y2477D02*
D03*
X2285Y1775D02*
D03*
X2365Y1740D02*
D03*
X3600Y2930D02*
D03*
Y2800D02*
D03*
X2670Y2275D02*
D03*
X2605Y2305D02*
D03*
X3505Y2795D02*
D03*
X3560Y2325D02*
D03*
X3685Y2250D02*
D03*
X3148Y2059D02*
D03*
X2192Y1760D02*
D03*
X2745Y1950D02*
D03*
X2060Y2050D02*
D03*
X2180Y2010D02*
D03*
X2115Y2035D02*
D03*
X2140Y1985D02*
D03*
X2425Y1940D02*
D03*
X2445Y1995D02*
D03*
X2065Y1840D02*
D03*
X2105Y1820D02*
D03*
X2010Y1675D02*
D03*
X3442Y1955D02*
D03*
X3465Y2000D02*
D03*
X4025Y1975D02*
D03*
X3815Y2090D02*
D03*
X3740Y2115D02*
D03*
X1610Y2485D02*
D03*
X1579Y2985D02*
D03*
X1345Y2910D02*
D03*
X1550Y2480D02*
D03*
X1715Y2895D02*
D03*
X2230Y1575D02*
D03*
X2120Y1360D02*
D03*
X2265Y1455D02*
D03*
X2384Y1259D02*
D03*
X2475Y1265D02*
D03*
X3525Y1960D02*
D03*
X4755Y2385D02*
D03*
X3889Y2068D02*
D03*
X2690Y1645D02*
D03*
X2535Y1605D02*
D03*
X2396Y1640D02*
D03*
X3270Y1845D02*
D03*
X2200Y1395D02*
D03*
X2285Y1570D02*
D03*
X1870Y2805D02*
D03*
X1430Y3130D02*
D03*
X1865Y2695D02*
D03*
X4495Y2945D02*
D03*
X4330D02*
D03*
X3445Y1280D02*
D03*
X2960Y1250D02*
D03*
X3525Y2990D02*
D03*
X3460D02*
D03*
X3400D02*
D03*
D82*
X2045Y2695D02*
D03*
X1600Y3700D02*
D03*
X1305D02*
D03*
X1455D02*
D03*
D83*
X5975Y3635D02*
D03*
Y1120D02*
D03*
X1120D02*
D03*
Y3635D02*
D03*
D84*
X3760Y3440D02*
D03*
D101*
X3474Y3655D02*
D03*
D102*
X3525Y3550D02*
D03*
X3499D02*
D03*
X3474D02*
D03*
X3448D02*
D03*
X3423D02*
D03*
D103*
X3674Y3345D02*
D03*
X3776Y3308D02*
D03*
Y3345D02*
D03*
Y3382D02*
D03*
X3674D02*
D03*
Y3308D02*
D03*
D104*
X3305Y3395D02*
D03*
Y3320D02*
D03*
X3207Y3358D02*
D03*
X3011Y3323D02*
D03*
Y3397D02*
D03*
X3109Y3360D02*
D03*
M02*
