G04*
G04 #@! TF.GenerationSoftware,Altium Limited,Altium Designer,25.5.2 (35)*
G04*
G04 Layer_Color=2752767*
%FSLAX23Y23*%
%MOIN*%
G70*
G04*
G04 #@! TF.SameCoordinates,10694D88-6559-4D2D-811B-EC1DD4263B2B*
G04*
G04*
G04 #@! TF.FilePolarity,Positive*
G04*
G01*
G75*
%ADD14C,0.005*%
%ADD110C,0.007*%
%ADD111C,0.004*%
D14*
X1558Y1334D02*
X1568D01*
X1578Y1344D01*
X1588Y1334D01*
X1598D01*
Y1344D01*
X1588Y1354D01*
X1598Y1364D01*
Y1374D01*
X1588D01*
X1578Y1364D01*
X1568Y1374D01*
X1558D01*
Y1364D01*
X1568Y1354D01*
X1558Y1344D01*
Y1334D01*
Y1826D02*
X1568D01*
X1578Y1836D01*
X1588Y1826D01*
X1598D01*
Y1836D01*
X1588Y1846D01*
X1598Y1856D01*
Y1866D01*
X1588D01*
X1578Y1856D01*
X1568Y1866D01*
X1558D01*
Y1856D01*
X1568Y1846D01*
X1558Y1836D01*
Y1826D01*
X5810Y1315D02*
Y1355D01*
X5850D01*
Y1315D01*
X5810D01*
X4162Y3540D02*
X4172Y3550D01*
X4182D01*
X4172Y3560D01*
X4182Y3570D01*
X4172D01*
X4162Y3580D01*
X4152Y3570D01*
X4142D01*
X4152Y3560D01*
X4142Y3550D01*
X4152D01*
X4162Y3540D01*
Y3548D02*
X4168Y3554D01*
X4174D01*
X4168Y3560D01*
X4174Y3566D01*
X4168D01*
X4162Y3572D01*
X4156Y3566D01*
X4150D01*
X4156Y3560D01*
X4150Y3554D01*
X4156D01*
X4162Y3548D01*
X5783Y3180D02*
X5793Y3190D01*
X5803D01*
X5793Y3200D01*
X5803Y3210D01*
X5793D01*
X5783Y3220D01*
X5773Y3210D01*
X5763D01*
X5773Y3200D01*
X5763Y3190D01*
X5773D01*
X5783Y3180D01*
Y3188D02*
X5789Y3194D01*
X5795D01*
X5789Y3200D01*
X5795Y3206D01*
X5789D01*
X5783Y3212D01*
X5777Y3206D01*
X5771D01*
X5777Y3200D01*
X5771Y3194D01*
X5777D01*
X5783Y3188D01*
X5830Y2052D02*
X5840Y2062D01*
X5850D01*
X5840Y2072D01*
X5850Y2082D01*
X5840D01*
X5830Y2092D01*
X5820Y2082D01*
X5810D01*
X5820Y2072D01*
X5810Y2062D01*
X5820D01*
X5830Y2052D01*
Y2060D02*
X5836Y2066D01*
X5842D01*
X5836Y2072D01*
X5842Y2078D01*
X5836D01*
X5830Y2084D01*
X5824Y2078D01*
X5818D01*
X5824Y2072D01*
X5818Y2066D01*
X5824D01*
X5830Y2060D01*
X5170Y2159D02*
Y2199D01*
X5210D01*
Y2159D01*
X5170D01*
Y1962D02*
Y2002D01*
X5210D01*
Y1962D01*
X5170D01*
Y1765D02*
Y1805D01*
X5210D01*
Y1765D01*
X5170D01*
Y1568D02*
Y1608D01*
X5210D01*
Y1568D01*
X5170D01*
Y1371D02*
Y1411D01*
X5210D01*
Y1371D01*
X5170D01*
Y1174D02*
Y1214D01*
X5210D01*
Y1174D01*
X5170D01*
X3289Y3635D02*
Y3675D01*
X3329D01*
Y3635D01*
X3289D01*
X3297Y3643D02*
Y3667D01*
X3321D01*
Y3643D01*
X3297D01*
X3618Y3635D02*
Y3675D01*
X3658D01*
Y3635D01*
X3618D01*
X3626Y3643D02*
Y3667D01*
X3650D01*
Y3643D01*
X3626D01*
X3541Y3537D02*
X3561Y3557D01*
X3581Y3537D01*
X3561Y3517D01*
X3541Y3537D01*
X3366D02*
X3386Y3557D01*
X3406Y3537D01*
X3386Y3517D01*
X3366Y3537D01*
X2969Y3635D02*
Y3625D01*
X2989D01*
Y3635D01*
X2999D01*
Y3655D01*
X2989D01*
Y3665D01*
X2969D01*
Y3655D01*
X2959D01*
Y3635D01*
X2969D01*
X2890D02*
Y3625D01*
X2910D01*
Y3635D01*
X2920D01*
Y3655D01*
X2910D01*
Y3665D01*
X2890D01*
Y3655D01*
X2880D01*
Y3635D01*
X2890D01*
X3047D02*
Y3625D01*
X3067D01*
Y3635D01*
X3077D01*
Y3655D01*
X3067D01*
Y3665D01*
X3047D01*
Y3655D01*
X3037D01*
Y3635D01*
X3047D01*
X2733D02*
Y3625D01*
X2753D01*
Y3635D01*
X2763D01*
Y3655D01*
X2753D01*
Y3665D01*
X2733D01*
Y3655D01*
X2723D01*
Y3635D01*
X2733D01*
X1520Y2370D02*
X1500Y2410D01*
X1540D01*
X1520Y2370D01*
X1620D02*
X1600Y2410D01*
X1640D01*
X1620Y2370D01*
X1720D02*
X1700Y2410D01*
X1740D01*
X1720Y2370D01*
X1820D02*
X1800Y2410D01*
X1840D01*
X1820Y2370D01*
X1920D02*
X1900Y2410D01*
X1940D01*
X1920Y2370D01*
X2020D02*
X2000Y2410D01*
X2040D01*
X2020Y2370D01*
X2120D02*
X2100Y2410D01*
X2140D01*
X2120Y2370D01*
X2220D02*
X2200Y2410D01*
X2240D01*
X2220Y2370D01*
X2320D02*
X2300Y2410D01*
X2340D01*
X2320Y2370D01*
X2420D02*
X2400Y2410D01*
X2440D01*
X2420Y2370D01*
X2520D02*
X2500Y2410D01*
X2540D01*
X2520Y2370D01*
X2620D02*
X2600Y2410D01*
X2640D01*
X2620Y2370D01*
X2720D02*
X2700Y2410D01*
X2740D01*
X2720Y2370D01*
X1520Y3370D02*
X1500Y3410D01*
X1540D01*
X1520Y3370D01*
X1620D02*
X1600Y3410D01*
X1640D01*
X1620Y3370D01*
X1720D02*
X1700Y3410D01*
X1740D01*
X1720Y3370D01*
X1820D02*
X1800Y3410D01*
X1840D01*
X1820Y3370D01*
X1920D02*
X1900Y3410D01*
X1940D01*
X1920Y3370D01*
X2020D02*
X2000Y3410D01*
X2040D01*
X2020Y3370D01*
X2120D02*
X2100Y3410D01*
X2140D01*
X2120Y3370D01*
X2220D02*
X2200Y3410D01*
X2240D01*
X2220Y3370D01*
X2320D02*
X2300Y3410D01*
X2340D01*
X2320Y3370D01*
X2420D02*
X2400Y3410D01*
X2440D01*
X2420Y3370D01*
X2520D02*
X2500Y3410D01*
X2540D01*
X2520Y3370D01*
X2620D02*
X2600Y3410D01*
X2640D01*
X2620Y3370D01*
X2720D02*
X2700Y3410D01*
X2740D01*
X2720Y3370D01*
X3875Y2154D02*
Y2194D01*
X3915D01*
Y2154D01*
X3875D01*
Y1957D02*
Y1997D01*
X3915D01*
Y1957D01*
X3875D01*
Y1760D02*
Y1800D01*
X3915D01*
Y1760D01*
X3875D01*
Y1563D02*
Y1603D01*
X3915D01*
Y1563D01*
X3875D01*
Y1366D02*
Y1406D01*
X3915D01*
Y1366D01*
X3875D01*
Y1169D02*
Y1209D01*
X3915D01*
Y1169D01*
X3875D01*
X5830Y2248D02*
X5840Y2258D01*
X5850D01*
X5840Y2268D01*
X5850Y2278D01*
X5840D01*
X5830Y2288D01*
X5820Y2278D01*
X5810D01*
X5820Y2268D01*
X5810Y2258D01*
X5820D01*
X5830Y2248D01*
Y2256D02*
X5836Y2262D01*
X5842D01*
X5836Y2268D01*
X5842Y2274D01*
X5836D01*
X5830Y2280D01*
X5824Y2274D01*
X5818D01*
X5824Y2268D01*
X5818Y2262D01*
X5824D01*
X5830Y2256D01*
X5587Y3180D02*
X5597Y3190D01*
X5607D01*
X5597Y3200D01*
X5607Y3210D01*
X5597D01*
X5587Y3220D01*
X5577Y3210D01*
X5567D01*
X5577Y3200D01*
X5567Y3190D01*
X5577D01*
X5587Y3180D01*
Y3188D02*
X5593Y3194D01*
X5599D01*
X5593Y3200D01*
X5599Y3206D01*
X5593D01*
X5587Y3212D01*
X5581Y3206D01*
X5575D01*
X5581Y3200D01*
X5575Y3194D01*
X5581D01*
X5587Y3188D01*
X3965Y3540D02*
X3975Y3550D01*
X3985D01*
X3975Y3560D01*
X3985Y3570D01*
X3975D01*
X3965Y3580D01*
X3955Y3570D01*
X3945D01*
X3955Y3560D01*
X3945Y3550D01*
X3955D01*
X3965Y3540D01*
Y3548D02*
X3971Y3554D01*
X3977D01*
X3971Y3560D01*
X3977Y3566D01*
X3971D01*
X3965Y3572D01*
X3959Y3566D01*
X3953D01*
X3959Y3560D01*
X3953Y3554D01*
X3959D01*
X3965Y3548D01*
X5635Y2710D02*
Y2700D01*
X5655D01*
Y2710D01*
X5665D01*
Y2730D01*
X5655D01*
Y2740D01*
X5635D01*
Y2730D01*
X5625D01*
Y2710D01*
X5635D01*
Y2966D02*
Y2956D01*
X5655D01*
Y2966D01*
X5665D01*
Y2986D01*
X5655D01*
Y2996D01*
X5635D01*
Y2986D01*
X5625D01*
Y2966D01*
X5635D01*
X5810Y1709D02*
Y1749D01*
X5850D01*
Y1709D01*
X5810D01*
Y1512D02*
Y1552D01*
X5850D01*
Y1512D01*
X5810D01*
X1362Y1826D02*
X1372D01*
X1382Y1836D01*
X1392Y1826D01*
X1402D01*
Y1836D01*
X1392Y1846D01*
X1402Y1856D01*
Y1866D01*
X1392D01*
X1382Y1856D01*
X1372Y1866D01*
X1362D01*
Y1856D01*
X1372Y1846D01*
X1362Y1836D01*
Y1826D01*
Y1334D02*
X1372D01*
X1382Y1344D01*
X1392Y1334D01*
X1402D01*
Y1344D01*
X1392Y1354D01*
X1402Y1364D01*
Y1374D01*
X1392D01*
X1382Y1364D01*
X1372Y1374D01*
X1362D01*
Y1364D01*
X1372Y1354D01*
X1362Y1344D01*
Y1334D01*
X1295Y2326D02*
X1305Y2346D01*
X1295Y2366D01*
X1315Y2356D01*
X1335Y2366D01*
X1325Y2346D01*
X1335Y2326D01*
X1315Y2336D01*
X1295Y2326D01*
Y2405D02*
X1305Y2425D01*
X1295Y2445D01*
X1315Y2435D01*
X1335Y2445D01*
X1325Y2425D01*
X1335Y2405D01*
X1315Y2415D01*
X1295Y2405D01*
Y2484D02*
X1305Y2504D01*
X1295Y2524D01*
X1315Y2514D01*
X1335Y2524D01*
X1325Y2504D01*
X1335Y2484D01*
X1315Y2494D01*
X1295Y2484D01*
X1315Y2244D02*
X1325Y2254D01*
X1335D01*
X1325Y2264D01*
X1335Y2274D01*
X1325D01*
X1315Y2284D01*
X1305Y2274D01*
X1295D01*
X1305Y2264D01*
X1295Y2254D01*
X1305D01*
X1315Y2244D01*
Y2566D02*
X1325Y2576D01*
X1335D01*
X1325Y2586D01*
X1335Y2596D01*
X1325D01*
X1315Y2606D01*
X1305Y2596D01*
X1295D01*
X1305Y2586D01*
X1295Y2576D01*
X1305D01*
X1315Y2566D01*
X2593Y2952D02*
X2585Y2960D01*
X2568D01*
X2560Y2952D01*
Y2918D01*
X2568Y2910D01*
X2585D01*
X2593Y2918D01*
X3023Y3062D02*
X3015Y3070D01*
X2998D01*
X2990Y3062D01*
Y3028D01*
X2998Y3020D01*
X3015D01*
X3023Y3028D01*
X2023Y1572D02*
X2015Y1580D01*
X1998D01*
X1990Y1572D01*
Y1538D01*
X1998Y1530D01*
X2015D01*
X2023Y1538D01*
X2244Y2016D02*
X2236Y2024D01*
X2219D01*
X2211Y2016D01*
Y1983D01*
X2219Y1974D01*
X2236D01*
X2244Y1983D01*
X2653Y1362D02*
X2645Y1370D01*
X2628D01*
X2620Y1362D01*
Y1328D01*
X2628Y1320D01*
X2645D01*
X2653Y1328D01*
X2583Y1737D02*
X2575Y1745D01*
X2558D01*
X2550Y1737D01*
Y1703D01*
X2558Y1695D01*
X2575D01*
X2583Y1703D01*
X2688Y1877D02*
X2680Y1885D01*
X2663D01*
X2655Y1877D01*
Y1843D01*
X2663Y1835D01*
X2680D01*
X2688Y1843D01*
X1263Y2257D02*
X1255Y2265D01*
X1238D01*
X1230Y2257D01*
Y2223D01*
X1238Y2215D01*
X1255D01*
X1263Y2223D01*
X1908Y2897D02*
X1900Y2905D01*
X1883D01*
X1875Y2897D01*
Y2863D01*
X1883Y2855D01*
X1900D01*
X1908Y2863D01*
X1161Y2932D02*
X1153Y2940D01*
X1136D01*
X1128Y2932D01*
Y2898D01*
X1136Y2890D01*
X1153D01*
X1161Y2898D01*
X1453Y3062D02*
X1445Y3070D01*
X1428D01*
X1420Y3062D01*
Y3028D01*
X1428Y3020D01*
X1445D01*
X1453Y3028D01*
X2248Y2287D02*
X2240Y2295D01*
X2223D01*
X2215Y2287D01*
Y2253D01*
X2223Y2245D01*
X2240D01*
X2248Y2253D01*
X2128Y2947D02*
X2120Y2955D01*
X2103D01*
X2095Y2947D01*
Y2913D01*
X2103Y2905D01*
X2120D01*
X2128Y2913D01*
X2278Y3672D02*
X2270Y3680D01*
X2253D01*
X2245Y3672D01*
Y3638D01*
X2253Y3630D01*
X2270D01*
X2278Y3638D01*
X2623Y3182D02*
X2615Y3190D01*
X2598D01*
X2590Y3182D01*
Y3148D01*
X2598Y3140D01*
X2615D01*
X2623Y3148D01*
X3138Y1392D02*
X3130Y1400D01*
X3113D01*
X3105Y1392D01*
Y1358D01*
X3113Y1350D01*
X3130D01*
X3138Y1358D01*
X3053Y1642D02*
X3045Y1650D01*
X3028D01*
X3020Y1642D01*
Y1608D01*
X3028Y1600D01*
X3045D01*
X3053Y1608D01*
X3258Y1427D02*
X3250Y1435D01*
X3233D01*
X3225Y1427D01*
Y1393D01*
X3233Y1385D01*
X3250D01*
X3258Y1393D01*
X3248Y1922D02*
X3240Y1930D01*
X3223D01*
X3215Y1922D01*
Y1888D01*
X3223Y1880D01*
X3240D01*
X3248Y1888D01*
X3303Y1437D02*
X3295Y1445D01*
X3278D01*
X3270Y1437D01*
Y1403D01*
X3278Y1395D01*
X3295D01*
X3303Y1403D01*
X3298Y2972D02*
X3290Y2980D01*
X3273D01*
X3265Y2972D01*
Y2938D01*
X3273Y2930D01*
X3290D01*
X3298Y2938D01*
X3328Y3132D02*
X3320Y3140D01*
X3303D01*
X3295Y3132D01*
Y3098D01*
X3303Y3090D01*
X3320D01*
X3328Y3098D01*
X4238Y2607D02*
X4230Y2615D01*
X4213D01*
X4205Y2607D01*
Y2573D01*
X4213Y2565D01*
X4230D01*
X4238Y2573D01*
X6088Y3042D02*
X6080Y3050D01*
X6063D01*
X6055Y3042D01*
Y3008D01*
X6063Y3000D01*
X6080D01*
X6088Y3008D01*
X3443Y3297D02*
X3435Y3305D01*
X3418D01*
X3410Y3297D01*
Y3263D01*
X3418Y3255D01*
X3435D01*
X3443Y3263D01*
X4303Y3382D02*
X4295Y3390D01*
X4278D01*
X4270Y3382D01*
Y3348D01*
X4278Y3340D01*
X4295D01*
X4303Y3348D01*
X4593Y3387D02*
X4585Y3395D01*
X4568D01*
X4560Y3387D01*
Y3353D01*
X4568Y3345D01*
X4585D01*
X4593Y3353D01*
X4863Y3382D02*
X4855Y3390D01*
X4838D01*
X4830Y3382D01*
Y3348D01*
X4838Y3340D01*
X4855D01*
X4863Y3348D01*
X3873Y3392D02*
X3865Y3400D01*
X3848D01*
X3840Y3392D01*
Y3358D01*
X3848Y3350D01*
X3865D01*
X3873Y3358D01*
X2408Y1607D02*
X2400Y1615D01*
X2383D01*
X2375Y1607D01*
Y1573D01*
X2383Y1565D01*
X2400D01*
X2408Y1573D01*
X2608Y1412D02*
X2600Y1420D01*
X2583D01*
X2575Y1412D01*
Y1378D01*
X2583Y1370D01*
X2600D01*
X2608Y1378D01*
X2483Y1342D02*
X2475Y1350D01*
X2458D01*
X2450Y1342D01*
Y1308D01*
X2458Y1300D01*
X2475D01*
X2483Y1308D01*
X2045Y2745D02*
Y2695D01*
X2070D01*
X2078Y2703D01*
Y2737D01*
X2070Y2745D01*
X2045D01*
X2073Y1232D02*
X2065Y1240D01*
X2048D01*
X2040Y1232D01*
Y1198D01*
X2048Y1190D01*
X2065D01*
X2073Y1198D01*
X2163Y1232D02*
X2155Y1240D01*
X2138D01*
X2130Y1232D01*
Y1198D01*
X2138Y1190D01*
X2155D01*
X2163Y1198D01*
X2223Y1232D02*
X2215Y1240D01*
X2198D01*
X2190Y1232D01*
Y1198D01*
X2198Y1190D01*
X2215D01*
X2223Y1198D01*
X5133Y3392D02*
X5125Y3400D01*
X5108D01*
X5100Y3392D01*
Y3358D01*
X5108Y3350D01*
X5125D01*
X5133Y3358D01*
X1468Y2247D02*
X1460Y2255D01*
X1443D01*
X1435Y2247D01*
Y2213D01*
X1443Y2205D01*
X1460D01*
X1468Y2213D01*
X3751Y3402D02*
X3742Y3410D01*
X3726D01*
X3717Y3402D01*
Y3368D01*
X3726Y3360D01*
X3742D01*
X3751Y3368D01*
X3718Y2397D02*
X3710Y2405D01*
X3693D01*
X3685Y2397D01*
Y2363D01*
X3693Y2355D01*
X3710D01*
X3718Y2363D01*
X3438Y1902D02*
X3430Y1910D01*
X3413D01*
X3405Y1902D01*
Y1868D01*
X3413Y1860D01*
X3430D01*
X3438Y1868D01*
X3078Y3242D02*
X3070Y3250D01*
X3053D01*
X3045Y3242D01*
Y3208D01*
X3053Y3200D01*
X3070D01*
X3078Y3208D01*
X5618Y2497D02*
X5610Y2505D01*
X5593D01*
X5585Y2497D01*
Y2463D01*
X5593Y2455D01*
X5610D01*
X5618Y2463D01*
X4775Y2095D02*
X4755Y2135D01*
X4795D01*
X4775Y2095D01*
Y2103D02*
X4763Y2127D01*
X4787D01*
X4775Y2103D01*
X3133Y1862D02*
X3125Y1870D01*
X3108D01*
X3100Y1862D01*
Y1828D01*
X3108Y1820D01*
X3125D01*
X3133Y1828D01*
X3693Y3092D02*
X3685Y3100D01*
X3668D01*
X3660Y3092D01*
Y3058D01*
X3668Y3050D01*
X3685D01*
X3693Y3058D01*
X3333Y2617D02*
X3325Y2625D01*
X3308D01*
X3300Y2617D01*
Y2583D01*
X3308Y2575D01*
X3325D01*
X3333Y2583D01*
X3598Y3417D02*
X3590Y3425D01*
X3573D01*
X3565Y3417D01*
Y3383D01*
X3573Y3375D01*
X3590D01*
X3598Y3383D01*
X2258Y1792D02*
X2250Y1800D01*
X2233D01*
X2225Y1792D01*
Y1758D01*
X2233Y1750D01*
X2250D01*
X2258Y1758D01*
X3263Y2817D02*
X3255Y2825D01*
X3238D01*
X3230Y2817D01*
Y2783D01*
X3238Y2775D01*
X3255D01*
X3263Y2783D01*
X1563Y1247D02*
X1555Y1255D01*
X1538D01*
X1530Y1247D01*
Y1213D01*
X1538Y1205D01*
X1555D01*
X1563Y1213D01*
X1658Y2057D02*
X1650Y2065D01*
X1633D01*
X1625Y2057D01*
Y2023D01*
X1633Y2015D01*
X1650D01*
X1658Y2023D01*
X5027Y3606D02*
X5019Y3615D01*
X5002D01*
X4994Y3606D01*
Y3573D01*
X5002Y3565D01*
X5019D01*
X5027Y3573D01*
X3518Y2982D02*
X3510Y2990D01*
X3493D01*
X3485Y2982D01*
Y2948D01*
X3493Y2940D01*
X3510D01*
X3518Y2948D01*
X4593Y3592D02*
X4585Y3600D01*
X4568D01*
X4560Y3592D01*
Y3558D01*
X4568Y3550D01*
X4585D01*
X4593Y3558D01*
X1798Y1847D02*
X1790Y1855D01*
X1773D01*
X1765Y1847D01*
Y1813D01*
X1773Y1805D01*
X1790D01*
X1798Y1813D01*
X1983Y2737D02*
X1975Y2745D01*
X1958D01*
X1950Y2737D01*
Y2703D01*
X1958Y2695D01*
X1975D01*
X1983Y2703D01*
X2561Y1602D02*
X2552Y1610D01*
X2536D01*
X2527Y1602D01*
Y1568D01*
X2536Y1560D01*
X2552D01*
X2561Y1568D01*
X2270Y1685D02*
X2261Y1694D01*
X2245D01*
X2236Y1685D01*
Y1652D01*
X2245Y1644D01*
X2261D01*
X2270Y1652D01*
X2248Y1707D02*
X2240Y1715D01*
X2223D01*
X2215Y1707D01*
Y1673D01*
X2223Y1665D01*
X2240D01*
X2248Y1673D01*
X2438Y1647D02*
X2430Y1655D01*
X2413D01*
X2405Y1647D01*
Y1613D01*
X2413Y1605D01*
X2430D01*
X2438Y1613D01*
X3453Y1587D02*
X3445Y1595D01*
X3428D01*
X3420Y1587D01*
Y1553D01*
X3428Y1545D01*
X3445D01*
X3453Y1553D01*
X5955Y3615D02*
X5965Y3635D01*
X5955Y3655D01*
X5975Y3645D01*
X5995Y3655D01*
X5985Y3635D01*
X5995Y3615D01*
X5975Y3625D01*
X5955Y3615D01*
X5963Y3623D02*
X5969Y3635D01*
X5963Y3647D01*
X5975Y3641D01*
X5987Y3647D01*
X5981Y3635D01*
X5987Y3623D01*
X5975Y3629D01*
X5963Y3623D01*
X5955Y1100D02*
X5965Y1120D01*
X5955Y1140D01*
X5975Y1130D01*
X5995Y1140D01*
X5985Y1120D01*
X5995Y1100D01*
X5975Y1110D01*
X5955Y1100D01*
X5963Y1108D02*
X5969Y1120D01*
X5963Y1132D01*
X5975Y1126D01*
X5987Y1132D01*
X5981Y1120D01*
X5987Y1108D01*
X5975Y1114D01*
X5963Y1108D01*
X1100Y1100D02*
X1110Y1120D01*
X1100Y1140D01*
X1120Y1130D01*
X1140Y1140D01*
X1130Y1120D01*
X1140Y1100D01*
X1120Y1110D01*
X1100Y1100D01*
X1108Y1108D02*
X1114Y1120D01*
X1108Y1132D01*
X1120Y1126D01*
X1132Y1132D01*
X1126Y1120D01*
X1132Y1108D01*
X1120Y1114D01*
X1108Y1108D01*
X3248Y3607D02*
X3240Y3615D01*
X3223D01*
X3215Y3607D01*
Y3573D01*
X3223Y3565D01*
X3240D01*
X3248Y3573D01*
X3088Y3607D02*
X3080Y3615D01*
X3063D01*
X3055Y3607D01*
Y3573D01*
X3063Y3565D01*
X3080D01*
X3088Y3573D01*
X2613Y2812D02*
X2605Y2820D01*
X2588D01*
X2580Y2812D01*
Y2778D01*
X2588Y2770D01*
X2605D01*
X2613Y2778D01*
X1603Y3327D02*
X1595Y3335D01*
X1578D01*
X1570Y3327D01*
Y3293D01*
X1578Y3285D01*
X1595D01*
X1603Y3293D01*
X1518Y3332D02*
X1510Y3340D01*
X1493D01*
X1485Y3332D01*
Y3298D01*
X1493Y3290D01*
X1510D01*
X1518Y3298D01*
X1273Y3247D02*
X1265Y3255D01*
X1248D01*
X1240Y3247D01*
Y3213D01*
X1248Y3205D01*
X1265D01*
X1273Y3213D01*
X2263Y1402D02*
X2254Y1411D01*
X2238D01*
X2229Y1402D01*
Y1369D01*
X2238Y1361D01*
X2254D01*
X2263Y1369D01*
X4088Y3622D02*
X4080Y3630D01*
X4063D01*
X4055Y3622D01*
Y3588D01*
X4063Y3580D01*
X4080D01*
X4088Y3588D01*
X3753Y3352D02*
X3745Y3360D01*
X3728D01*
X3720Y3352D01*
Y3318D01*
X3728Y3310D01*
X3745D01*
X3753Y3318D01*
X3168Y3242D02*
X3160Y3250D01*
X3143D01*
X3135Y3242D01*
Y3208D01*
X3143Y3200D01*
X3160D01*
X3168Y3208D01*
X5388Y2512D02*
X5380Y2520D01*
X5363D01*
X5355Y2512D01*
Y2478D01*
X5363Y2470D01*
X5380D01*
X5388Y2478D01*
X4358Y2217D02*
X4350Y2225D01*
X4333D01*
X4325Y2217D01*
Y2183D01*
X4333Y2175D01*
X4350D01*
X4358Y2183D01*
X4268Y1977D02*
X4260Y1985D01*
X4243D01*
X4235Y1977D01*
Y1943D01*
X4243Y1935D01*
X4260D01*
X4268Y1943D01*
X4263Y1777D02*
X4255Y1785D01*
X4238D01*
X4230Y1777D01*
Y1743D01*
X4238Y1735D01*
X4255D01*
X4263Y1743D01*
X4268Y1577D02*
X4260Y1585D01*
X4243D01*
X4235Y1577D01*
Y1543D01*
X4243Y1535D01*
X4260D01*
X4268Y1543D01*
X4263Y1382D02*
X4255Y1390D01*
X4238D01*
X4230Y1382D01*
Y1348D01*
X4238Y1340D01*
X4255D01*
X4263Y1348D01*
X4268Y1277D02*
X4260Y1285D01*
X4243D01*
X4235Y1277D01*
Y1243D01*
X4243Y1235D01*
X4260D01*
X4268Y1243D01*
X3533Y2517D02*
X3525Y2525D01*
X3508D01*
X3500Y2517D01*
Y2483D01*
X3508Y2475D01*
X3525D01*
X3533Y2483D01*
X4073Y2447D02*
X4065Y2455D01*
X4048D01*
X4040Y2447D01*
Y2413D01*
X4048Y2405D01*
X4065D01*
X4073Y2413D01*
X3433Y2517D02*
X3425Y2525D01*
X3408D01*
X3400Y2517D01*
Y2483D01*
X3408Y2475D01*
X3425D01*
X3433Y2483D01*
X3483Y2517D02*
X3475Y2525D01*
X3458D01*
X3450Y2517D01*
Y2483D01*
X3458Y2475D01*
X3475D01*
X3483Y2483D01*
X2533Y3182D02*
X2525Y3190D01*
X2508D01*
X2500Y3182D01*
Y3148D01*
X2508Y3140D01*
X2525D01*
X2533Y3148D01*
X2088Y2027D02*
X2079Y2036D01*
X2063D01*
X2054Y2027D01*
Y1994D01*
X2063Y1986D01*
X2079D01*
X2088Y1994D01*
X3038Y2002D02*
X3030Y2010D01*
X3013D01*
X3005Y2002D01*
Y1968D01*
X3013Y1960D01*
X3030D01*
X3038Y1968D01*
X2988Y1952D02*
X2980Y1960D01*
X2963D01*
X2955Y1952D01*
Y1918D01*
X2963Y1910D01*
X2980D01*
X2988Y1918D01*
X1633Y3750D02*
X1600D01*
Y3700D01*
X1633D01*
X1600Y3725D02*
X1617D01*
X1918Y3732D02*
X1910Y3740D01*
X1893D01*
X1885Y3732D01*
Y3698D01*
X1893Y3690D01*
X1910D01*
X1918Y3698D01*
X1338Y3750D02*
X1305D01*
Y3700D01*
X1338D01*
X1305Y3725D02*
X1322D01*
X1488Y3750D02*
X1455D01*
Y3700D01*
X1488D01*
X1455Y3725D02*
X1472D01*
X1143Y3492D02*
X1135Y3500D01*
X1118D01*
X1110Y3492D01*
Y3458D01*
X1118Y3450D01*
X1135D01*
X1143Y3458D01*
X1943Y2317D02*
X1935Y2325D01*
X1918D01*
X1910Y2317D01*
Y2283D01*
X1918Y2275D01*
X1935D01*
X1943Y2283D01*
X1098Y2762D02*
X1090Y2770D01*
X1073D01*
X1065Y2762D01*
Y2728D01*
X1073Y2720D01*
X1090D01*
X1098Y2728D01*
X2603Y1777D02*
X2595Y1785D01*
X2578D01*
X2570Y1777D01*
Y1743D01*
X2578Y1735D01*
X2595D01*
X2603Y1743D01*
X2490Y1512D02*
X2481Y1520D01*
X2465D01*
X2456Y1512D01*
Y1478D01*
X2465Y1470D01*
X2481D01*
X2490Y1478D01*
X2018Y1512D02*
X2010Y1520D01*
X1993D01*
X1985Y1512D01*
Y1478D01*
X1993Y1470D01*
X2010D01*
X2018Y1478D01*
X1988Y1172D02*
X1980Y1180D01*
X1963D01*
X1955Y1172D01*
Y1138D01*
X1963Y1130D01*
X1980D01*
X1988Y1138D01*
X1100Y3615D02*
X1110Y3635D01*
X1100Y3655D01*
X1120Y3645D01*
X1140Y3655D01*
X1130Y3635D01*
X1140Y3615D01*
X1120Y3625D01*
X1100Y3615D01*
X1108Y3623D02*
X1114Y3635D01*
X1108Y3647D01*
X1120Y3641D01*
X1132Y3647D01*
X1126Y3635D01*
X1132Y3623D01*
X1120Y3629D01*
X1108Y3623D01*
X3213Y3457D02*
X3205Y3465D01*
X3188D01*
X3180Y3457D01*
Y3423D01*
X3188Y3415D01*
X3205D01*
X3213Y3423D01*
X3538Y1126D02*
X3530Y1134D01*
X3513D01*
X3505Y1126D01*
Y1092D01*
X3513Y1084D01*
X3530D01*
X3538Y1092D01*
X3973Y3462D02*
X3965Y3470D01*
X3948D01*
X3940Y3462D01*
Y3428D01*
X3948Y3420D01*
X3965D01*
X3973Y3428D01*
X3181Y2161D02*
X3173Y2170D01*
X3156D01*
X3148Y2161D01*
Y2128D01*
X3156Y2120D01*
X3173D01*
X3181Y2128D01*
X3893Y2682D02*
X3885Y2690D01*
X3868D01*
X3860Y2682D01*
Y2648D01*
X3868Y2640D01*
X3885D01*
X3893Y2648D01*
X3863Y2552D02*
X3855Y2560D01*
X3838D01*
X3830Y2552D01*
Y2518D01*
X3838Y2510D01*
X3855D01*
X3863Y2518D01*
X4023Y1182D02*
X4015Y1190D01*
X3998D01*
X3990Y1182D01*
Y1148D01*
X3998Y1140D01*
X4015D01*
X4023Y1148D01*
X3483Y3217D02*
X3475Y3225D01*
X3458D01*
X3450Y3217D01*
Y3183D01*
X3458Y3175D01*
X3475D01*
X3483Y3183D01*
X3533Y3212D02*
X3525Y3220D01*
X3508D01*
X3500Y3212D01*
Y3178D01*
X3508Y3170D01*
X3525D01*
X3533Y3178D01*
X3843Y1117D02*
X3835Y1125D01*
X3818D01*
X3810Y1117D01*
Y1083D01*
X3818Y1075D01*
X3835D01*
X3843Y1083D01*
X3768Y1127D02*
X3760Y1135D01*
X3743D01*
X3735Y1127D01*
Y1093D01*
X3743Y1085D01*
X3760D01*
X3768Y1093D01*
X3423Y1212D02*
X3415Y1220D01*
X3398D01*
X3390Y1212D01*
Y1178D01*
X3398Y1170D01*
X3415D01*
X3423Y1178D01*
X3258Y1507D02*
X3250Y1515D01*
X3233D01*
X3225Y1507D01*
Y1473D01*
X3233Y1465D01*
X3250D01*
X3258Y1473D01*
X1813Y3582D02*
X1805Y3590D01*
X1788D01*
X1780Y3582D01*
Y3548D01*
X1788Y3540D01*
X1805D01*
X1813Y3548D01*
X1183Y3322D02*
X1175Y3330D01*
X1158D01*
X1150Y3322D01*
Y3288D01*
X1158Y3280D01*
X1175D01*
X1183Y3288D01*
X3038Y1487D02*
X3030Y1495D01*
X3013D01*
X3005Y1487D01*
Y1453D01*
X3013Y1445D01*
X3030D01*
X3038Y1453D01*
X3098Y1437D02*
X3090Y1445D01*
X3073D01*
X3065Y1437D01*
Y1403D01*
X3073Y1395D01*
X3090D01*
X3098Y1403D01*
X3368Y1712D02*
X3360Y1720D01*
X3343D01*
X3335Y1712D01*
Y1678D01*
X3343Y1670D01*
X3360D01*
X3368Y1678D01*
X3413Y1662D02*
X3405Y1670D01*
X3388D01*
X3380Y1662D01*
Y1628D01*
X3388Y1620D01*
X3405D01*
X3413Y1628D01*
X2858Y2072D02*
X2850Y2080D01*
X2833D01*
X2825Y2072D01*
Y2038D01*
X2833Y2030D01*
X2850D01*
X2858Y2038D01*
X1673Y3532D02*
X1665Y3540D01*
X1648D01*
X1640Y3532D01*
Y3498D01*
X1648Y3490D01*
X1665D01*
X1673Y3498D01*
X2063Y1787D02*
X2055Y1795D01*
X2038D01*
X2030Y1787D01*
Y1753D01*
X2038Y1745D01*
X2055D01*
X2063Y1753D01*
X2018Y1847D02*
X2010Y1855D01*
X1993D01*
X1985Y1847D01*
Y1813D01*
X1993Y1805D01*
X2010D01*
X2018Y1813D01*
X3098Y1582D02*
X3090Y1590D01*
X3073D01*
X3065Y1582D01*
Y1548D01*
X3073Y1540D01*
X3090D01*
X3098Y1548D01*
X3028Y1902D02*
X3020Y1910D01*
X3003D01*
X2995Y1902D01*
Y1868D01*
X3003Y1860D01*
X3020D01*
X3028Y1868D01*
X2958Y2192D02*
X2950Y2200D01*
X2933D01*
X2925Y2192D01*
Y2158D01*
X2933Y2150D01*
X2950D01*
X2958Y2158D01*
X3418Y1802D02*
X3410Y1810D01*
X3393D01*
X3385Y1802D01*
Y1768D01*
X3393Y1760D01*
X3410D01*
X3418Y1768D01*
X3233Y1837D02*
X3225Y1845D01*
X3208D01*
X3200Y1837D01*
Y1803D01*
X3208Y1795D01*
X3225D01*
X3233Y1803D01*
X3303Y1802D02*
X3295Y1810D01*
X3278D01*
X3270Y1802D01*
Y1768D01*
X3278Y1760D01*
X3295D01*
X3303Y1768D01*
X3888Y1957D02*
X3880Y1965D01*
X3863D01*
X3855Y1957D01*
Y1923D01*
X3863Y1915D01*
X3880D01*
X3888Y1923D01*
X3993Y1902D02*
X3985Y1910D01*
X3968D01*
X3960Y1902D01*
Y1868D01*
X3968Y1860D01*
X3985D01*
X3993Y1868D01*
X1728Y3497D02*
X1720Y3505D01*
X1703D01*
X1695Y3497D01*
Y3463D01*
X1703Y3455D01*
X1720D01*
X1728Y3463D01*
X3023Y2227D02*
X3015Y2235D01*
X2998D01*
X2990Y2227D01*
Y2193D01*
X2998Y2185D01*
X3015D01*
X3023Y2193D01*
X3176Y2255D02*
X3168Y2263D01*
X3151D01*
X3143Y2255D01*
Y2221D01*
X3151Y2213D01*
X3168D01*
X3176Y2221D01*
X3015Y2757D02*
X3007Y2765D01*
X2990D01*
X2982Y2757D01*
Y2723D01*
X2990Y2715D01*
X3007D01*
X3015Y2723D01*
X3463Y2292D02*
X3455Y2300D01*
X3438D01*
X3430Y2292D01*
Y2258D01*
X3438Y2250D01*
X3455D01*
X3463Y2258D01*
X3473Y2132D02*
X3465Y2140D01*
X3448D01*
X3440Y2132D01*
Y2098D01*
X3448Y2090D01*
X3465D01*
X3473Y2098D01*
X3478Y2344D02*
X3470Y2352D01*
X3453D01*
X3445Y2344D01*
Y2310D01*
X3453Y2302D01*
X3470D01*
X3478Y2310D01*
X1258Y3392D02*
X1250Y3400D01*
X1233D01*
X1225Y3392D01*
Y3358D01*
X1233Y3350D01*
X1250D01*
X1258Y3358D01*
X3023Y2822D02*
X3015Y2830D01*
X2998D01*
X2990Y2822D01*
Y2788D01*
X2998Y2780D01*
X3015D01*
X3023Y2788D01*
X3428Y2257D02*
X3420Y2266D01*
X3403D01*
X3395Y2257D01*
Y2224D01*
X3403Y2216D01*
X3420D01*
X3428Y2224D01*
X3433Y2157D02*
X3425Y2165D01*
X3408D01*
X3400Y2157D01*
Y2123D01*
X3408Y2115D01*
X3425D01*
X3433Y2123D01*
X3528Y2367D02*
X3520Y2375D01*
X3503D01*
X3495Y2367D01*
Y2333D01*
X3503Y2325D01*
X3520D01*
X3528Y2333D01*
X3248Y2252D02*
X3240Y2260D01*
X3223D01*
X3215Y2252D01*
Y2218D01*
X3223Y2210D01*
X3240D01*
X3248Y2218D01*
X3208Y2247D02*
X3200Y2255D01*
X3183D01*
X3175Y2247D01*
Y2213D01*
X3183Y2205D01*
X3200D01*
X3208Y2213D01*
X3438Y2107D02*
X3430Y2115D01*
X3413D01*
X3405Y2107D01*
Y2073D01*
X3413Y2065D01*
X3430D01*
X3438Y2073D01*
X1818Y2067D02*
X1810Y2075D01*
X1793D01*
X1785Y2067D01*
Y2033D01*
X1793Y2025D01*
X1810D01*
X1818Y2033D01*
X1788Y1692D02*
X1780Y1700D01*
X1763D01*
X1755Y1692D01*
Y1658D01*
X1763Y1650D01*
X1780D01*
X1788Y1658D01*
X1778Y1577D02*
X1770Y1585D01*
X1753D01*
X1745Y1577D01*
Y1543D01*
X1753Y1535D01*
X1770D01*
X1778Y1543D01*
X2348Y1202D02*
X2340Y1210D01*
X2323D01*
X2315Y1202D01*
Y1168D01*
X2323Y1160D01*
X2340D01*
X2348Y1168D01*
X2488Y1207D02*
X2480Y1215D01*
X2463D01*
X2455Y1207D01*
Y1173D01*
X2463Y1165D01*
X2480D01*
X2488Y1173D01*
X3793Y3490D02*
X3760D01*
Y3465D01*
X3777D01*
X3760D01*
Y3440D01*
X4128Y2617D02*
X4120Y2625D01*
X4103D01*
X4095Y2617D01*
Y2583D01*
X4103Y2575D01*
X4120D01*
X4128Y2583D01*
X3568Y3277D02*
X3560Y3285D01*
X3543D01*
X3535Y3277D01*
Y3243D01*
X3543Y3235D01*
X3560D01*
X3568Y3243D01*
X3888Y2397D02*
X3880Y2405D01*
X3863D01*
X3855Y2397D01*
Y2363D01*
X3863Y2355D01*
X3880D01*
X3888Y2363D01*
X3763Y2457D02*
X3755Y2465D01*
X3738D01*
X3730Y2457D01*
Y2423D01*
X3738Y2415D01*
X3755D01*
X3763Y2423D01*
X3913Y2547D02*
X3905Y2555D01*
X3888D01*
X3880Y2547D01*
Y2513D01*
X3888Y2505D01*
X3905D01*
X3913Y2513D01*
X3933Y2477D02*
X3925Y2485D01*
X3908D01*
X3900Y2477D01*
Y2443D01*
X3908Y2435D01*
X3925D01*
X3933Y2443D01*
X4008Y2437D02*
X4000Y2445D01*
X3983D01*
X3975Y2437D01*
Y2403D01*
X3983Y2395D01*
X4000D01*
X4008Y2403D01*
X4138Y2797D02*
X4130Y2805D01*
X4113D01*
X4105Y2797D01*
Y2763D01*
X4113Y2755D01*
X4130D01*
X4138Y2763D01*
X4018Y2687D02*
X4010Y2695D01*
X3993D01*
X3985Y2687D01*
Y2653D01*
X3993Y2645D01*
X4010D01*
X4018Y2653D01*
X3181Y2131D02*
X3173Y2139D01*
X3156D01*
X3148Y2131D01*
Y2097D01*
X3156Y2089D01*
X3173D01*
X3181Y2097D01*
X5338Y3392D02*
X5330Y3400D01*
X5313D01*
X5305Y3392D01*
Y3358D01*
X5313Y3350D01*
X5330D01*
X5338Y3358D01*
X4808Y3412D02*
X4800Y3420D01*
X4783D01*
X4775Y3412D01*
Y3378D01*
X4783Y3370D01*
X4800D01*
X4808Y3378D01*
X4503Y3402D02*
X4495Y3410D01*
X4478D01*
X4470Y3402D01*
Y3368D01*
X4478Y3360D01*
X4495D01*
X4503Y3368D01*
X3383Y2577D02*
X3375Y2585D01*
X3358D01*
X3350Y2577D01*
Y2543D01*
X3358Y2535D01*
X3375D01*
X3383Y2543D01*
X4273Y2877D02*
X4265Y2885D01*
X4248D01*
X4240Y2877D01*
Y2843D01*
X4248Y2835D01*
X4265D01*
X4273Y2843D01*
X4958Y3412D02*
X4950Y3420D01*
X4933D01*
X4925Y3412D01*
Y3378D01*
X4933Y3370D01*
X4950D01*
X4958Y3378D01*
X4248Y3287D02*
X4240Y3295D01*
X4223D01*
X4215Y3287D01*
Y3253D01*
X4223Y3245D01*
X4240D01*
X4248Y3253D01*
X3633Y2772D02*
X3625Y2780D01*
X3608D01*
X3600Y2772D01*
Y2738D01*
X3608Y2730D01*
X3625D01*
X3633Y2738D01*
X3778Y2742D02*
X3770Y2750D01*
X3753D01*
X3745Y2742D01*
Y2708D01*
X3753Y2700D01*
X3770D01*
X3778Y2708D01*
X4493Y3472D02*
X4485Y3480D01*
X4468D01*
X4460Y3472D01*
Y3438D01*
X4468Y3430D01*
X4485D01*
X4493Y3438D01*
X3933Y2677D02*
X3925Y2685D01*
X3908D01*
X3900Y2677D01*
Y2643D01*
X3908Y2635D01*
X3925D01*
X3933Y2643D01*
X2943Y2442D02*
X2935Y2450D01*
X2918D01*
X2910Y2442D01*
Y2408D01*
X2918Y2400D01*
X2935D01*
X2943Y2408D01*
X2944Y2519D02*
X2936Y2527D01*
X2919D01*
X2911Y2519D01*
Y2485D01*
X2919Y2477D01*
X2936D01*
X2944Y2485D01*
X2318Y1817D02*
X2310Y1825D01*
X2293D01*
X2285Y1817D01*
Y1783D01*
X2293Y1775D01*
X2310D01*
X2318Y1783D01*
X2398Y1782D02*
X2390Y1790D01*
X2373D01*
X2365Y1782D01*
Y1748D01*
X2373Y1740D01*
X2390D01*
X2398Y1748D01*
X3633Y2972D02*
X3625Y2980D01*
X3608D01*
X3600Y2972D01*
Y2938D01*
X3608Y2930D01*
X3625D01*
X3633Y2938D01*
Y2842D02*
X3625Y2850D01*
X3608D01*
X3600Y2842D01*
Y2808D01*
X3608Y2800D01*
X3625D01*
X3633Y2808D01*
X2703Y2317D02*
X2695Y2325D01*
X2678D01*
X2670Y2317D01*
Y2283D01*
X2678Y2275D01*
X2695D01*
X2703Y2283D01*
X2638Y2347D02*
X2630Y2355D01*
X2613D01*
X2605Y2347D01*
Y2313D01*
X2613Y2305D01*
X2630D01*
X2638Y2313D01*
X3538Y2837D02*
X3530Y2845D01*
X3513D01*
X3505Y2837D01*
Y2803D01*
X3513Y2795D01*
X3530D01*
X3538Y2803D01*
X3593Y2367D02*
X3585Y2375D01*
X3568D01*
X3560Y2367D01*
Y2333D01*
X3568Y2325D01*
X3585D01*
X3593Y2333D01*
X3718Y2292D02*
X3710Y2300D01*
X3693D01*
X3685Y2292D01*
Y2258D01*
X3693Y2250D01*
X3710D01*
X3718Y2258D01*
X3181Y2101D02*
X3173Y2109D01*
X3156D01*
X3148Y2101D01*
Y2067D01*
X3156Y2059D01*
X3173D01*
X3181Y2067D01*
X2225Y1802D02*
X2217Y1810D01*
X2200D01*
X2192Y1802D01*
Y1768D01*
X2200Y1760D01*
X2217D01*
X2225Y1768D01*
X2778Y1992D02*
X2770Y2000D01*
X2753D01*
X2745Y1992D01*
Y1958D01*
X2753Y1950D01*
X2770D01*
X2778Y1958D01*
X2093Y2092D02*
X2085Y2100D01*
X2068D01*
X2060Y2092D01*
Y2058D01*
X2068Y2050D01*
X2085D01*
X2093Y2058D01*
X2213Y2052D02*
X2205Y2060D01*
X2188D01*
X2180Y2052D01*
Y2018D01*
X2188Y2010D01*
X2205D01*
X2213Y2018D01*
X2148Y2077D02*
X2140Y2085D01*
X2123D01*
X2115Y2077D01*
Y2043D01*
X2123Y2035D01*
X2140D01*
X2148Y2043D01*
X2173Y2027D02*
X2165Y2035D01*
X2148D01*
X2140Y2027D01*
Y1993D01*
X2148Y1985D01*
X2165D01*
X2173Y1993D01*
X2458Y1982D02*
X2450Y1990D01*
X2433D01*
X2425Y1982D01*
Y1948D01*
X2433Y1940D01*
X2450D01*
X2458Y1948D01*
X2478Y2037D02*
X2470Y2045D01*
X2453D01*
X2445Y2037D01*
Y2003D01*
X2453Y1995D01*
X2470D01*
X2478Y2003D01*
X2098Y1882D02*
X2090Y1890D01*
X2073D01*
X2065Y1882D01*
Y1848D01*
X2073Y1840D01*
X2090D01*
X2098Y1848D01*
X2138Y1862D02*
X2130Y1870D01*
X2113D01*
X2105Y1862D01*
Y1828D01*
X2113Y1820D01*
X2130D01*
X2138Y1828D01*
X2043Y1717D02*
X2035Y1725D01*
X2018D01*
X2010Y1717D01*
Y1683D01*
X2018Y1675D01*
X2035D01*
X2043Y1683D01*
X3475Y1996D02*
X3467Y2005D01*
X3450D01*
X3442Y1996D01*
Y1963D01*
X3450Y1955D01*
X3467D01*
X3475Y1963D01*
X3498Y2042D02*
X3490Y2050D01*
X3473D01*
X3465Y2042D01*
Y2008D01*
X3473Y2000D01*
X3490D01*
X3498Y2008D01*
X4058Y2017D02*
X4050Y2025D01*
X4033D01*
X4025Y2017D01*
Y1983D01*
X4033Y1975D01*
X4050D01*
X4058Y1983D01*
X3848Y2132D02*
X3840Y2140D01*
X3823D01*
X3815Y2132D01*
Y2098D01*
X3823Y2090D01*
X3840D01*
X3848Y2098D01*
X3773Y2157D02*
X3765Y2165D01*
X3748D01*
X3740Y2157D01*
Y2123D01*
X3748Y2115D01*
X3765D01*
X3773Y2123D01*
X1643Y2527D02*
X1635Y2535D01*
X1618D01*
X1610Y2527D01*
Y2493D01*
X1618Y2485D01*
X1635D01*
X1643Y2493D01*
X1612Y3027D02*
X1604Y3035D01*
X1587D01*
X1579Y3027D01*
Y2993D01*
X1587Y2985D01*
X1604D01*
X1612Y2993D01*
X1378Y2952D02*
X1370Y2960D01*
X1353D01*
X1345Y2952D01*
Y2918D01*
X1353Y2910D01*
X1370D01*
X1378Y2918D01*
X1583Y2522D02*
X1575Y2530D01*
X1558D01*
X1550Y2522D01*
Y2488D01*
X1558Y2480D01*
X1575D01*
X1583Y2488D01*
X1748Y2937D02*
X1740Y2945D01*
X1723D01*
X1715Y2937D01*
Y2903D01*
X1723Y2895D01*
X1740D01*
X1748Y2903D01*
X2263Y1617D02*
X2255Y1625D01*
X2238D01*
X2230Y1617D01*
Y1583D01*
X2238Y1575D01*
X2255D01*
X2263Y1583D01*
X2153Y1402D02*
X2145Y1410D01*
X2128D01*
X2120Y1402D01*
Y1368D01*
X2128Y1360D01*
X2145D01*
X2153Y1368D01*
X2298Y1497D02*
X2290Y1505D01*
X2273D01*
X2265Y1497D01*
Y1463D01*
X2273Y1455D01*
X2290D01*
X2298Y1463D01*
X2418Y1301D02*
X2409Y1309D01*
X2393D01*
X2384Y1301D01*
Y1268D01*
X2393Y1259D01*
X2409D01*
X2418Y1268D01*
X2508Y1307D02*
X2500Y1315D01*
X2483D01*
X2475Y1307D01*
Y1273D01*
X2483Y1265D01*
X2500D01*
X2508Y1273D01*
X3558Y2002D02*
X3550Y2010D01*
X3533D01*
X3525Y2002D01*
Y1968D01*
X3533Y1960D01*
X3550D01*
X3558Y1968D01*
X4788Y2427D02*
X4780Y2435D01*
X4763D01*
X4755Y2427D01*
Y2393D01*
X4763Y2385D01*
X4780D01*
X4788Y2393D01*
X3922Y2109D02*
X3914Y2118D01*
X3897D01*
X3889Y2109D01*
Y2076D01*
X3897Y2068D01*
X3914D01*
X3922Y2076D01*
X2723Y1687D02*
X2715Y1695D01*
X2698D01*
X2690Y1687D01*
Y1653D01*
X2698Y1645D01*
X2715D01*
X2723Y1653D01*
X2568Y1647D02*
X2560Y1655D01*
X2543D01*
X2535Y1647D01*
Y1613D01*
X2543Y1605D01*
X2560D01*
X2568Y1613D01*
X2429Y1682D02*
X2421Y1690D01*
X2404D01*
X2396Y1682D01*
Y1648D01*
X2404Y1640D01*
X2421D01*
X2429Y1648D01*
X3303Y1887D02*
X3295Y1895D01*
X3278D01*
X3270Y1887D01*
Y1853D01*
X3278Y1845D01*
X3295D01*
X3303Y1853D01*
X2233Y1437D02*
X2225Y1445D01*
X2208D01*
X2200Y1437D01*
Y1403D01*
X2208Y1395D01*
X2225D01*
X2233Y1403D01*
X2318Y1612D02*
X2310Y1620D01*
X2293D01*
X2285Y1612D01*
Y1578D01*
X2293Y1570D01*
X2310D01*
X2318Y1578D01*
X1903Y2847D02*
X1895Y2855D01*
X1878D01*
X1870Y2847D01*
Y2813D01*
X1878Y2805D01*
X1895D01*
X1903Y2813D01*
X1463Y3172D02*
X1455Y3180D01*
X1438D01*
X1430Y3172D01*
Y3138D01*
X1438Y3130D01*
X1455D01*
X1463Y3138D01*
X1898Y2737D02*
X1890Y2745D01*
X1873D01*
X1865Y2737D01*
Y2703D01*
X1873Y2695D01*
X1890D01*
X1898Y2703D01*
X4528Y2987D02*
X4520Y2995D01*
X4503D01*
X4495Y2987D01*
Y2953D01*
X4503Y2945D01*
X4520D01*
X4528Y2953D01*
X4363Y2987D02*
X4355Y2995D01*
X4338D01*
X4330Y2987D01*
Y2953D01*
X4338Y2945D01*
X4355D01*
X4363Y2953D01*
X3478Y1322D02*
X3470Y1330D01*
X3453D01*
X3445Y1322D01*
Y1288D01*
X3453Y1280D01*
X3470D01*
X3478Y1288D01*
X2993Y1292D02*
X2985Y1300D01*
X2968D01*
X2960Y1292D01*
Y1258D01*
X2968Y1250D01*
X2985D01*
X2993Y1258D01*
X3558Y3032D02*
X3550Y3040D01*
X3533D01*
X3525Y3032D01*
Y2998D01*
X3533Y2990D01*
X3550D01*
X3558Y2998D01*
X3493Y3032D02*
X3485Y3040D01*
X3468D01*
X3460Y3032D01*
Y2998D01*
X3468Y2990D01*
X3485D01*
X3493Y2998D01*
X3433Y3032D02*
X3425Y3040D01*
X3408D01*
X3400Y3032D01*
Y2998D01*
X3408Y2990D01*
X3425D01*
X3433Y2998D01*
D110*
X2678Y3645D02*
G03*
X2678Y3645I-20J0D01*
G01*
X3162D02*
G03*
X3162Y3645I-20J0D01*
G01*
X4935Y3050D02*
G03*
X4935Y3050I-20J0D01*
G01*
X4835D02*
G03*
X4835Y3050I-20J0D01*
G01*
X4735D02*
G03*
X4735Y3050I-20J0D01*
G01*
X4635D02*
G03*
X4635Y3050I-20J0D01*
G01*
X4535D02*
G03*
X4535Y3050I-20J0D01*
G01*
X4435D02*
G03*
X4435Y3050I-20J0D01*
G01*
X4335D02*
G03*
X4335Y3050I-20J0D01*
G01*
X4235D02*
G03*
X4235Y3050I-20J0D01*
G01*
Y2650D02*
G03*
X4235Y2650I-20J0D01*
G01*
X4335D02*
G03*
X4335Y2650I-20J0D01*
G01*
X4435D02*
G03*
X4435Y2650I-20J0D01*
G01*
X4535D02*
G03*
X4535Y2650I-20J0D01*
G01*
X4635D02*
G03*
X4635Y2650I-20J0D01*
G01*
X4735D02*
G03*
X4735Y2650I-20J0D01*
G01*
X4835D02*
G03*
X4835Y2650I-20J0D01*
G01*
X4935D02*
G03*
X4935Y2650I-20J0D01*
G01*
D111*
X2670Y3645D02*
G03*
X2670Y3645I-12J0D01*
G01*
X3154D02*
G03*
X3154Y3645I-12J0D01*
G01*
M02*
