G04*
G04 #@! TF.GenerationSoftware,Altium Limited,Altium Designer,25.5.2 (35)*
G04*
G04 Layer_Color=16711935*
%FSLAX23Y23*%
%MOIN*%
G70*
G04*
G04 #@! TF.SameCoordinates,10694D88-6559-4D2D-811B-EC1DD4263B2B*
G04*
G04*
G04 #@! TF.FilePolarity,Positive*
G04*
G01*
G75*
%ADD11C,0.008*%
%ADD12C,0.020*%
%ADD14C,0.005*%
%ADD16C,0.003*%
%ADD108C,0.000*%
%ADD109C,0.001*%
D11*
X3457Y2898D02*
G03*
X3457Y2898I-4J0D01*
G01*
X1762Y1773D02*
G03*
X1762Y1773I-4J0D01*
G01*
X5357Y2438D02*
G03*
X5357Y2438I-4J0D01*
G01*
X1067Y3398D02*
G03*
X1067Y3398I-4J0D01*
G01*
X2746Y3527D02*
G03*
X2746Y3527I-4J0D01*
G01*
X3029Y3510D02*
G03*
X3029Y3510I-4J0D01*
G01*
X3109Y1495D02*
G03*
X3109Y1495I-4J0D01*
G01*
X3619Y3370D02*
G03*
X3619Y3370I-4J0D01*
G01*
X4919Y3126D02*
G03*
X4919Y3126I-4J0D01*
G01*
X1386Y1283D02*
G03*
X1386Y1283I-4J0D01*
G01*
D12*
X3639Y3554D02*
G03*
X3639Y3554I-15J0D01*
G01*
X3835Y1189D02*
G03*
X3835Y1189I-15J0D01*
G01*
X5280Y2179D02*
G03*
X5280Y2179I-15J0D01*
G01*
X5920Y1729D02*
G03*
X5920Y1729I-15J0D01*
G01*
X1405Y2346D02*
G03*
X1405Y2346I-15J0D01*
G01*
D14*
X5881Y2848D02*
G03*
X5881Y2848I-236J0D01*
G01*
X5749Y2445D02*
Y2495D01*
X5671Y2445D02*
Y2495D01*
Y2445D02*
X5749D01*
X5671Y2495D02*
X5749D01*
X4616Y2180D02*
X4694D01*
X4616Y2130D02*
X4694D01*
X4616D02*
Y2180D01*
X4694Y2130D02*
Y2180D01*
X3491Y2909D02*
X3569D01*
X3491Y2831D02*
Y2909D01*
Y2831D02*
X3569D01*
Y2909D01*
X1874Y1706D02*
Y1784D01*
X1796Y1706D02*
X1874D01*
X1796D02*
Y1784D01*
X1874D01*
X5391Y2449D02*
X5469D01*
X5391Y2371D02*
Y2449D01*
Y2371D02*
X5469D01*
Y2449D01*
X1179Y3331D02*
Y3409D01*
X1101Y3331D02*
X1179D01*
X1101D02*
Y3409D01*
X1179D01*
X2650Y3556D02*
Y3734D01*
X2782D01*
X3018D01*
X3150D01*
Y3556D02*
Y3734D01*
X2650Y3556D02*
X3150D01*
X2782Y3734D02*
Y3812D01*
X3018D01*
Y3734D02*
Y3812D01*
X3824Y3506D02*
X3926D01*
Y3444D02*
Y3506D01*
X3824Y3444D02*
X3926D01*
X3824D02*
Y3506D01*
X5844Y2444D02*
X5946D01*
X5844D02*
Y2506D01*
X5946D01*
Y2444D02*
Y2506D01*
X3007Y3321D02*
Y3459D01*
Y3321D02*
X3263D01*
Y3459D01*
X3007D02*
X3263D01*
X3357Y1307D02*
Y1503D01*
X3183Y1307D02*
Y1503D01*
Y1307D02*
X3357D01*
X3183Y1503D02*
X3357D01*
X3427Y3118D02*
X3623D01*
X3427Y3292D02*
X3623D01*
X3427Y3118D02*
Y3292D01*
X3623Y3118D02*
Y3292D01*
X3774Y2598D02*
X5356D01*
X3774D02*
Y3102D01*
X5356D01*
Y2598D02*
Y3102D01*
X1716Y1364D02*
Y1836D01*
X1244Y1364D02*
X1716D01*
X1244D02*
Y1836D01*
X1716D01*
X2717Y1234D02*
X2903D01*
X2717Y1682D02*
X2903D01*
X2717Y1234D02*
Y1682D01*
X2903Y1234D02*
Y1682D01*
X2620Y1436D02*
X2670D01*
X2620Y1514D02*
X2670D01*
X2620Y1436D02*
Y1514D01*
X2670Y1436D02*
Y1514D01*
X2034Y2805D02*
Y2855D01*
X1956Y2805D02*
Y2855D01*
Y2805D02*
X2034D01*
X1956Y2855D02*
X2034D01*
Y2735D02*
Y2785D01*
X1956Y2735D02*
Y2785D01*
Y2735D02*
X2034D01*
X1956Y2785D02*
X2034D01*
X2591Y1245D02*
Y1295D01*
X2669Y1245D02*
Y1295D01*
X2591D02*
X2669D01*
X2591Y1245D02*
X2669D01*
X2804Y1785D02*
Y1835D01*
X2726Y1785D02*
Y1835D01*
Y1785D02*
X2804D01*
X2726Y1835D02*
X2804D01*
X1340Y3079D02*
X1390D01*
X1340Y3001D02*
X1390D01*
Y3079D01*
X1340Y3001D02*
Y3079D01*
X3205Y3096D02*
X3255D01*
X3205Y3174D02*
X3255D01*
X3205Y3096D02*
Y3174D01*
X3255Y3096D02*
Y3174D01*
X3051Y3120D02*
Y3170D01*
X3129Y3120D02*
Y3170D01*
X3051D02*
X3129D01*
X3051Y3120D02*
X3129D01*
X3105Y1671D02*
X3155D01*
X3105Y1749D02*
X3155D01*
X3105Y1671D02*
Y1749D01*
X3155Y1671D02*
Y1749D01*
X2416Y1400D02*
Y1450D01*
X2494Y1400D02*
Y1450D01*
X2416D02*
X2494D01*
X2416Y1400D02*
X2494D01*
X2550Y1436D02*
X2600D01*
X2550Y1514D02*
X2600D01*
X2550Y1436D02*
Y1514D01*
X2600Y1436D02*
Y1514D01*
X2020Y1554D02*
X2070D01*
X2020Y1476D02*
X2070D01*
Y1554D01*
X2020Y1476D02*
Y1554D01*
X2416Y1330D02*
Y1380D01*
X2494Y1330D02*
Y1380D01*
X2416D02*
X2494D01*
X2416Y1330D02*
X2494D01*
X2595Y1754D02*
X2645D01*
X2595Y1676D02*
X2645D01*
Y1754D01*
X2595Y1676D02*
Y1754D01*
X2174Y1895D02*
Y1945D01*
X2096Y1895D02*
Y1945D01*
Y1895D02*
X2174D01*
X2096Y1945D02*
X2174D01*
X4101Y2150D02*
Y2200D01*
X4179Y2150D02*
Y2200D01*
X4101D02*
X4179D01*
X4101Y2150D02*
X4179D01*
X4101Y1952D02*
Y2002D01*
X4179Y1952D02*
Y2002D01*
X4101D02*
X4179D01*
X4101Y1952D02*
X4179D01*
X4101Y1160D02*
Y1210D01*
X4179Y1160D02*
Y1210D01*
X4101D02*
X4179D01*
X4101Y1160D02*
X4179D01*
X4101Y1754D02*
Y1804D01*
X4179Y1754D02*
Y1804D01*
X4101D02*
X4179D01*
X4101Y1754D02*
X4179D01*
X4101Y1556D02*
Y1606D01*
X4179Y1556D02*
Y1606D01*
X4101D02*
X4179D01*
X4101Y1556D02*
X4179D01*
X4101Y1358D02*
Y1408D01*
X4179Y1358D02*
Y1408D01*
X4101D02*
X4179D01*
X4101Y1358D02*
X4179D01*
X1860Y3546D02*
X1910D01*
X1860Y3624D02*
X1910D01*
X1860Y3546D02*
Y3624D01*
X1910Y3546D02*
Y3624D01*
X1885Y2131D02*
X1935D01*
X1885Y2209D02*
X1935D01*
X1885Y2131D02*
Y2209D01*
X1935Y2131D02*
Y2209D01*
X3081Y2700D02*
Y2750D01*
X3159Y2700D02*
Y2750D01*
X3081D02*
X3159D01*
X3081Y2700D02*
X3159D01*
X1209Y2695D02*
Y2745D01*
X1131Y2695D02*
Y2745D01*
Y2695D02*
X1209D01*
X1131Y2745D02*
X1209D01*
X4675Y3236D02*
X4725D01*
X4675Y3314D02*
X4725D01*
X4675Y3236D02*
Y3314D01*
X4725Y3236D02*
Y3314D01*
X4280Y2416D02*
X4330D01*
X4280Y2494D02*
X4330D01*
X4280Y2416D02*
Y2494D01*
X4330Y2416D02*
Y2494D01*
X4390Y3226D02*
X4440D01*
X4390Y3304D02*
X4440D01*
X4390Y3226D02*
Y3304D01*
X4440Y3226D02*
Y3304D01*
X3955Y3231D02*
X4005D01*
X3955Y3309D02*
X4005D01*
X3955Y3231D02*
Y3309D01*
X4005Y3231D02*
Y3309D01*
X1550Y2151D02*
X1600D01*
X1550Y2072D02*
X1600D01*
Y2151D01*
X1550Y2072D02*
Y2151D01*
X5220Y3231D02*
X5270D01*
X5220Y3309D02*
X5270D01*
X5220Y3231D02*
Y3309D01*
X5270Y3231D02*
Y3309D01*
X4955Y3231D02*
X5005D01*
X4955Y3309D02*
X5005D01*
X4955Y3231D02*
Y3309D01*
X5005Y3231D02*
Y3309D01*
X1575Y3556D02*
X1625D01*
X1575Y3634D02*
X1625D01*
X1575Y3556D02*
Y3634D01*
X1625Y3556D02*
Y3634D01*
X1280Y3556D02*
X1330D01*
X1280Y3634D02*
X1330D01*
X1280Y3556D02*
Y3634D01*
X1330Y3556D02*
Y3634D01*
X1430Y3556D02*
X1480D01*
X1430Y3634D02*
X1480D01*
X1430Y3556D02*
Y3634D01*
X1480Y3556D02*
Y3634D01*
X1460Y2076D02*
X1510D01*
X1460Y2154D02*
X1510D01*
X1460Y2076D02*
Y2154D01*
X1510Y2076D02*
Y2154D01*
X1150Y2159D02*
X1200D01*
X1150Y2081D02*
X1200D01*
Y2159D01*
X1150Y2081D02*
Y2159D01*
X2034Y2880D02*
Y2930D01*
X1956Y2880D02*
Y2930D01*
Y2880D02*
X2034D01*
X1956Y2930D02*
X2034D01*
X1075Y2079D02*
X1125D01*
X1075Y2158D02*
X1125D01*
X1075Y2079D02*
Y2158D01*
X1125Y2079D02*
Y2158D01*
X3035Y1749D02*
X3085D01*
X3035Y1671D02*
X3085D01*
Y1749D01*
X3035Y1671D02*
Y1749D01*
X3190Y3174D02*
X3240D01*
X3190Y3096D02*
X3240D01*
X3190D02*
Y3174D01*
X3240Y3096D02*
Y3174D01*
X1396Y1130D02*
Y1180D01*
X1474Y1130D02*
Y1180D01*
X1396D02*
X1474D01*
X1396Y1130D02*
X1474D01*
X5951Y2770D02*
Y2820D01*
X6029Y2770D02*
Y2820D01*
X5951D02*
X6029D01*
X5951Y2770D02*
X6029D01*
X3355Y3321D02*
X3405D01*
X3355Y3399D02*
X3405D01*
Y3321D02*
Y3399D01*
X3355Y3321D02*
Y3399D01*
X2910Y3396D02*
X2960D01*
X2910Y3317D02*
X2960D01*
X2910D02*
Y3396D01*
X2960Y3317D02*
Y3396D01*
X2920Y2001D02*
X2970D01*
X2920Y2079D02*
X2970D01*
X2920Y2001D02*
Y2079D01*
X2970Y2001D02*
Y2079D01*
X5023Y3504D02*
X5072D01*
X5023Y3426D02*
X5072D01*
Y3504D01*
X5023Y3426D02*
Y3504D01*
X3129Y3055D02*
Y3105D01*
X3051Y3055D02*
Y3105D01*
X3129D01*
X3051Y3055D02*
X3129D01*
X4585Y3494D02*
X4635D01*
X4585Y3416D02*
X4635D01*
Y3494D01*
X4585Y3416D02*
Y3494D01*
X4030Y3509D02*
X4080D01*
X4030Y3431D02*
X4080D01*
Y3509D01*
X4030Y3431D02*
Y3509D01*
D16*
X1743Y2729D02*
X1710Y2763D01*
X1743D02*
X1710Y2729D01*
X1743Y2746D02*
X1710D01*
X1726Y2763D02*
Y2729D01*
X3289Y2454D02*
X3323Y2487D01*
Y2454D02*
X3289Y2487D01*
X3306Y2454D02*
Y2487D01*
X3323Y2471D02*
X3289D01*
X3698Y3299D02*
X3731Y3333D01*
X3698D02*
X3731Y3299D01*
X3698Y3316D02*
X3731D01*
X3715Y3333D02*
Y3299D01*
X2485Y2822D02*
X2518Y2855D01*
Y2822D02*
X2485Y2855D01*
X2501Y2822D02*
Y2855D01*
X2518Y2838D02*
X2485D01*
X3306Y1853D02*
X3273Y1886D01*
X3306D02*
X3273Y1853D01*
X3306Y1870D02*
X3273D01*
X3289Y1886D02*
Y1853D01*
X2527Y1525D02*
X2494Y1559D01*
X2527D02*
X2494Y1525D01*
X2527Y1542D02*
X2494D01*
X2511Y1559D02*
Y1525D01*
D108*
X1652Y2718D02*
G03*
X1628Y2718I-12J0D01*
G01*
X3278Y2518D02*
G03*
X3278Y2542I0J12D01*
G01*
X6001Y2872D02*
G03*
X6001Y2872I-3J0D01*
G01*
X3737Y3288D02*
G03*
X3713Y3288I-12J0D01*
G01*
X2524Y2943D02*
G03*
X2524Y2967I0J12D01*
G01*
X3286Y3405D02*
G03*
X3286Y3405I-5J0D01*
G01*
X3039Y3313D02*
G03*
X3039Y3313I-5J0D01*
G01*
X3227Y1832D02*
G03*
X3203Y1832I-12J0D01*
G01*
D109*
X3048Y2803D02*
X3182D01*
X3048D02*
Y2977D01*
X3182D01*
Y2803D02*
Y2977D01*
X1745Y2747D02*
Y2761D01*
Y2747D02*
X1796D01*
Y2761D01*
X1745D02*
X1796D01*
X1745Y2772D02*
Y2786D01*
Y2772D02*
X1796D01*
Y2786D01*
X1745D02*
X1796D01*
X1745Y2798D02*
Y2812D01*
Y2798D02*
X1796D01*
Y2812D01*
X1745D02*
X1796D01*
X1745Y2823D02*
Y2837D01*
Y2823D02*
X1796D01*
Y2837D01*
X1745D02*
X1796D01*
X1745Y2849D02*
Y2863D01*
Y2849D02*
X1796D01*
Y2863D01*
X1745D02*
X1796D01*
X1745Y2875D02*
Y2889D01*
Y2875D02*
X1796D01*
Y2889D01*
X1745D02*
X1796D01*
X1745Y2900D02*
Y2914D01*
Y2900D02*
X1796D01*
Y2914D01*
X1745D02*
X1796D01*
X1745Y2926D02*
Y2940D01*
Y2926D02*
X1796D01*
Y2940D01*
X1745D02*
X1796D01*
X1745Y2951D02*
Y2965D01*
Y2951D02*
X1796D01*
Y2965D01*
X1745D02*
X1796D01*
X1745Y2977D02*
Y2991D01*
Y2977D02*
X1796D01*
Y2991D01*
X1745D02*
X1796D01*
X1745Y3003D02*
Y3017D01*
Y3003D02*
X1796D01*
Y3017D01*
X1745D02*
X1796D01*
X1745Y3028D02*
Y3042D01*
Y3028D02*
X1796D01*
Y3042D01*
X1745D02*
X1796D01*
X1745Y3054D02*
Y3068D01*
Y3054D02*
X1796D01*
Y3068D01*
X1745D02*
X1796D01*
X1745Y3079D02*
Y3093D01*
Y3079D02*
X1796D01*
Y3093D01*
X1745D02*
X1796D01*
X1535Y3079D02*
Y3093D01*
X1484D02*
X1535D01*
X1484Y3079D02*
Y3093D01*
Y3079D02*
X1535D01*
Y3054D02*
Y3068D01*
X1484D02*
X1535D01*
X1484Y3054D02*
Y3068D01*
Y3054D02*
X1535D01*
Y3028D02*
Y3042D01*
X1484D02*
X1535D01*
X1484Y3028D02*
Y3042D01*
Y3028D02*
X1535D01*
Y3003D02*
Y3017D01*
X1484D02*
X1535D01*
X1484Y3003D02*
Y3017D01*
Y3003D02*
X1535D01*
Y2977D02*
Y2991D01*
X1484D02*
X1535D01*
X1484Y2977D02*
Y2991D01*
Y2977D02*
X1535D01*
Y2951D02*
Y2965D01*
X1484D02*
X1535D01*
X1484Y2951D02*
Y2965D01*
Y2951D02*
X1535D01*
Y2926D02*
Y2940D01*
X1484D02*
X1535D01*
X1484Y2926D02*
Y2940D01*
Y2926D02*
X1535D01*
Y2900D02*
Y2914D01*
X1484D02*
X1535D01*
X1484Y2900D02*
Y2914D01*
Y2900D02*
X1535D01*
Y2875D02*
Y2889D01*
X1484D02*
X1535D01*
X1484Y2875D02*
Y2889D01*
Y2875D02*
X1535D01*
Y2849D02*
Y2863D01*
X1484D02*
X1535D01*
X1484Y2849D02*
Y2863D01*
Y2849D02*
X1535D01*
Y2823D02*
Y2837D01*
X1484D02*
X1535D01*
X1484Y2823D02*
Y2837D01*
Y2823D02*
X1535D01*
Y2798D02*
Y2812D01*
X1484D02*
X1535D01*
X1484Y2798D02*
Y2812D01*
Y2798D02*
X1535D01*
Y2772D02*
Y2786D01*
X1484D02*
X1535D01*
X1484Y2772D02*
Y2786D01*
Y2772D02*
X1535D01*
Y2747D02*
Y2761D01*
X1484D02*
X1535D01*
X1484Y2747D02*
Y2761D01*
Y2747D02*
X1535D01*
Y3122D02*
X1745D01*
X1535Y2718D02*
Y3122D01*
Y2718D02*
X1745D01*
Y3122D01*
X3290Y2451D02*
X3310D01*
X3290Y2408D02*
Y2451D01*
Y2408D02*
X3310D01*
Y2451D01*
X3340D02*
X3360D01*
X3340Y2408D02*
Y2451D01*
Y2408D02*
X3360D01*
Y2451D01*
X3390D02*
X3410D01*
X3390Y2408D02*
Y2451D01*
Y2408D02*
X3410D01*
Y2451D01*
X3440D02*
X3460D01*
X3440Y2408D02*
Y2451D01*
Y2408D02*
X3460D01*
Y2451D01*
X3490D02*
X3510D01*
X3490Y2408D02*
Y2451D01*
Y2408D02*
X3510D01*
Y2451D01*
X3540D02*
X3560D01*
X3540Y2408D02*
Y2451D01*
Y2408D02*
X3560D01*
Y2451D01*
X3590D02*
X3610D01*
X3590Y2408D02*
Y2451D01*
Y2408D02*
X3610D01*
Y2451D01*
X3640D02*
X3660D01*
X3640Y2408D02*
Y2451D01*
Y2408D02*
X3660D01*
Y2451D01*
X3640Y2609D02*
X3660D01*
Y2652D01*
X3640D02*
X3660D01*
X3640Y2609D02*
Y2652D01*
X3590Y2609D02*
X3610D01*
Y2652D01*
X3590D02*
X3610D01*
X3590Y2609D02*
Y2652D01*
X3540Y2609D02*
X3560D01*
Y2652D01*
X3540D02*
X3560D01*
X3540Y2609D02*
Y2652D01*
X3490Y2609D02*
X3510D01*
Y2652D01*
X3490D02*
X3510D01*
X3490Y2609D02*
Y2652D01*
X3440Y2609D02*
X3460D01*
Y2652D01*
X3440D02*
X3460D01*
X3440Y2609D02*
Y2652D01*
X3390Y2609D02*
X3410D01*
Y2652D01*
X3390D02*
X3410D01*
X3390Y2609D02*
Y2652D01*
X3340Y2609D02*
X3360D01*
Y2652D01*
X3340D02*
X3360D01*
X3340Y2609D02*
Y2652D01*
X3290Y2609D02*
X3310D01*
Y2652D01*
X3290D02*
X3310D01*
X3290Y2609D02*
Y2652D01*
X3672Y2451D02*
Y2609D01*
X3278D02*
X3672D01*
X3278Y2451D02*
Y2609D01*
Y2451D02*
X3672D01*
X5952Y2850D02*
X6008D01*
X5952D02*
Y2970D01*
X6008D01*
Y2850D02*
Y2970D01*
X5928Y2900D02*
X5952D01*
X5928D02*
Y2920D01*
X5952D01*
Y2900D02*
Y2920D01*
X6008Y2958D02*
X6032D01*
Y2938D02*
Y2958D01*
X6008Y2938D02*
X6032D01*
X6008D02*
Y2958D01*
Y2882D02*
X6032D01*
Y2862D02*
Y2882D01*
X6008Y2862D02*
X6032D01*
X6008D02*
Y2882D01*
X3695Y3288D02*
Y3402D01*
Y3288D02*
X3754D01*
Y3402D01*
X3695D02*
X3754D01*
Y3300D02*
X3784D01*
Y3316D01*
X3754D02*
X3784D01*
X3754Y3300D02*
Y3316D01*
Y3337D02*
X3784D01*
Y3353D01*
X3754D02*
X3784D01*
X3754Y3337D02*
Y3353D01*
Y3374D02*
X3784D01*
Y3390D01*
X3754D02*
X3784D01*
X3754Y3374D02*
Y3390D01*
X3666D02*
X3695D01*
X3666Y3374D02*
Y3390D01*
Y3374D02*
X3695D01*
Y3390D01*
X3666Y3353D02*
X3695D01*
X3666Y3337D02*
Y3353D01*
Y3337D02*
X3695D01*
Y3353D01*
X3666Y3316D02*
X3695D01*
X3666Y3300D02*
Y3316D01*
Y3300D02*
X3695D01*
Y3316D01*
X2524Y2866D02*
X2726D01*
X2524D02*
Y3043D01*
X2726D01*
Y2866D02*
Y3043D01*
X2529D02*
Y3085D01*
X2541D01*
Y3043D02*
Y3085D01*
X2529Y3043D02*
X2541D01*
X2555D02*
Y3085D01*
X2567D01*
Y3043D02*
Y3085D01*
X2555Y3043D02*
X2567D01*
X2581D02*
Y3085D01*
X2593D01*
Y3043D02*
Y3085D01*
X2581Y3043D02*
X2593D01*
X2606D02*
Y3085D01*
X2618D01*
Y3043D02*
Y3085D01*
X2606Y3043D02*
X2618D01*
X2632D02*
Y3085D01*
X2644D01*
Y3043D02*
Y3085D01*
X2632Y3043D02*
X2644D01*
X2657D02*
Y3085D01*
X2669D01*
Y3043D02*
Y3085D01*
X2657Y3043D02*
X2669D01*
X2683D02*
Y3085D01*
X2695D01*
Y3043D02*
Y3085D01*
X2683Y3043D02*
X2695D01*
X2709D02*
Y3085D01*
X2721D01*
Y3043D02*
Y3085D01*
X2709Y3043D02*
X2721D01*
Y2825D02*
Y2866D01*
X2709Y2825D02*
X2721D01*
X2709D02*
Y2866D01*
X2721D01*
X2695Y2825D02*
Y2866D01*
X2683Y2825D02*
X2695D01*
X2683D02*
Y2866D01*
X2695D01*
X2669Y2825D02*
Y2866D01*
X2657Y2825D02*
X2669D01*
X2657D02*
Y2866D01*
X2669D01*
X2644Y2825D02*
Y2866D01*
X2632Y2825D02*
X2644D01*
X2632D02*
Y2866D01*
X2644D01*
X2618Y2825D02*
Y2866D01*
X2606Y2825D02*
X2618D01*
X2606D02*
Y2866D01*
X2618D01*
X2593Y2825D02*
Y2866D01*
X2581Y2825D02*
X2593D01*
X2581D02*
Y2866D01*
X2593D01*
X2567Y2825D02*
Y2866D01*
X2555Y2825D02*
X2567D01*
X2555D02*
Y2866D01*
X2567D01*
X2541Y2825D02*
Y2866D01*
X2529Y2825D02*
X2541D01*
X2529D02*
Y2866D01*
X2541D01*
X3312Y3763D02*
X3635D01*
Y3521D02*
Y3763D01*
X3312Y3521D02*
X3635D01*
X3312D02*
Y3763D01*
X3292Y3385D02*
Y3405D01*
X3305D01*
Y3385D02*
Y3405D01*
X3292Y3385D02*
X3305D01*
X3292Y3310D02*
Y3330D01*
X3305D01*
Y3310D02*
Y3330D01*
X3292Y3310D02*
X3305D01*
X3220Y3348D02*
Y3368D01*
X3207Y3348D02*
X3220D01*
X3207D02*
Y3368D01*
X3220D01*
X3292Y3301D02*
Y3415D01*
X3220Y3301D02*
X3292D01*
X3220D02*
Y3415D01*
X3292D01*
X3024Y3313D02*
Y3333D01*
X3011Y3313D02*
X3024D01*
X3011D02*
Y3333D01*
X3024D01*
Y3387D02*
Y3407D01*
X3011Y3387D02*
X3024D01*
X3011D02*
Y3407D01*
X3024D01*
X3095Y3350D02*
Y3370D01*
X3109D01*
Y3350D02*
Y3370D01*
X3095Y3350D02*
X3109D01*
X3024Y3303D02*
Y3417D01*
X3095D01*
Y3303D02*
Y3417D01*
X3024Y3303D02*
X3095D01*
X3303Y1853D02*
Y1865D01*
Y1853D02*
X3345D01*
Y1865D01*
X3303D02*
X3345D01*
X3303Y1878D02*
Y1890D01*
Y1878D02*
X3345D01*
Y1890D01*
X3303D02*
X3345D01*
X3303Y1904D02*
Y1916D01*
Y1904D02*
X3345D01*
Y1916D01*
X3303D02*
X3345D01*
X3303Y1929D02*
Y1941D01*
Y1929D02*
X3345D01*
Y1941D01*
X3303D02*
X3345D01*
X3303Y1955D02*
Y1967D01*
Y1955D02*
X3345D01*
Y1967D01*
X3303D02*
X3345D01*
X3303Y1981D02*
Y1993D01*
Y1981D02*
X3345D01*
Y1993D01*
X3303D02*
X3345D01*
X3303Y2006D02*
Y2018D01*
Y2006D02*
X3345D01*
Y2018D01*
X3303D02*
X3345D01*
X3303Y2032D02*
Y2044D01*
Y2032D02*
X3345D01*
Y2044D01*
X3303D02*
X3345D01*
X3303Y2057D02*
Y2069D01*
Y2057D02*
X3345D01*
Y2069D01*
X3303D02*
X3345D01*
X3303Y2083D02*
Y2095D01*
Y2083D02*
X3345D01*
Y2095D01*
X3303D02*
X3345D01*
X3303Y2109D02*
Y2121D01*
Y2109D02*
X3345D01*
Y2121D01*
X3303D02*
X3345D01*
X3303Y2134D02*
Y2146D01*
Y2134D02*
X3345D01*
Y2146D01*
X3303D02*
X3345D01*
X3303Y2160D02*
Y2172D01*
Y2160D02*
X3345D01*
Y2172D01*
X3303D02*
X3345D01*
X3303Y2185D02*
Y2197D01*
Y2185D02*
X3345D01*
Y2197D01*
X3303D02*
X3345D01*
X3126Y2185D02*
Y2197D01*
X3085D02*
X3126D01*
X3085Y2185D02*
Y2197D01*
Y2185D02*
X3126D01*
Y2160D02*
Y2172D01*
X3085D02*
X3126D01*
X3085Y2160D02*
Y2172D01*
Y2160D02*
X3126D01*
Y2134D02*
Y2146D01*
X3085D02*
X3126D01*
X3085Y2134D02*
Y2146D01*
Y2134D02*
X3126D01*
Y2109D02*
Y2121D01*
X3085D02*
X3126D01*
X3085Y2109D02*
Y2121D01*
Y2109D02*
X3126D01*
Y2083D02*
Y2095D01*
X3085D02*
X3126D01*
X3085Y2083D02*
Y2095D01*
Y2083D02*
X3126D01*
Y2057D02*
Y2069D01*
X3085D02*
X3126D01*
X3085Y2057D02*
Y2069D01*
Y2057D02*
X3126D01*
Y2032D02*
Y2044D01*
X3085D02*
X3126D01*
X3085Y2032D02*
Y2044D01*
Y2032D02*
X3126D01*
Y2006D02*
Y2018D01*
X3085D02*
X3126D01*
X3085Y2006D02*
Y2018D01*
Y2006D02*
X3126D01*
Y1981D02*
Y1993D01*
X3085D02*
X3126D01*
X3085Y1981D02*
Y1993D01*
Y1981D02*
X3126D01*
Y1955D02*
Y1967D01*
X3085D02*
X3126D01*
X3085Y1955D02*
Y1967D01*
Y1955D02*
X3126D01*
Y1929D02*
Y1941D01*
X3085D02*
X3126D01*
X3085Y1929D02*
Y1941D01*
Y1929D02*
X3126D01*
Y1904D02*
Y1916D01*
X3085D02*
X3126D01*
X3085Y1904D02*
Y1916D01*
Y1904D02*
X3126D01*
Y1878D02*
Y1890D01*
X3085D02*
X3126D01*
X3085Y1878D02*
Y1890D01*
Y1878D02*
X3126D01*
Y1853D02*
Y1865D01*
X3085D02*
X3126D01*
X3085Y1853D02*
Y1865D01*
Y1853D02*
X3126D01*
Y2218D02*
X3303D01*
X3126Y1832D02*
Y2218D01*
Y1832D02*
X3303D01*
Y2218D01*
X3491Y1091D02*
X4001D01*
X3491D02*
Y2280D01*
X4001D01*
Y1091D02*
Y2280D01*
X5084Y2277D02*
X5594D01*
Y1088D02*
Y2277D01*
X5084Y1088D02*
X5594D01*
X5084D02*
Y2277D01*
X1985Y1136D02*
Y1270D01*
X2235D01*
Y1136D02*
Y1270D01*
X1985Y1136D02*
X2235D01*
X5633Y1237D02*
Y1827D01*
Y1237D02*
X5987D01*
Y1827D01*
X5633D02*
X5987D01*
X1071Y2425D02*
X1229D01*
X1071D02*
Y2504D01*
X1229D01*
Y2256D02*
Y2595D01*
X1401D01*
Y2256D02*
Y2595D01*
X1229Y2256D02*
X1401D01*
X4551Y3243D02*
Y3296D01*
X4639D01*
Y3243D02*
Y3296D01*
X4551Y3243D02*
X4639D01*
X4587Y3296D02*
Y3313D01*
X4603D01*
Y3296D02*
Y3313D01*
X4587Y3296D02*
X4603D01*
X4629Y3227D02*
Y3243D01*
X4613Y3227D02*
X4629D01*
X4613D02*
Y3243D01*
X4629D01*
X4577Y3227D02*
Y3243D01*
X4561Y3227D02*
X4577D01*
X4561D02*
Y3243D01*
X4577D01*
X4161Y2434D02*
Y2487D01*
X4248D01*
Y2434D02*
Y2487D01*
X4161Y2434D02*
X4248D01*
X4197Y2487D02*
Y2503D01*
X4213D01*
Y2487D02*
Y2503D01*
X4197Y2487D02*
X4213D01*
X4239Y2417D02*
Y2434D01*
X4223Y2417D02*
X4239D01*
X4223D02*
Y2434D01*
X4239D01*
X4187Y2417D02*
Y2434D01*
X4171Y2417D02*
X4187D01*
X4171D02*
Y2434D01*
X4187D01*
X3937Y2448D02*
Y2501D01*
X4023D01*
Y2448D02*
Y2501D01*
X3937Y2448D02*
X4023D01*
X3972Y2501D02*
Y2519D01*
X3988D01*
Y2501D02*
Y2519D01*
X3972Y2501D02*
X3988D01*
X4014Y2431D02*
Y2448D01*
X3998Y2431D02*
X4014D01*
X3998D02*
Y2448D01*
X4014D01*
X3962Y2431D02*
Y2448D01*
X3946Y2431D02*
X3962D01*
X3946D02*
Y2448D01*
X3962D01*
X4266Y3243D02*
Y3296D01*
X4353D01*
Y3243D02*
Y3296D01*
X4266Y3243D02*
X4353D01*
X4302Y3296D02*
Y3313D01*
X4318D01*
Y3296D02*
Y3313D01*
X4302Y3296D02*
X4318D01*
X4344Y3227D02*
Y3243D01*
X4328Y3227D02*
X4344D01*
X4328D02*
Y3243D01*
X4344D01*
X4292Y3227D02*
Y3243D01*
X4276Y3227D02*
X4292D01*
X4276D02*
Y3243D01*
X4292D01*
X3836Y3249D02*
Y3302D01*
X3924D01*
Y3249D02*
Y3302D01*
X3836Y3249D02*
X3924D01*
X3872Y3302D02*
Y3319D01*
X3888D01*
Y3302D02*
Y3319D01*
X3872Y3302D02*
X3888D01*
X3914Y3231D02*
Y3249D01*
X3898Y3231D02*
X3914D01*
X3898D02*
Y3249D01*
X3914D01*
X3862Y3231D02*
Y3249D01*
X3846Y3231D02*
X3862D01*
X3846D02*
Y3249D01*
X3862D01*
X5087Y3243D02*
Y3296D01*
X5174D01*
Y3243D02*
Y3296D01*
X5087Y3243D02*
X5174D01*
X5122Y3296D02*
Y3313D01*
X5138D01*
Y3296D02*
Y3313D01*
X5122Y3296D02*
X5138D01*
X5164Y3227D02*
Y3243D01*
X5148Y3227D02*
X5164D01*
X5148D02*
Y3243D01*
X5164D01*
X5112Y3227D02*
Y3243D01*
X5096Y3227D02*
X5112D01*
X5096D02*
Y3243D01*
X5112D01*
X4821Y3243D02*
Y3296D01*
X4909D01*
Y3243D02*
Y3296D01*
X4821Y3243D02*
X4909D01*
X4857Y3296D02*
Y3313D01*
X4873D01*
Y3296D02*
Y3313D01*
X4857Y3296D02*
X4873D01*
X4899Y3226D02*
Y3243D01*
X4883Y3226D02*
X4899D01*
X4883D02*
Y3243D01*
X4899D01*
X4847Y3226D02*
Y3243D01*
X4831Y3226D02*
X4847D01*
X4831D02*
Y3243D01*
X4847D01*
X1997Y3652D02*
X2170D01*
X1997Y3518D02*
Y3652D01*
Y3518D02*
X2170D01*
Y3652D01*
X1997Y2232D02*
X2170D01*
X1997Y2098D02*
Y2232D01*
Y2098D02*
X2170D01*
Y2232D01*
X1103Y2803D02*
Y2977D01*
Y2803D02*
X1237D01*
Y2977D01*
X1103D02*
X1237D01*
X2181Y1533D02*
X2192D01*
X2181Y1494D02*
Y1533D01*
Y1494D02*
X2192D01*
Y1533D01*
X2201D02*
X2212D01*
X2201Y1494D02*
Y1533D01*
Y1494D02*
X2212D01*
Y1533D01*
X2221D02*
X2232D01*
X2221Y1494D02*
Y1533D01*
Y1494D02*
X2232D01*
Y1533D01*
X2240D02*
X2251D01*
X2240Y1494D02*
Y1533D01*
Y1494D02*
X2251D01*
Y1533D01*
X2260D02*
X2271D01*
X2260Y1494D02*
Y1533D01*
Y1494D02*
X2271D01*
Y1533D01*
X2280D02*
X2291D01*
X2280Y1494D02*
Y1533D01*
Y1494D02*
X2291D01*
Y1533D01*
X2299D02*
X2310D01*
X2299Y1494D02*
Y1533D01*
Y1494D02*
X2310D01*
Y1533D01*
X2319D02*
X2330D01*
X2319Y1494D02*
Y1533D01*
Y1494D02*
X2330D01*
Y1533D01*
X2339D02*
X2350D01*
X2339Y1494D02*
Y1533D01*
Y1494D02*
X2350D01*
Y1533D01*
X2358D02*
X2369D01*
X2358Y1494D02*
Y1533D01*
Y1494D02*
X2369D01*
Y1533D01*
X2378D02*
X2389D01*
X2378Y1494D02*
Y1533D01*
Y1494D02*
X2389D01*
Y1533D01*
X2398D02*
X2409D01*
X2398Y1494D02*
Y1533D01*
Y1494D02*
X2409D01*
Y1533D01*
X2437Y1561D02*
Y1572D01*
Y1561D02*
X2476D01*
Y1572D01*
X2437D02*
X2476D01*
X2437Y1581D02*
Y1592D01*
Y1581D02*
X2476D01*
Y1592D01*
X2437D02*
X2476D01*
X2437Y1601D02*
Y1612D01*
Y1601D02*
X2476D01*
Y1612D01*
X2437D02*
X2476D01*
X2437Y1620D02*
Y1631D01*
Y1620D02*
X2476D01*
Y1631D01*
X2437D02*
X2476D01*
X2437Y1640D02*
Y1651D01*
Y1640D02*
X2476D01*
Y1651D01*
X2437D02*
X2476D01*
X2437Y1660D02*
Y1671D01*
Y1660D02*
X2476D01*
Y1671D01*
X2437D02*
X2476D01*
X2437Y1679D02*
Y1690D01*
Y1679D02*
X2476D01*
Y1690D01*
X2437D02*
X2476D01*
X2437Y1699D02*
Y1710D01*
Y1699D02*
X2476D01*
Y1710D01*
X2437D02*
X2476D01*
X2437Y1719D02*
Y1730D01*
Y1719D02*
X2476D01*
Y1730D01*
X2437D02*
X2476D01*
X2437Y1738D02*
Y1749D01*
Y1738D02*
X2476D01*
Y1749D01*
X2437D02*
X2476D01*
X2437Y1758D02*
Y1769D01*
Y1758D02*
X2476D01*
Y1769D01*
X2437D02*
X2476D01*
X2437Y1778D02*
Y1789D01*
Y1778D02*
X2476D01*
Y1789D01*
X2437D02*
X2476D01*
X2398Y1817D02*
X2409D01*
Y1856D01*
X2398D02*
X2409D01*
X2398Y1817D02*
Y1856D01*
X2378Y1817D02*
X2389D01*
Y1856D01*
X2378D02*
X2389D01*
X2378Y1817D02*
Y1856D01*
X2358Y1817D02*
X2369D01*
Y1856D01*
X2358D02*
X2369D01*
X2358Y1817D02*
Y1856D01*
X2339Y1817D02*
X2350D01*
Y1856D01*
X2339D02*
X2350D01*
X2339Y1817D02*
Y1856D01*
X2319Y1817D02*
X2330D01*
Y1856D01*
X2319D02*
X2330D01*
X2319Y1817D02*
Y1856D01*
X2299Y1817D02*
X2310D01*
Y1856D01*
X2299D02*
X2310D01*
X2299Y1817D02*
Y1856D01*
X2280Y1817D02*
X2291D01*
Y1856D01*
X2280D02*
X2291D01*
X2280Y1817D02*
Y1856D01*
X2260Y1817D02*
X2271D01*
Y1856D01*
X2260D02*
X2271D01*
X2260Y1817D02*
Y1856D01*
X2240Y1817D02*
X2251D01*
Y1856D01*
X2240D02*
X2251D01*
X2240Y1817D02*
Y1856D01*
X2221Y1817D02*
X2232D01*
Y1856D01*
X2221D02*
X2232D01*
X2221Y1817D02*
Y1856D01*
X2201Y1817D02*
X2212D01*
Y1856D01*
X2201D02*
X2212D01*
X2201Y1817D02*
Y1856D01*
X2181Y1817D02*
X2192D01*
Y1856D01*
X2181D02*
X2192D01*
X2181Y1817D02*
Y1856D01*
X2153Y1778D02*
Y1789D01*
X2114D02*
X2153D01*
X2114Y1778D02*
Y1789D01*
Y1778D02*
X2153D01*
Y1758D02*
Y1769D01*
X2114D02*
X2153D01*
X2114Y1758D02*
Y1769D01*
Y1758D02*
X2153D01*
Y1738D02*
Y1749D01*
X2114D02*
X2153D01*
X2114Y1738D02*
Y1749D01*
Y1738D02*
X2153D01*
Y1719D02*
Y1730D01*
X2114D02*
X2153D01*
X2114Y1719D02*
Y1730D01*
Y1719D02*
X2153D01*
Y1699D02*
Y1710D01*
X2114D02*
X2153D01*
X2114Y1699D02*
Y1710D01*
Y1699D02*
X2153D01*
Y1679D02*
Y1690D01*
X2114D02*
X2153D01*
X2114Y1679D02*
Y1690D01*
Y1679D02*
X2153D01*
Y1660D02*
Y1671D01*
X2114D02*
X2153D01*
X2114Y1660D02*
Y1671D01*
Y1660D02*
X2153D01*
Y1640D02*
Y1651D01*
X2114D02*
X2153D01*
X2114Y1640D02*
Y1651D01*
Y1640D02*
X2153D01*
Y1620D02*
Y1631D01*
X2114D02*
X2153D01*
X2114Y1620D02*
Y1631D01*
Y1620D02*
X2153D01*
Y1601D02*
Y1612D01*
X2114D02*
X2153D01*
X2114Y1601D02*
Y1612D01*
Y1601D02*
X2153D01*
Y1581D02*
Y1592D01*
X2114D02*
X2153D01*
X2114Y1581D02*
Y1592D01*
Y1581D02*
X2153D01*
Y1561D02*
Y1572D01*
X2114D02*
X2153D01*
X2114Y1561D02*
Y1572D01*
Y1561D02*
X2153D01*
X2387Y1533D02*
X2437Y1583D01*
X2153Y1817D02*
X2437D01*
X2153Y1533D02*
Y1817D01*
Y1533D02*
X2437D01*
Y1817D01*
M02*
