G04*
G04 #@! TF.GenerationSoftware,Altium Limited,Altium Designer,25.5.2 (35)*
G04*
G04 Layer_Color=8388736*
%FSLAX23Y23*%
%MOIN*%
G70*
G04*
G04 #@! TF.SameCoordinates,10694D88-6559-4D2D-811B-EC1DD4263B2B*
G04*
G04*
G04 #@! TF.FilePolarity,Negative*
G04*
G01*
G75*
%ADD22R,0.011X0.058*%
%ADD23R,0.058X0.011*%
%ADD25R,0.018X0.044*%
G04:AMPARAMS|DCode=26|XSize=62mil|YSize=16mil|CornerRadius=2mil|HoleSize=0mil|Usage=FLASHONLY|Rotation=270.000|XOffset=0mil|YOffset=0mil|HoleType=Round|Shape=RoundedRectangle|*
%AMROUNDEDRECTD26*
21,1,0.062,0.012,0,0,270.0*
21,1,0.058,0.016,0,0,270.0*
1,1,0.004,-0.006,-0.029*
1,1,0.004,-0.006,0.029*
1,1,0.004,0.006,0.029*
1,1,0.004,0.006,-0.029*
%
%ADD26ROUNDEDRECTD26*%
G04:AMPARAMS|DCode=27|XSize=62mil|YSize=16mil|CornerRadius=2mil|HoleSize=0mil|Usage=FLASHONLY|Rotation=0.000|XOffset=0mil|YOffset=0mil|HoleType=Round|Shape=RoundedRectangle|*
%AMROUNDEDRECTD27*
21,1,0.062,0.012,0,0,0.0*
21,1,0.058,0.016,0,0,0.0*
1,1,0.004,0.029,-0.006*
1,1,0.004,-0.029,-0.006*
1,1,0.004,-0.029,0.006*
1,1,0.004,0.029,0.006*
%
%ADD27ROUNDEDRECTD27*%
%ADD29R,0.030X0.087*%
%ADD30R,0.094X0.243*%
%ADD31R,0.070X0.014*%
%ADD34R,0.075X0.016*%
%ADD35R,0.039X0.031*%
%ADD39R,0.038X0.049*%
%ADD40R,0.053X0.053*%
%ADD41R,0.014X0.066*%
%ADD42R,0.053X0.053*%
%ADD43R,0.049X0.038*%
G04:AMPARAMS|DCode=44|XSize=86mil|YSize=45mil|CornerRadius=9mil|HoleSize=0mil|Usage=FLASHONLY|Rotation=90.000|XOffset=0mil|YOffset=0mil|HoleType=Round|Shape=RoundedRectangle|*
%AMROUNDEDRECTD44*
21,1,0.086,0.027,0,0,90.0*
21,1,0.069,0.045,0,0,90.0*
1,1,0.017,0.014,0.034*
1,1,0.017,0.014,-0.034*
1,1,0.017,-0.014,-0.034*
1,1,0.017,-0.014,0.034*
%
%ADD44ROUNDEDRECTD44*%
%ADD45R,0.057X0.026*%
%ADD46R,0.032X0.076*%
G04:AMPARAMS|DCode=47|XSize=50mil|YSize=49mil|CornerRadius=15mil|HoleSize=0mil|Usage=FLASHONLY|Rotation=0.000|XOffset=0mil|YOffset=0mil|HoleType=Round|Shape=RoundedRectangle|*
%AMROUNDEDRECTD47*
21,1,0.050,0.019,0,0,0.0*
21,1,0.021,0.049,0,0,0.0*
1,1,0.029,0.010,-0.010*
1,1,0.029,-0.010,-0.010*
1,1,0.029,-0.010,0.010*
1,1,0.029,0.010,0.010*
%
%ADD47ROUNDEDRECTD47*%
G04:AMPARAMS|DCode=48|XSize=86mil|YSize=135mil|CornerRadius=14mil|HoleSize=0mil|Usage=FLASHONLY|Rotation=90.000|XOffset=0mil|YOffset=0mil|HoleType=Round|Shape=RoundedRectangle|*
%AMROUNDEDRECTD48*
21,1,0.086,0.108,0,0,90.0*
21,1,0.058,0.135,0,0,90.0*
1,1,0.027,0.054,0.029*
1,1,0.027,0.054,-0.029*
1,1,0.027,-0.054,-0.029*
1,1,0.027,-0.054,0.029*
%
%ADD48ROUNDEDRECTD48*%
%ADD49R,0.091X0.228*%
%ADD50C,0.091*%
%ADD51C,0.071*%
%ADD52C,0.085*%
G04:AMPARAMS|DCode=53|XSize=85mil|YSize=85mil|CornerRadius=23mil|HoleSize=0mil|Usage=FLASHONLY|Rotation=180.000|XOffset=0mil|YOffset=0mil|HoleType=Round|Shape=RoundedRectangle|*
%AMROUNDEDRECTD53*
21,1,0.085,0.038,0,0,180.0*
21,1,0.038,0.085,0,0,180.0*
1,1,0.046,-0.019,0.019*
1,1,0.046,0.019,0.019*
1,1,0.046,0.019,-0.019*
1,1,0.046,-0.019,-0.019*
%
%ADD53ROUNDEDRECTD53*%
G04:AMPARAMS|DCode=54|XSize=85mil|YSize=85mil|CornerRadius=23mil|HoleSize=0mil|Usage=FLASHONLY|Rotation=90.000|XOffset=0mil|YOffset=0mil|HoleType=Round|Shape=RoundedRectangle|*
%AMROUNDEDRECTD54*
21,1,0.085,0.038,0,0,90.0*
21,1,0.038,0.085,0,0,90.0*
1,1,0.046,0.019,0.019*
1,1,0.046,0.019,-0.019*
1,1,0.046,-0.019,-0.019*
1,1,0.046,-0.019,0.019*
%
%ADD54ROUNDEDRECTD54*%
%ADD55O,0.040X0.067*%
%ADD56O,0.042X0.049*%
%ADD57C,0.059*%
%ADD58O,0.056X0.103*%
%ADD59R,0.059X0.059*%
%ADD60C,0.078*%
%ADD61R,0.065X0.065*%
%ADD62C,0.065*%
%ADD63R,0.091X0.091*%
%ADD64C,0.052*%
%ADD65C,0.079*%
%ADD66C,0.028*%
%ADD67C,0.168*%
G36*
X3190Y1904D02*
X3240D01*
D01*
D01*
Y1893D01*
X3190D01*
Y1904D01*
D01*
D01*
D02*
G37*
G36*
Y2146D02*
X3240D01*
D01*
D01*
Y2157D01*
X3190D01*
Y2146D01*
D01*
D01*
D02*
G37*
D22*
X2384Y1509D02*
D03*
X2206Y1841D02*
D03*
X2403D02*
D03*
X2384D02*
D03*
X2364D02*
D03*
X2344D02*
D03*
X2325D02*
D03*
X2305D02*
D03*
X2285D02*
D03*
X2265D02*
D03*
X2246D02*
D03*
X2226D02*
D03*
X2187D02*
D03*
Y1509D02*
D03*
X2206D02*
D03*
X2226D02*
D03*
X2246D02*
D03*
X2265D02*
D03*
X2285D02*
D03*
X2305D02*
D03*
X2325D02*
D03*
X2344D02*
D03*
X2364D02*
D03*
X2403D02*
D03*
D23*
X2129Y1586D02*
D03*
X2461Y1705D02*
D03*
Y1567D02*
D03*
Y1586D02*
D03*
Y1606D02*
D03*
Y1626D02*
D03*
Y1645D02*
D03*
Y1665D02*
D03*
Y1685D02*
D03*
Y1724D02*
D03*
Y1744D02*
D03*
Y1764D02*
D03*
Y1783D02*
D03*
X2129D02*
D03*
Y1764D02*
D03*
Y1744D02*
D03*
Y1724D02*
D03*
Y1705D02*
D03*
Y1685D02*
D03*
Y1665D02*
D03*
Y1645D02*
D03*
Y1626D02*
D03*
Y1606D02*
D03*
Y1567D02*
D03*
D25*
X4865Y3305D02*
D03*
X5130Y3306D02*
D03*
X3880Y3310D02*
D03*
X4310Y3306D02*
D03*
X4205Y2496D02*
D03*
X4595Y3306D02*
D03*
X4621Y3234D02*
D03*
X4569D02*
D03*
X4231Y2424D02*
D03*
X4179D02*
D03*
X3980Y2510D02*
D03*
X4006Y2440D02*
D03*
X3954D02*
D03*
X4336Y3234D02*
D03*
X4284D02*
D03*
X3906Y3240D02*
D03*
X3854D02*
D03*
X5156Y3234D02*
D03*
X5104D02*
D03*
X4891Y3234D02*
D03*
X4839D02*
D03*
D26*
X3487Y3318D02*
D03*
X3461D02*
D03*
X3435D02*
D03*
X3615Y3092D02*
D03*
X3589D02*
D03*
X3563D02*
D03*
X3538D02*
D03*
X3512D02*
D03*
X3487D02*
D03*
X3461D02*
D03*
X3435D02*
D03*
X3512Y3318D02*
D03*
X3538D02*
D03*
X3563D02*
D03*
X3589D02*
D03*
X3615D02*
D03*
D27*
X3157Y1367D02*
D03*
Y1341D02*
D03*
Y1315D02*
D03*
X3383Y1495D02*
D03*
Y1469D02*
D03*
Y1443D02*
D03*
Y1418D02*
D03*
Y1392D02*
D03*
Y1367D02*
D03*
Y1341D02*
D03*
Y1315D02*
D03*
X3157Y1392D02*
D03*
Y1418D02*
D03*
Y1443D02*
D03*
Y1469D02*
D03*
Y1495D02*
D03*
D29*
X2060Y1130D02*
D03*
X2110D02*
D03*
X2210D02*
D03*
X2160D02*
D03*
X2010D02*
D03*
X2210Y1276D02*
D03*
X2160D02*
D03*
X2110D02*
D03*
X2060D02*
D03*
X2010D02*
D03*
D30*
X3215Y2025D02*
D03*
D31*
X3332Y1859D02*
D03*
Y1884D02*
D03*
Y1910D02*
D03*
Y1935D02*
D03*
Y1961D02*
D03*
Y1987D02*
D03*
Y2012D02*
D03*
Y2038D02*
D03*
Y2063D02*
D03*
Y2089D02*
D03*
Y2115D02*
D03*
Y2140D02*
D03*
Y2166D02*
D03*
Y2191D02*
D03*
X3098D02*
D03*
Y2166D02*
D03*
Y2140D02*
D03*
Y2115D02*
D03*
Y2089D02*
D03*
Y2063D02*
D03*
Y2038D02*
D03*
Y2012D02*
D03*
Y1987D02*
D03*
Y1961D02*
D03*
Y1935D02*
D03*
Y1910D02*
D03*
Y1884D02*
D03*
Y1859D02*
D03*
D34*
X1499Y3010D02*
D03*
X1781Y2856D02*
D03*
Y2754D02*
D03*
Y2779D02*
D03*
Y2805D02*
D03*
Y2830D02*
D03*
Y2882D02*
D03*
Y2907D02*
D03*
Y2933D02*
D03*
Y2958D02*
D03*
Y2984D02*
D03*
Y3010D02*
D03*
Y3035D02*
D03*
Y3061D02*
D03*
Y3086D02*
D03*
X1499Y3086D02*
D03*
Y3061D02*
D03*
Y3035D02*
D03*
Y2984D02*
D03*
Y2958D02*
D03*
Y2933D02*
D03*
Y2907D02*
D03*
Y2882D02*
D03*
Y2856D02*
D03*
Y2830D02*
D03*
Y2805D02*
D03*
Y2779D02*
D03*
Y2754D02*
D03*
D35*
X3560Y2892D02*
D03*
Y2848D02*
D03*
X3500Y2892D02*
D03*
Y2848D02*
D03*
X1805Y1723D02*
D03*
Y1767D02*
D03*
X1865Y1723D02*
D03*
Y1767D02*
D03*
X5460Y2432D02*
D03*
Y2388D02*
D03*
X5400Y2432D02*
D03*
Y2388D02*
D03*
X1110Y3348D02*
D03*
Y3392D02*
D03*
X1170Y3348D02*
D03*
Y3392D02*
D03*
D39*
X3157Y2979D02*
D03*
Y2801D02*
D03*
X3073Y2979D02*
D03*
Y2801D02*
D03*
X1128D02*
D03*
Y2979D02*
D03*
X1212D02*
D03*
Y2801D02*
D03*
D40*
X3074Y2725D02*
D03*
X2041Y2905D02*
D03*
X2181Y1920D02*
D03*
X2409Y1355D02*
D03*
Y1425D02*
D03*
X3044Y3145D02*
D03*
X2719Y1810D02*
D03*
X2584Y1270D02*
D03*
X2041Y2760D02*
D03*
Y2830D02*
D03*
X5756Y2470D02*
D03*
X5664D02*
D03*
X4609Y2155D02*
D03*
X4701D02*
D03*
X1949Y2830D02*
D03*
Y2760D02*
D03*
X2676Y1270D02*
D03*
X2811Y1810D02*
D03*
X3136Y3145D02*
D03*
X2501Y1425D02*
D03*
Y1355D02*
D03*
X2089Y1920D02*
D03*
X4094Y2175D02*
D03*
X4186D02*
D03*
X4094Y1977D02*
D03*
X4186D02*
D03*
X4094Y1185D02*
D03*
X4186D02*
D03*
X4094Y1779D02*
D03*
X4186D02*
D03*
X4094Y1581D02*
D03*
X4186D02*
D03*
X4094Y1383D02*
D03*
X4186D02*
D03*
X3166Y2725D02*
D03*
X1216Y2720D02*
D03*
X1124D02*
D03*
X1949Y2905D02*
D03*
X1389Y1155D02*
D03*
X1481D02*
D03*
X5944Y2795D02*
D03*
X6036D02*
D03*
D41*
X2561Y2844D02*
D03*
X2715D02*
D03*
X2561Y3066D02*
D03*
X2535D02*
D03*
X2587D02*
D03*
X2612D02*
D03*
X2638D02*
D03*
X2663D02*
D03*
X2689D02*
D03*
X2715D02*
D03*
X2689Y2844D02*
D03*
X2663D02*
D03*
X2638D02*
D03*
X2612D02*
D03*
X2587D02*
D03*
X2535D02*
D03*
D42*
X3060Y1664D02*
D03*
X1175Y2166D02*
D03*
X1485Y2161D02*
D03*
X2620Y1669D02*
D03*
X2045Y1561D02*
D03*
X2575Y1429D02*
D03*
X3130Y1664D02*
D03*
X3230Y3089D02*
D03*
X1365Y2994D02*
D03*
X2645Y1429D02*
D03*
Y1521D02*
D03*
X1365Y3086D02*
D03*
X3230Y3181D02*
D03*
X3130Y1756D02*
D03*
X2575Y1521D02*
D03*
X2045Y1469D02*
D03*
X2620Y1761D02*
D03*
X1885Y3539D02*
D03*
Y3631D02*
D03*
X1910Y2124D02*
D03*
Y2216D02*
D03*
X4700Y3229D02*
D03*
Y3321D02*
D03*
X4305Y2409D02*
D03*
Y2501D02*
D03*
X4415Y3219D02*
D03*
Y3311D02*
D03*
X3980Y3224D02*
D03*
Y3316D02*
D03*
X1575Y2158D02*
D03*
Y2065D02*
D03*
X5245Y3224D02*
D03*
Y3316D02*
D03*
X4980Y3224D02*
D03*
Y3316D02*
D03*
X1600Y3549D02*
D03*
Y3641D02*
D03*
X1305Y3549D02*
D03*
Y3641D02*
D03*
X1455Y3549D02*
D03*
Y3641D02*
D03*
X1485Y2069D02*
D03*
X1175Y2074D02*
D03*
X1100Y2072D02*
D03*
Y2165D02*
D03*
X3060Y1756D02*
D03*
X2945Y1994D02*
D03*
Y2086D02*
D03*
X5048Y3511D02*
D03*
Y3419D02*
D03*
X4610Y3501D02*
D03*
Y3409D02*
D03*
X4055Y3516D02*
D03*
Y3424D02*
D03*
D43*
X1995Y2207D02*
D03*
X2172D02*
D03*
X1995Y3627D02*
D03*
X2172D02*
D03*
Y3543D02*
D03*
X1995D02*
D03*
X2172Y2123D02*
D03*
X1995D02*
D03*
D44*
X3044Y3271D02*
D03*
X3135D02*
D03*
X3226D02*
D03*
D45*
X6012Y2948D02*
D03*
X5948Y2910D02*
D03*
X6012Y2872D02*
D03*
D46*
X3650Y2419D02*
D03*
X3300D02*
D03*
X3350D02*
D03*
X3400D02*
D03*
X3450D02*
D03*
X3500D02*
D03*
X3550D02*
D03*
X3600D02*
D03*
X3650Y2641D02*
D03*
X3600D02*
D03*
X3550D02*
D03*
X3500D02*
D03*
X3450D02*
D03*
X3400D02*
D03*
X3350D02*
D03*
X3300D02*
D03*
D47*
X3817Y3475D02*
D03*
X3933D02*
D03*
X5953Y2475D02*
D03*
X5837D02*
D03*
D48*
X3135Y3509D02*
D03*
D49*
X2810Y1271D02*
D03*
Y1645D02*
D03*
D50*
X1578Y1354D02*
D03*
Y1846D02*
D03*
X1382D02*
D03*
D51*
X5830Y1335D02*
D03*
X5190Y2179D02*
D03*
Y1982D02*
D03*
Y1785D02*
D03*
Y1588D02*
D03*
Y1391D02*
D03*
Y1194D02*
D03*
X3895Y2174D02*
D03*
Y1977D02*
D03*
Y1780D02*
D03*
Y1583D02*
D03*
Y1386D02*
D03*
Y1189D02*
D03*
X5830Y1729D02*
D03*
Y1532D02*
D03*
D52*
X4162Y3560D02*
D03*
X5830Y2268D02*
D03*
X5587Y3200D02*
D03*
D53*
X5783D02*
D03*
X3965Y3560D02*
D03*
D54*
X5830Y2072D02*
D03*
D55*
X3309Y3655D02*
D03*
X3638D02*
D03*
D56*
X3561Y3537D02*
D03*
X3386D02*
D03*
D57*
X2979Y3645D02*
D03*
X2900D02*
D03*
X3057D02*
D03*
X5645Y2720D02*
D03*
Y2976D02*
D03*
D58*
X2658Y3645D02*
D03*
X3142D02*
D03*
D59*
X2743D02*
D03*
D60*
X1520Y2390D02*
D03*
X1620D02*
D03*
X1720D02*
D03*
X1820D02*
D03*
X1920D02*
D03*
X2020D02*
D03*
X2120D02*
D03*
X2220D02*
D03*
X2320D02*
D03*
X2420D02*
D03*
X2520D02*
D03*
X2620D02*
D03*
X2720D02*
D03*
X1520Y3390D02*
D03*
X1620D02*
D03*
X1720D02*
D03*
X1820D02*
D03*
X1920D02*
D03*
X2020D02*
D03*
X2120D02*
D03*
X2220D02*
D03*
X2320D02*
D03*
X2420D02*
D03*
X2520D02*
D03*
X2620D02*
D03*
X2720D02*
D03*
D61*
X4915Y3050D02*
D03*
D62*
X4815D02*
D03*
X4715D02*
D03*
X4615D02*
D03*
X4515D02*
D03*
X4415D02*
D03*
X4315D02*
D03*
X4215D02*
D03*
Y2650D02*
D03*
X4315D02*
D03*
X4415D02*
D03*
X4515D02*
D03*
X4615D02*
D03*
X4715D02*
D03*
X4815D02*
D03*
X4915D02*
D03*
D63*
X1382Y1354D02*
D03*
D64*
X1315Y2346D02*
D03*
Y2425D02*
D03*
Y2504D02*
D03*
D65*
Y2264D02*
D03*
Y2586D02*
D03*
D66*
X4775Y2115D02*
D03*
D67*
X5975Y3635D02*
D03*
Y1120D02*
D03*
X1120D02*
D03*
Y3635D02*
D03*
M02*
