G04*
G04 #@! TF.GenerationSoftware,Altium Limited,Altium Designer,25.5.2 (35)*
G04*
G04 Layer_Color=255*
%FSLAX23Y23*%
%MOIN*%
G70*
G04*
G04 #@! TF.SameCoordinates,10694D88-6559-4D2D-811B-EC1DD4263B2B*
G04*
G04*
G04 #@! TF.FilePolarity,Positive*
G04*
G01*
G75*
%ADD20R,0.045X0.045*%
%ADD21R,0.045X0.045*%
%ADD51C,0.071*%
%ADD55O,0.040X0.067*%
%ADD56O,0.042X0.049*%
%ADD64C,0.052*%
%ADD65C,0.079*%
%ADD70C,0.083*%
%ADD71C,0.077*%
G04:AMPARAMS|DCode=72|XSize=77mil|YSize=77mil|CornerRadius=19mil|HoleSize=0mil|Usage=FLASHONLY|Rotation=180.000|XOffset=0mil|YOffset=0mil|HoleType=Round|Shape=RoundedRectangle|*
%AMROUNDEDRECTD72*
21,1,0.077,0.038,0,0,180.0*
21,1,0.038,0.077,0,0,180.0*
1,1,0.038,-0.019,0.019*
1,1,0.038,0.019,0.019*
1,1,0.038,0.019,-0.019*
1,1,0.038,-0.019,-0.019*
%
%ADD72ROUNDEDRECTD72*%
G04:AMPARAMS|DCode=73|XSize=77mil|YSize=77mil|CornerRadius=19mil|HoleSize=0mil|Usage=FLASHONLY|Rotation=90.000|XOffset=0mil|YOffset=0mil|HoleType=Round|Shape=RoundedRectangle|*
%AMROUNDEDRECTD73*
21,1,0.077,0.038,0,0,90.0*
21,1,0.038,0.077,0,0,90.0*
1,1,0.038,0.019,0.019*
1,1,0.038,0.019,-0.019*
1,1,0.038,-0.019,-0.019*
1,1,0.038,-0.019,0.019*
%
%ADD73ROUNDEDRECTD73*%
%ADD74C,0.051*%
%ADD75O,0.048X0.095*%
%ADD76R,0.051X0.051*%
%ADD77C,0.070*%
%ADD78R,0.057X0.057*%
%ADD79C,0.057*%
%ADD80R,0.083X0.083*%
%ADD101R,0.114X0.075*%
%ADD102R,0.016X0.053*%
%ADD103R,0.043X0.018*%
%ADD104R,0.024X0.022*%
D20*
X3044Y3080D02*
D03*
X3136D02*
D03*
D21*
X3215Y3181D02*
D03*
Y3089D02*
D03*
X3380Y3314D02*
D03*
Y3406D02*
D03*
X2935Y3403D02*
D03*
Y3310D02*
D03*
D51*
X5830Y1335D02*
D03*
X5190Y2179D02*
D03*
Y1982D02*
D03*
Y1785D02*
D03*
Y1588D02*
D03*
Y1391D02*
D03*
Y1194D02*
D03*
X3895Y2174D02*
D03*
Y1977D02*
D03*
Y1780D02*
D03*
Y1583D02*
D03*
Y1386D02*
D03*
Y1189D02*
D03*
X5830Y1729D02*
D03*
Y1532D02*
D03*
D55*
X3309Y3655D02*
D03*
X3638D02*
D03*
D56*
X3561Y3537D02*
D03*
X3386D02*
D03*
D64*
X1315Y2346D02*
D03*
Y2425D02*
D03*
Y2504D02*
D03*
D65*
Y2264D02*
D03*
Y2586D02*
D03*
D70*
X1578Y1354D02*
D03*
Y1846D02*
D03*
X1382D02*
D03*
D71*
X4162Y3560D02*
D03*
X5830Y2268D02*
D03*
X5587Y3200D02*
D03*
D72*
X5783D02*
D03*
X3965Y3560D02*
D03*
D73*
X5830Y2072D02*
D03*
D74*
X2979Y3645D02*
D03*
X2900D02*
D03*
X3057D02*
D03*
X5645Y2720D02*
D03*
Y2976D02*
D03*
D75*
X2658Y3645D02*
D03*
X3142D02*
D03*
D76*
X2743D02*
D03*
D77*
X1520Y2390D02*
D03*
X1620D02*
D03*
X1720D02*
D03*
X1820D02*
D03*
X1920D02*
D03*
X2020D02*
D03*
X2120D02*
D03*
X2220D02*
D03*
X2320D02*
D03*
X2420D02*
D03*
X2520D02*
D03*
X2620D02*
D03*
X2720D02*
D03*
X1520Y3390D02*
D03*
X1620D02*
D03*
X1720D02*
D03*
X1820D02*
D03*
X1920D02*
D03*
X2020D02*
D03*
X2120D02*
D03*
X2220D02*
D03*
X2320D02*
D03*
X2420D02*
D03*
X2520D02*
D03*
X2620D02*
D03*
X2720D02*
D03*
D78*
X4915Y3050D02*
D03*
D79*
X4815D02*
D03*
X4715D02*
D03*
X4615D02*
D03*
X4515D02*
D03*
X4415D02*
D03*
X4315D02*
D03*
X4215D02*
D03*
Y2650D02*
D03*
X4315D02*
D03*
X4415D02*
D03*
X4515D02*
D03*
X4615D02*
D03*
X4715D02*
D03*
X4815D02*
D03*
X4915D02*
D03*
D80*
X1382Y1354D02*
D03*
D101*
X3474Y3655D02*
D03*
D102*
X3525Y3550D02*
D03*
X3499D02*
D03*
X3474D02*
D03*
X3448D02*
D03*
X3423D02*
D03*
D103*
X3674Y3345D02*
D03*
X3776Y3308D02*
D03*
Y3345D02*
D03*
Y3382D02*
D03*
X3674D02*
D03*
Y3308D02*
D03*
D104*
X3305Y3395D02*
D03*
Y3320D02*
D03*
X3207Y3358D02*
D03*
X3011Y3323D02*
D03*
Y3397D02*
D03*
X3109Y3360D02*
D03*
M02*
